<?xml version="1.0" standalone="no"?>
<!DOCTYPE svg PUBLIC "-//W3C//DTD SVG 20010904//EN"
 "http://www.w3.org/TR/2001/REC-SVG-20010904/DTD/svg10.dtd">
<svg version="1.0" xmlns="http://www.w3.org/2000/svg"
 width="680.000000pt" height="680.000000pt" viewBox="0 0 680.000000 680.000000"
 preserveAspectRatio="xMidYMid meet">
<metadata>
Created by potrace 1.14, written by Peter Selinger 2001-2017
</metadata>
<g transform="translate(0.000000,680.000000) scale(0.100000,-0.100000)"
fill="#000000" stroke="none">
<path d="M1309 6557 c-1 -1 -2 -940 -3 -2086 -1 -1380 2 -2088 9 -2095 5 -7
62 -34 125 -60 124 -52 607 -288 730 -357 68 -37 216 -123 279 -160 160 -94
434 -289 554 -393 42 -37 81 -65 87 -61 13 8 6 75 -13 111 -50 97 -327 405
-533 593 -98 88 -105 94 -229 192 -195 153 -414 295 -615 400 -33 17 -64 39
-68 48 -7 14 -9 879 -2 906 1 6 1 13 0 18 -6 19 -5 33 5 39 7 5 7 8 0 8 -11 0
-13 46 -2 56 3 4 2 15 -4 25 -7 14 -6 19 3 19 9 0 9 3 0 12 -9 9 -8 16 5 31
10 10 13 17 8 15 -6 -2 -10 2 -10 7 0 6 4 9 8 7 4 -1 0 10 -10 25 -17 26 -17
27 0 20 9 -3 17 -2 17 3 0 6 -5 10 -10 10 -12 0 -11 122 1 141 4 7 3 21 -2 30
-6 11 -5 20 1 24 5 3 10 11 10 17 0 7 -6 6 -15 -2 -10 -9 -15 -9 -15 -1 0 6 4
11 8 11 9 0 6 95 -4 111 -4 8 -1 8 14 0 28 -15 28 -15 28 19 0 17 -4 29 -10
27 -6 -2 -9 -13 -8 -23 2 -10 0 -15 -5 -11 -4 5 -8 21 -9 37 0 22 4 27 18 25
10 -2 20 0 23 6 4 5 1 9 -5 9 -7 0 -9 8 -4 22 6 20 5 21 -9 9 -9 -7 -14 -17
-11 -22 3 -5 1 -9 -5 -9 -5 0 -9 9 -8 19 0 11 4 18 8 15 4 -2 13 4 20 13 12
14 11 15 -11 9 -21 -6 -22 -5 -7 4 9 6 22 8 28 4 7 -4 10 -1 7 7 -3 8 -13 13
-22 11 -16 -3 -16 -1 1 16 12 13 22 16 31 9 8 -6 12 -6 12 2 0 6 -7 14 -15 17
-8 4 -15 10 -15 16 0 5 5 6 10 3 6 -3 10 -2 10 4 0 10 -39 27 -53 23 -5 -1 -6
2 -2 8 10 16 68 -18 61 -36 -8 -20 20 -29 39 -14 9 7 13 15 10 18 -2 3 -10 0
-18 -6 -10 -8 -13 -6 -14 9 -2 21 -21 42 -43 47 -8 2 -18 8 -21 14 -4 6 -9 5
-12 -3 -3 -8 -4 -4 -4 9 2 27 8 28 25 2 7 -12 17 -18 22 -15 6 4 4 12 -5 21
-8 9 -15 19 -15 24 0 5 11 -2 25 -16 14 -14 33 -24 43 -22 22 4 24 44 4 60
-13 11 -15 10 -9 -7 7 -20 7 -20 -8 -1 -8 11 -15 25 -15 30 0 6 5 4 10 -4 9
-13 10 -13 10 0 0 8 -9 21 -21 28 -19 12 -20 11 -14 -10 6 -22 5 -22 -9 2 -9
14 -15 21 -16 16 0 -5 -7 -3 -15 4 -8 7 -15 18 -15 24 0 6 6 4 13 -4 7 -9 19
-15 27 -15 22 1 60 -25 60 -41 0 -8 4 -14 8 -14 11 0 32 22 32 34 0 6 -4 6
-11 -1 -7 -7 -17 -4 -35 14 -24 24 -32 39 -15 29 11 -7 24 24 15 33 -4 3 -9 0
-11 -7 -4 -9 -9 -10 -18 -2 -9 7 -16 6 -26 -7 -12 -15 -12 -16 4 -10 9 3 17 2
17 -3 0 -17 -25 -11 -43 10 -21 25 -22 37 -2 20 12 -10 18 -10 30 0 8 6 13 17
12 23 -1 7 7 12 17 12 11 0 21 6 24 14 3 10 0 11 -9 5 -12 -7 -12 -5 0 9 21
26 2 20 -29 -10 -16 -15 -27 -30 -24 -35 8 -13 -6 -9 -22 6 -19 19 -18 32 1
16 8 -7 15 -8 15 -2 0 5 -6 15 -13 21 -15 12 -17 97 -4 119 8 12 2 16 -18 12
-5 -1 -6 2 -2 7 5 4 14 8 19 8 6 0 13 6 16 13 2 8 -2 10 -15 5 -19 -7 -18 -5
11 17 18 13 19 13 11 0 -8 -13 -7 -13 11 0 15 11 16 11 7 0 -18 -19 -16 -33 2
-26 9 3 18 -1 21 -9 4 -8 11 -12 16 -9 6 4 6 9 -2 14 -9 5 -9 9 -1 14 6 4 11
2 11 -5 0 -6 8 -3 18 8 9 10 14 14 10 9 -20 -25 15 -35 35 -11 5 6 6 2 3 -8
-4 -13 -2 -16 7 -11 7 5 6 0 -3 -12 -14 -18 -14 -18 4 -4 17 12 16 10 -3 -16
-19 -26 -21 -35 -12 -50 11 -17 11 -17 6 4 -4 13 -2 22 5 22 6 0 9 4 6 9 -3 5
2 15 12 22 16 13 16 13 2 -5 -8 -11 -10 -17 -3 -13 6 4 14 3 18 -3 4 -6 11 -7
17 -4 7 5 8 2 3 -6 -5 -9 -4 -11 4 -6 7 5 10 2 9 -6 -2 -8 6 -13 19 -12 16 1
20 -4 18 -17 -3 -16 -1 -17 15 -9 24 13 30 13 30 0 0 -6 -3 -9 -7 -9 -5 1 -15
1 -23 0 -13 -1 -13 -2 0 -11 13 -9 13 -10 0 -10 -12 -1 -11 -3 3 -11 9 -6 14
-15 11 -21 -4 -6 -3 -8 3 -5 5 3 10 0 10 -6 0 -7 -9 -14 -19 -14 -10 -1 -18 3
-18 9 0 16 -13 1 -16 -18 -2 -10 3 -14 12 -10 9 4 28 -7 47 -27 18 -18 28 -29
22 -25 -13 11 -25 10 -25 -3 0 -5 4 -8 9 -4 5 3 13 0 17 -6 4 -7 3 -9 -4 -5
-7 4 -10 -1 -7 -14 4 -22 -10 -28 -18 -7 -4 9 -6 9 -6 0 -1 -7 8 -17 18 -23
24 -12 25 -50 1 -43 -10 4 -8 0 5 -11 11 -10 13 -14 5 -10 -13 7 -13 6 0 -12
14 -18 14 -18 -5 -4 -16 11 -17 11 -7 0 6 -8 12 -18 12 -24 0 -5 -6 -1 -14 9
-13 18 -14 17 -11 -8 2 -15 -1 -27 -6 -27 -6 0 -7 -5 -3 -11 5 -8 9 -8 14 1 5
9 9 9 14 1 4 -6 2 -11 -5 -11 -7 0 -4 -7 7 -15 15 -12 15 -14 2 -9 -13 4 -16
0 -15 -15 1 -12 6 -21 11 -21 5 0 6 -3 3 -6 -4 -4 -13 -2 -21 5 -11 9 -13 6
-11 -19 2 -18 -1 -27 -8 -23 -6 4 -7 1 -2 -7 6 -9 4 -11 -5 -5 -9 6 -11 4 -5
-5 5 -8 4 -11 -3 -6 -6 3 -9 15 -7 26 2 12 0 18 -6 15 -14 -9 -11 -31 7 -46
13 -10 17 -10 25 2 5 8 9 12 10 9 0 -3 2 -13 4 -22 2 -10 0 -18 -4 -18 -12 0
-71 47 -66 52 3 2 -2 5 -10 5 -8 0 -15 -4 -15 -9 0 -4 5 -8 11 -8 5 0 7 -5 3
-11 -4 -8 -9 -7 -16 2 -8 11 -9 11 -5 -1 2 -8 10 -14 16 -12 6 1 11 -3 11 -9
0 -6 -7 -8 -16 -5 -14 5 -15 4 -5 -7 9 -11 7 -17 -6 -28 -9 -8 -14 -9 -10 -2
4 6 2 15 -4 19 -8 5 -9 3 -4 -7 7 -12 6 -12 -7 -1 -13 10 -18 9 -29 -5 -8 -9
-9 -14 -2 -10 18 11 23 -6 8 -26 -11 -16 -13 -16 -19 -1 -4 10 -12 14 -24 10
-11 -4 -8 2 8 16 14 13 19 19 10 13 -11 -7 -11 -5 3 11 22 27 22 42 0 17 -10
-10 -13 -12 -8 -4 7 10 2 10 -17 -3 -25 -17 -32 -15 -29 6 0 4 -6 5 -14 1 -23
-8 3 -35 26 -28 21 7 26 -9 7 -21 -7 -4 -8 -3 -4 4 5 8 1 10 -9 5 -9 -3 -13
-9 -8 -12 14 -10 13 -29 -1 -34 -9 -4 -12 0 -9 12 2 10 -4 24 -14 32 -16 12
-17 12 -7 -1 9 -13 10 -22 5 -46 0 -4 -8 -1 -16 6 -8 7 -15 9 -15 4 0 -5 -5
-2 -10 6 -7 11 -8 5 -5 -20 9 -71 11 -75 39 -74 15 1 25 -3 23 -10 -2 -5 -17
-10 -33 -11 -16 0 -28 -4 -26 -10 2 -5 10 -9 19 -7 12 3 11 -3 -6 -27 -13 -17
-18 -31 -12 -31 6 0 10 -6 9 -12 -2 -7 4 -13 12 -13 8 -1 25 -6 37 -13 12 -7
25 -12 30 -12 4 1 -3 7 -17 15 -24 14 -23 16 9 19 8 0 15 7 17 14 1 7 0 8 -3
2 -2 -5 -9 -10 -14 -10 -6 0 -7 5 -4 10 3 6 2 10 -4 10 -5 0 -11 -5 -13 -12
-7 -21 -44 -19 -45 2 -2 20 15 23 30 5 5 -6 7 -3 3 7 -3 12 4 22 24 32 17 8
30 10 30 5 0 -5 -10 -14 -22 -19 -21 -8 -20 -9 7 -6 33 2 95 36 95 51 0 6 4 4
9 -4 7 -10 13 -11 27 -2 18 11 18 11 0 9 -10 -2 -21 2 -23 8 -5 14 28 14 45 1
11 -9 9 -14 -9 -27 -18 -14 -20 -20 -10 -36 11 -17 11 -16 5 6 -3 14 -3 22 1
18 5 -5 15 1 22 12 8 11 18 18 23 15 5 -3 15 1 23 9 8 8 17 13 21 11 3 -3 2 0
-4 7 -7 8 0 20 23 41 18 17 24 26 12 20 -11 -5 -31 -8 -45 -6 -14 1 -44 4 -67
5 -31 1 -40 5 -33 13 5 7 8 14 5 17 -3 3 6 10 20 16 15 7 27 8 30 2 6 -9 -8
-14 -27 -11 -5 0 -8 -4 -8 -10 0 -6 7 -9 15 -6 8 4 17 2 19 -2 6 -9 98 -7 114
3 6 4 15 0 19 -9 7 -12 11 -11 22 8 8 12 10 19 6 15 -5 -4 -14 0 -21 10 -13
18 -10 32 7 32 6 0 8 -4 4 -9 -3 -5 -1 -12 3 -15 12 -7 88 33 84 44 -3 13 15
13 21 0 3 -6 4 -5 3 2 -3 15 -25 17 -28 3 -2 -5 -19 -18 -38 -27 -40 -21 -43
-22 -35 -8 3 6 -1 13 -9 16 -9 3 -16 13 -16 21 0 12 2 12 16 -1 18 -18 34 -21
34 -5 0 5 -4 8 -9 5 -5 -3 -15 2 -22 11 -12 14 -11 15 6 10 15 -5 24 0 36 22
15 26 15 29 -2 39 -10 7 -22 12 -26 12 -5 0 0 -5 10 -11 9 -5 17 -15 17 -20 0
-15 -43 18 -46 35 -2 17 44 16 51 -1 2 -7 11 -13 20 -13 12 0 13 -4 7 -17 -5
-10 -7 -24 -5 -31 3 -7 -1 -11 -8 -10 -7 2 -14 -6 -16 -17 -3 -18 -2 -18 5 -2
4 10 12 19 17 20 6 1 10 7 11 12 2 22 17 45 25 39 5 -3 9 0 9 6 0 6 -6 10 -12
9 -35 -4 -46 2 -44 26 0 15 6 23 13 21 6 -3 14 2 17 9 3 9 13 12 23 9 14 -5
15 -4 4 4 -9 6 -22 5 -40 -4 -33 -17 -38 -17 -38 1 0 8 9 13 21 12 15 -1 21 3
20 16 -2 21 3 21 23 2 14 -14 16 -14 27 -1 6 9 20 23 31 32 18 14 18 15 1 10
-16 -5 -17 -2 -12 21 5 23 4 25 -5 10 -6 -10 -8 -24 -5 -32 8 -21 -21 -40 -39
-25 -8 6 -19 9 -24 6 -5 -4 -12 -2 -15 3 -8 13 18 21 35 10 19 -12 29 -11 29
3 0 6 -3 9 -6 5 -4 -3 -26 5 -49 18 -24 13 -46 21 -49 17 -4 -3 -5 4 -3 16 3
22 17 43 17 26 0 -6 6 -19 14 -30 14 -18 15 -18 36 9 12 15 25 26 28 23 3 -3
-3 -15 -12 -25 -20 -22 -14 -42 12 -40 15 1 15 2 0 6 -21 5 -23 14 -6 31 17
17 33 15 18 -3 -8 -9 -8 -15 -2 -15 19 0 19 25 1 49 -15 18 -16 28 -8 45 8 17
7 16 -10 -4 -20 -25 -20 -25 -18 -2 1 12 4 22 7 22 3 0 15 7 26 16 18 15 18
15 -3 5 -13 -7 -24 -7 -28 -2 -3 5 3 12 12 14 10 3 1 4 -20 2 -21 -1 -40 1
-42 5 -6 10 24 22 36 14 12 -7 39 14 39 29 0 6 -6 2 -14 -9 -8 -10 -18 -15
-22 -11 -5 4 -2 13 6 18 12 9 11 10 -4 5 -13 -4 -17 -2 -13 8 3 7 0 19 -6 25
-6 6 -7 14 -2 18 4 5 10 2 12 -4 3 -7 9 -13 14 -13 6 0 3 10 -5 21 -15 22 -11
53 5 43 5 -3 6 2 3 11 -4 10 -2 15 7 13 8 -2 14 8 15 25 2 15 -1 27 -6 27 -5
0 -7 -12 -4 -26 3 -16 1 -23 -6 -19 -5 3 -15 -5 -21 -19 -7 -14 -16 -23 -20
-20 -5 3 -9 0 -9 -5 0 -6 5 -11 11 -11 8 0 8 -4 1 -12 -5 -7 -8 -30 -7 -50 3
-42 -2 -45 -31 -23 -18 14 -18 16 -1 29 25 19 21 24 -14 20 -25 -3 -29 -1 -20
9 8 10 7 17 -1 25 -9 9 -9 12 0 12 7 0 15 -7 18 -15 10 -25 32 -17 32 11 0 17
-3 22 -9 13 -4 -7 -5 -17 -2 -23 3 -5 1 -6 -6 -2 -15 10 -10 39 9 48 11 6 10
7 -5 6 -11 -2 -26 1 -32 5 -16 10 -17 38 -1 35 26 -6 18 31 -11 52 -17 12 -32
18 -33 13 0 -4 -2 -12 -3 -18 -5 -32 -18 -53 -30 -49 -7 3 -16 0 -20 -6 -5 -8
-11 -8 -21 1 -19 15 -18 35 2 43 22 9 24 8 18 -9 -4 -8 -11 -12 -17 -8 -5 3
-7 1 -4 -5 4 -5 16 -8 26 -5 21 5 35 29 25 45 -10 16 28 37 47 25 18 -11 53
-2 45 12 -4 5 -1 12 4 14 6 3 5 4 -2 3 -7 -2 -12 -9 -11 -15 2 -6 -7 -11 -19
-11 -21 0 -21 0 -2 22 18 21 18 22 0 8 -10 -8 -25 -15 -33 -16 -25 -4 -44 -26
-38 -45 3 -9 0 -21 -6 -25 -7 -4 -9 -3 -5 4 3 6 1 14 -5 17 -5 4 -8 13 -5 20
6 16 -18 27 -41 18 -11 -4 -14 -3 -9 5 4 7 3 20 -3 29 -7 14 -4 24 12 41 13
14 16 21 7 17 -25 -9 -44 -45 -31 -58 16 -16 14 -27 -5 -27 -8 0 -13 4 -10 8
2 4 1 14 -5 22 -6 11 -9 12 -9 2 0 -7 -5 -10 -11 -6 -7 4 2 19 25 40 24 22 31
34 22 34 -9 0 -16 5 -16 10 0 6 -5 10 -11 10 -8 0 -7 -5 1 -16 11 -13 9 -19
-15 -42 -19 -19 -26 -22 -22 -9 4 9 2 17 -3 17 -6 0 -10 -8 -10 -18 0 -11 -8
-18 -20 -19 -11 -1 -18 3 -14 8 3 5 -5 18 -18 29 -13 11 -18 19 -11 20 6 0 15
-4 18 -10 9 -15 19 -12 51 15 16 14 25 25 20 25 -6 0 -20 -10 -33 -21 -19 -18
-25 -20 -38 -9 -8 7 -18 10 -22 7 -8 -8 -33 12 -33 25 0 6 7 5 15 -2 9 -7 18
-10 22 -6 3 3 1 6 -6 6 -7 0 -9 5 -5 12 5 8 13 4 26 -12 10 -12 21 -21 23 -18
9 9 -47 58 -64 57 -13 -1 -13 -2 2 -6 9 -2 15 -9 11 -14 -3 -5 -10 -7 -15 -3
-6 3 -17 -3 -24 -14 -8 -11 -25 -19 -39 -19 l-24 0 -1 119 c-1 66 -3 124 -6
128 -3 5 1 11 7 13 10 4 9 6 -1 6 -11 1 -11 4 -1 16 7 8 9 15 4 15 -10 0 -12
795 -3 805 6 5 61 -6 149 -29 165 -44 540 -235 828 -422 62 -41 117 -74 122
-74 4 0 10 -3 12 -8 2 -4 53 -41 113 -81 61 -41 129 -90 153 -109 93 -76 16
26 -128 168 -113 112 -242 218 -395 325 -113 79 -318 205 -334 205 -5 0 -11 3
-13 8 -9 22 -419 219 -633 304 -179 72 -195 78 -196 75z m413 -1474 c10 -9 18
-21 18 -27 0 -6 -7 -2 -15 8 -8 11 -16 14 -16 8 -3 -26 -4 -31 -10 -37 -4 -3
-9 1 -12 9 -4 9 -2 18 3 21 6 4 10 11 10 18 0 6 -6 2 -14 -8 -8 -11 -12 -24
-9 -30 2 -5 -2 -2 -10 8 -10 12 -17 14 -22 8 -3 -6 -2 -11 3 -11 5 0 9 -7 9
-15 0 -8 -4 -12 -8 -10 -4 3 -6 -6 -5 -20 2 -14 -1 -22 -6 -19 -6 4 -7 20 -4
36 3 16 2 27 -3 23 -5 -3 -7 4 -4 15 3 11 9 17 14 14 5 -3 9 1 9 8 0 11 2 11
9 0 6 -10 10 -10 21 3 16 19 19 19 42 -2z m23 -37 c7 3 16 0 21 -7 5 -9 2 -10
-9 -6 -9 3 -27 -3 -41 -14 -14 -11 -26 -15 -26 -9 0 6 -5 8 -11 5 -6 -5 -3
-12 10 -21 11 -8 18 -21 15 -28 -3 -8 -1 -17 5 -21 6 -3 9 0 5 8 -6 16 22 31
31 16 4 -5 10 -7 15 -4 5 3 11 1 15 -4 3 -6 13 -7 22 -4 11 4 14 2 9 -5 -10
-17 33 -6 55 14 18 16 39 12 39 -9 0 -7 -4 -6 -11 3 -9 12 -10 12 -5 -4 5 -14
2 -17 -10 -12 -19 7 -54 -10 -53 -27 0 -9 2 -9 6 1 6 15 33 16 33 1 0 -5 -4
-8 -9 -4 -5 3 -13 0 -17 -6 -5 -8 -3 -9 6 -4 9 6 11 4 5 -5 -6 -9 -4 -11 5 -5
8 5 11 4 6 -3 -3 -6 -1 -14 5 -18 7 -4 9 -3 6 3 -4 6 0 16 8 23 18 15 19 7 4
-22 -9 -16 -8 -19 2 -13 7 5 10 4 6 -2 -3 -5 0 -10 8 -10 11 0 12 4 4 13 -19
23 1 37 23 17 15 -13 22 -15 25 -5 3 6 9 12 15 12 7 0 7 -5 1 -12 -5 -7 -9
-20 -8 -28 1 -17 -33 -45 -42 -36 -4 3 0 6 8 6 12 0 12 2 0 9 -8 5 -23 8 -33
6 -10 -2 -16 0 -13 4 5 9 -14 29 -30 30 -5 1 -10 4 -10 9 0 4 -9 19 -19 34
-16 24 -21 26 -40 16 -18 -10 -19 -9 -9 4 18 22 3 31 -19 11 -10 -9 -18 -13
-18 -9 0 4 -6 4 -12 -1 -21 -13 -42 -13 -30 -1 8 8 8 17 1 31 -8 14 -8 18 0
13 6 -4 11 -5 11 -2 0 3 -9 10 -21 16 -19 10 -20 10 -10 -9 13 -24 14 -34 2
-26 -5 3 -12 1 -16 -5 -10 -16 -22 -12 -28 9 -3 12 1 18 12 17 10 -1 15 5 13
17 -2 9 2 17 9 17 6 0 9 7 5 15 -4 12 -2 13 13 5 14 -7 22 -6 30 4 6 7 9 15 7
18 -1 3 1 2 7 -2 5 -5 15 -6 22 -4z m58 -31 c14 3 29 1 32 -5 4 -6 10 -8 14
-6 4 3 7 -4 8 -14 2 -22 -13 -35 -22 -20 -3 5 -1 10 5 10 6 0 8 5 4 11 -10 16
-24 -10 -16 -30 5 -14 3 -14 -11 -3 -9 8 -21 11 -26 8 -5 -4 -12 -2 -16 4 -4
6 -10 8 -15 5 -4 -3 -10 2 -13 9 -4 10 0 13 14 11 11 -2 17 0 14 5 -7 12 -35
6 -45 -9 -4 -8 -13 -10 -19 -6 -9 5 -9 10 0 21 6 7 15 11 20 8 5 -3 9 0 9 6 0
7 6 8 19 1 10 -6 30 -8 44 -6z m127 -50 c0 -8 -9 -24 -20 -35 -11 -11 -20 -17
-20 -14 0 4 -6 2 -13 -4 -10 -8 -13 -6 -13 8 0 10 3 17 7 14 14 -8 39 9 39 27
0 10 5 19 10 19 6 0 10 -7 10 -15z m120 -50 c0 -8 -10 -12 -25 -10 -27 2 -26
-2 19 -52 11 -13 15 -23 9 -23 -6 0 -18 -2 -26 -5 -8 -4 -14 0 -14 10 0 10 6
14 16 10 14 -5 14 -5 1 7 -8 7 -20 19 -26 26 -9 10 -13 9 -18 -3 -3 -9 -2 -13
3 -10 16 9 20 -9 5 -23 -9 -8 -14 -9 -14 -2 0 6 -4 9 -8 6 -5 -3 -9 1 -9 9 0
8 4 15 7 15 10 0 35 62 32 78 -2 10 4 9 22 -4 14 -9 26 -22 26 -29z m-41 -82
c-3 -20 2 -34 10 -28 5 3 12 1 15 -4 12 -19 -17 -24 -31 -6 -9 13 -13 14 -13
5 0 -9 -5 -7 -15 6 -13 18 -14 18 -8 -4 6 -24 23 -40 23 -22 0 6 5 8 11 4 8
-4 7 -9 -2 -15 -7 -4 -17 -5 -21 -3 -4 3 -8 2 -9 -3 -6 -48 -5 -62 5 -56 6 4
4 -2 -4 -12 -13 -17 -13 -18 0 -10 8 5 21 10 28 11 11 2 11 -1 1 -14 -11 -14
-11 -15 1 -4 17 15 30 16 30 1 0 -5 -4 -8 -9 -4 -5 3 -13 0 -17 -6 -4 -7 -3
-9 3 -6 5 3 10 0 10 -8 0 -8 -3 -12 -7 -10 -3 2 -6 -7 -6 -20 0 -13 4 -21 10
-18 5 4 6 1 1 -7 -6 -9 -4 -11 6 -5 11 7 11 5 -1 -10 -14 -17 -14 -17 7 -4 16
9 19 16 10 21 -13 8 -7 10 33 10 34 0 41 -2 36 -10 -2 -4 -1 -14 3 -21 6 -9
11 -10 15 -2 4 6 3 11 -2 11 -5 0 -9 7 -9 15 0 20 14 19 26 -2 8 -13 10 -14
11 -4 0 8 3 11 7 8 3 -4 -5 -18 -19 -32 l-25 -25 -12 26 c-9 21 -14 24 -26 14
-8 -7 -15 -9 -15 -4 0 5 -5 1 -11 -8 -12 -21 -1 -43 21 -45 8 0 26 -4 38 -8
18 -6 20 -10 10 -16 -19 -12 -30 -11 -22 3 5 7 3 8 -6 3 -7 -4 -16 -2 -22 6
-8 11 -9 10 -4 -3 3 -10 1 -20 -4 -23 -9 -6 -14 8 -11 28 0 4 -3 7 -8 7 -5 0
-8 12 -6 27 2 25 2 26 -11 9 -7 -11 -11 -23 -7 -29 4 -6 1 -7 -7 -2 -9 6 -11
4 -5 -5 4 -7 2 -16 -6 -22 -11 -8 -10 -9 3 -4 10 3 20 0 24 -6 4 -6 3 -8 -2
-5 -5 3 -10 -9 -10 -28 0 -24 4 -32 16 -30 10 2 15 -5 16 -21 1 -18 -3 -24
-15 -22 -9 2 -19 7 -22 12 -4 4 -10 3 -13 -3 -4 -6 -2 -11 4 -11 6 0 8 -5 5
-10 -4 -6 -11 -7 -17 -4 -7 4 -8 2 -4 -5 4 -6 12 -9 17 -6 5 4 9 1 9 -4 0 -10
-14 -15 -32 -12 -4 0 -7 -9 -5 -22 1 -14 -3 -22 -12 -22 -9 0 -16 11 -16 27
-1 15 2 25 7 22 17 -11 28 7 18 27 -6 10 -7 19 -3 18 20 -3 24 2 13 16 -7 8
-9 15 -5 15 5 0 0 10 -11 22 -10 12 -14 18 -7 15 6 -4 15 -2 19 5 12 19 12 92
0 107 -12 15 -11 18 10 42 13 15 13 19 -8 35 -13 11 -29 27 -37 37 -12 15 -12
18 -1 15 17 -4 20 22 6 41 -15 19 -16 41 -3 38 7 -1 12 7 12 18 0 12 7 20 17
20 9 0 20 4 24 8 9 9 14 9 13 0z m27 -75 c4 -6 3 -8 -4 -5 -5 4 -18 4 -27 1
-16 -6 -16 -8 -1 -16 9 -5 14 -13 11 -19 -4 -5 -1 -9 4 -9 15 0 14 13 -1 29
-11 11 -10 13 4 8 11 -4 22 0 28 11 9 15 10 14 5 -5 -4 -14 0 -26 13 -35 14
-9 16 -16 8 -23 -14 -13 -25 -12 -53 3 -13 7 -23 10 -23 6 0 -3 -7 -1 -15 6
-19 15 -15 32 10 47 25 16 32 16 41 1z m79 -85 c14 1 20 -5 21 -20 1 -24 -3
-25 -73 -26 -18 0 -33 -4 -33 -9 0 -5 -5 -6 -10 -3 -8 5 -8 11 -1 19 6 7 8 15
5 19 -3 3 4 10 15 17 12 6 21 7 21 3 0 -4 5 -2 12 5 7 7 14 8 18 3 3 -5 14 -9
25 -8z m-451 -75 c-3 -4 -1 -8 5 -8 12 0 64 -50 58 -56 -4 -5 -97 81 -97 90 0
3 9 1 19 -6 11 -7 17 -16 15 -20z m-14 -29 c0 -6 -4 -7 -10 -4 -5 3 -10 11
-10 16 0 6 5 7 10 4 6 -3 10 -11 10 -16z m420 -3 c0 -3 -4 -8 -10 -11 -5 -3
-10 -1 -10 4 0 6 5 11 10 11 6 0 10 -2 10 -4z m-36 -52 c3 -8 2 -12 -4 -9 -6
3 -10 10 -10 16 0 14 7 11 14 -7z m74 -30 c27 -19 29 -38 3 -29 -11 3 -26 -1
-35 -10 -19 -19 -22 -32 -3 -17 10 8 13 5 15 -14 1 -13 -2 -24 -7 -24 -16 0
-31 27 -25 44 5 13 2 17 -12 14 -13 -2 -19 3 -19 17 0 12 7 20 17 20 9 0 20 4
24 8 11 10 17 9 42 -9z m-448 -24 c0 -5 -7 -7 -15 -4 -8 4 -15 8 -15 10 0 2 7
4 15 4 8 0 15 -4 15 -10z m-5 -39 c-3 -6 -11 -11 -16 -11 -5 0 -4 6 3 14 14
16 24 13 13 -3z m391 -49 c-3 -3 -1 -11 5 -18 8 -9 6 -22 -6 -47 -9 -19 -15
-40 -13 -47 2 -7 -2 -14 -9 -17 -7 -3 -10 5 -9 21 5 39 -16 49 -38 18 -11 -14
-14 -22 -8 -18 14 8 15 -3 3 -22 -10 -17 -21 -17 -31 -2 -5 8 -9 7 -13 -5 -5
-11 -3 -14 5 -9 8 5 9 2 5 -10 -4 -10 -3 -15 3 -11 6 3 10 2 10 -4 0 -5 -9 -9
-20 -8 -12 1 -18 7 -16 13 7 18 -17 35 -34 24 -8 -5 -18 -6 -22 -4 -4 3 -8 0
-8 -6 0 -7 -7 -9 -16 -6 -10 4 -13 2 -8 -6 5 -7 3 -8 -6 -3 -8 5 -11 4 -6 -3
4 -6 14 -9 24 -6 14 5 14 4 3 -4 -12 -9 -13 -13 -1 -26 7 -9 10 -19 7 -22 -3
-3 -10 3 -16 14 -8 15 -19 19 -46 16 -19 -1 -35 2 -35 7 0 6 8 9 18 8 30 -3
43 1 37 10 -3 5 -1 13 5 16 8 5 7 12 -2 23 -10 14 -8 13 9 -1 20 -18 21 -17
46 15 19 23 23 35 14 40 -7 4 -8 8 -4 8 5 0 23 -11 41 -25 39 -30 45 -31 42
-7 -2 9 5 23 15 30 11 7 19 19 19 26 0 8 7 17 16 20 9 3 14 12 11 20 -7 18 1
26 19 19 8 -3 12 -8 10 -11z m39 -62 c-5 -8 -11 -8 -17 -2 -6 6 -7 16 -3 22 5
8 11 8 17 2 6 -6 7 -16 3 -22z m-84 -29 c-10 -6 -10 -10 -1 -16 9 -6 9 -9 0
-15 -9 -6 -6 -10 9 -15 11 -3 26 -16 33 -28 10 -20 10 -21 -5 -9 -12 10 -21
11 -37 2 -16 -9 -25 -8 -36 1 -15 13 -20 34 -5 24 10 -5 33 27 30 42 -3 16 1
23 14 23 9 0 8 -3 -2 -9z m-251 -88 c-27 -19 -12 -32 35 -29 17 1 35 -4 42
-13 6 -9 17 -16 25 -17 7 0 21 -2 31 -2 36 -4 15 -20 -22 -17 -30 2 -38 -1
-34 -11 3 -8 -8 -21 -26 -31 -17 -10 -31 -21 -31 -25 0 -5 -5 -8 -11 -8 -8 0
-8 4 0 14 9 11 9 15 -1 19 -7 2 -10 8 -6 12 4 4 14 3 21 -4 11 -9 17 -8 27 3
6 9 9 20 6 25 -4 5 2 14 11 20 19 11 15 13 -27 15 -14 1 -31 5 -37 9 -7 5 -18
5 -25 1 -7 -4 -8 -3 -4 4 4 7 2 12 -4 12 -7 0 -10 -6 -7 -12 2 -7 11 -12 21
-10 20 4 20 -2 2 -17 -12 -10 -18 -7 -31 16 -9 15 -14 20 -11 11 4 -13 1 -16
-12 -11 -9 3 -2 -4 16 -16 17 -11 32 -24 32 -27 0 -4 -6 -1 -13 5 -8 6 -17 8
-20 4 -4 -3 -7 -1 -7 7 0 10 -4 10 -17 -1 -12 -10 -15 -11 -9 -1 4 7 4 18 -1
25 -8 11 -9 20 -4 43 0 4 7 2 14 -4 6 -6 17 -10 22 -10 17 0 46 19 41 26 -3 5
5 9 16 9 20 2 20 1 -2 -14z m136 -32 c8 6 14 7 14 2 0 -6 16 -9 36 -7 34 2 35
1 21 -13 -14 -14 -18 -14 -34 -2 -16 12 -17 12 -6 -2 7 -9 10 -19 6 -23 -4 -4
1 -4 12 0 16 6 18 4 8 -6 -19 -21 -45 -22 -39 -2 7 21 -4 37 -23 37 -8 0 -15
6 -17 13 -1 7 0 8 3 2 3 -8 9 -7 19 1z m-87 -37 c-5 -6 -6 -14 -3 -17 3 -3 3
-11 -1 -17 -5 -8 -10 -8 -20 0 -15 12 -43 2 -44 -15 -1 -5 -7 -10 -13 -10 -7
0 -21 -9 -30 -20 -10 -11 -17 -15 -18 -8 0 6 5 15 10 18 6 4 8 11 4 16 -3 5
-2 8 3 7 12 -3 56 23 49 29 -12 12 14 29 43 28 20 0 26 -3 20 -11z m-164 -73
c3 -5 2 -12 -3 -15 -5 -3 -9 1 -9 9 0 17 3 19 12 6z"/>
<path d="M1726 4961 c-4 -5 -2 -12 3 -15 5 -4 12 -2 15 3 4 5 2 12 -3 15 -5 4
-12 2 -15 -3z"/>
<path d="M1906 4877 c3 -9 11 -17 18 -17 7 0 6 -3 -2 -9 -11 -7 -11 -9 0 -14
21 -8 18 20 -4 40 -18 16 -18 16 -12 0z"/>
<path d="M1788 4992 c-5 -19 -3 -20 12 -12 11 6 22 16 26 23 6 9 4 9 -8 -1
-13 -10 -17 -10 -20 0 -3 7 -7 3 -10 -10z"/>
<path d="M2010 4919 c0 -5 5 -7 10 -4 6 3 10 8 10 11 0 2 -4 4 -10 4 -5 0 -10
-5 -10 -11z"/>
<path d="M1945 4771 c-3 -5 0 -13 6 -17 7 -4 9 -3 5 4 -3 5 0 13 6 15 9 4 10
6 1 6 -6 1 -14 -3 -18 -8z"/>
<path d="M1976 4681 c-3 -5 2 -15 12 -22 15 -12 16 -12 5 2 -7 9 -10 19 -6 22
3 4 4 7 0 7 -3 0 -8 -4 -11 -9z"/>
<path d="M1989 4615 c-5 -20 -4 -32 4 -42 5 -7 5 -18 1 -24 -4 -8 -3 -9 4 -5
10 6 10 33 2 56 -2 3 -2 8 -1 13 1 8 -8 10 -10 2z"/>
<path d="M1983 4471 c-7 -10 -9 -22 -5 -26 4 -4 7 -11 7 -16 0 -5 5 -9 10 -10
6 -1 18 -5 27 -10 14 -7 16 -6 12 5 -3 9 -11 14 -17 13 -7 -1 -12 11 -11 31 1
36 -6 40 -23 13z m14 -16 c0 -8 -4 -12 -9 -9 -5 3 -6 10 -3 15 9 13 12 11 12
-6z"/>
<path d="M1953 4325 c0 -8 4 -15 9 -15 4 0 8 4 8 9 0 6 -4 12 -8 15 -5 3 -9
-1 -9 -9z"/>
<path d="M1990 4719 c0 -5 5 -7 10 -4 6 3 10 8 10 11 0 2 -4 4 -10 4 -5 0 -10
-5 -10 -11z"/>
<path d="M2040 4726 c0 -2 8 -10 18 -17 15 -13 16 -12 3 4 -13 16 -21 21 -21
13z"/>
<path d="M2070 4661 c0 -6 -1 -14 -2 -18 -2 -3 4 -7 13 -9 11 -1 16 4 15 14
-3 18 -26 30 -26 13z"/>
<path d="M2036 4647 c3 -10 9 -15 12 -12 3 3 0 11 -7 18 -10 9 -11 8 -5 -6z"/>
<path d="M2061 4477 c-6 -8 -8 -17 -5 -20 10 -9 45 13 39 24 -9 13 -21 11 -34
-4z m29 -1 c0 -2 -7 -7 -16 -10 -8 -3 -12 -2 -9 4 6 10 25 14 25 6z"/>
<path d="M2016 4338 c-12 -16 -13 -24 -4 -29 18 -12 30 0 22 23 -4 15 -3 18 6
13 9 -5 11 -4 6 3 -10 16 -13 15 -30 -10z"/>
<path d="M1885 4270 c-3 -6 -3 -10 1 -10 4 0 -1 -7 -12 -16 -18 -15 -18 -15 2
-5 15 7 25 7 34 -2 9 -8 11 -9 6 0 -3 6 -2 13 4 15 6 2 1 9 -9 15 -13 8 -22 9
-26 3z"/>
<path d="M1976 4214 c-6 -15 -4 -15 11 -3 10 7 20 15 22 16 2 2 -3 3 -11 3 -9
0 -19 -7 -22 -16z"/>
<path d="M1663 4165 c0 -8 4 -12 9 -9 5 3 6 10 3 15 -9 13 -12 11 -12 -6z"/>
<path d="M1750 4118 c0 -4 4 -8 9 -8 6 0 12 4 15 8 3 5 -1 9 -9 9 -8 0 -15 -4
-15 -9z"/>
<path d="M5375 6519 c-11 -4 -85 -34 -165 -65 -80 -31 -165 -65 -190 -77 -101
-45 -410 -199 -475 -236 -38 -22 -81 -46 -95 -53 -14 -7 -29 -16 -35 -20 -5
-5 -59 -40 -120 -79 -199 -130 -340 -243 -491 -393 -88 -89 -181 -196 -170
-196 3 0 66 43 140 95 294 207 569 374 811 494 148 73 317 143 376 155 13 3
35 8 49 11 14 3 35 7 48 9 l22 3 -1 -344 c0 -261 -3 -342 -12 -336 -8 5 -8 2
1 -9 14 -18 12 -129 -3 -140 -6 -5 -6 -8 2 -8 15 0 15 -70 0 -70 -8 0 -9 -3
-1 -8 5 -4 10 -28 10 -54 0 -39 -4 -49 -23 -59 -13 -7 -23 -16 -23 -21 0 -5
11 -1 24 7 l23 16 -1 -90 c0 -49 -4 -87 -8 -84 -5 2 -8 0 -8 -6 0 -5 6 -12 13
-14 9 -4 9 -6 -1 -6 -7 -1 -10 -6 -6 -12 4 -6 8 -24 9 -39 2 -23 -1 -27 -14
-22 -14 5 -14 4 -2 -11 12 -15 11 -20 -5 -39 -19 -21 -19 -21 1 -10 17 9 21 7
21 -8 0 -14 -3 -16 -13 -8 -9 7 -13 7 -13 0 0 -6 5 -14 10 -17 6 -4 8 -16 4
-27 -5 -15 -3 -19 7 -13 11 6 12 5 2 -5 -9 -10 -10 -17 -2 -27 8 -9 8 -13 1
-13 -6 0 -12 5 -14 12 -3 8 -7 8 -11 2 -3 -6 1 -22 11 -35 18 -26 25 -52 12
-44 -5 3 -11 1 -15 -5 -3 -5 -2 -10 3 -10 6 0 13 -7 16 -16 3 -8 2 -13 -3 -9
-15 9 -40 -6 -34 -21 3 -8 0 -15 -6 -15 -26 -3 -30 -4 -37 -11 -4 -5 -3 -8 3
-8 15 0 23 -39 11 -47 -7 -3 -8 -1 -4 5 4 7 2 12 -4 12 -6 0 -9 4 -5 9 3 5 0
13 -6 17 -7 4 -9 3 -5 -4 3 -5 2 -12 -3 -14 -5 -1 -3 -12 5 -23 11 -15 18 -17
32 -9 23 14 55 12 58 -4 1 -7 0 -8 -3 -2 -2 5 -9 10 -14 10 -6 0 -6 -8 1 -19
5 -11 7 -27 3 -37 -4 -10 -2 -15 3 -11 5 3 10 -3 10 -14 0 -19 -1 -19 -13 -3
-10 14 -13 15 -13 3 0 -8 5 -20 11 -26 12 -12 3 -37 -11 -28 -5 3 -12 0 -16
-6 -4 -7 -3 -9 3 -6 6 4 9 -4 7 -18 -1 -14 2 -23 6 -20 12 7 24 -15 25 -46 1
-18 -4 -25 -12 -22 -15 6 -18 23 -4 23 5 0 8 7 7 15 -2 17 -16 32 -17 19 0 -5
-2 -18 -4 -29 -2 -11 4 -28 13 -38 13 -14 16 -41 17 -127 1 -60 -2 -107 -6
-104 -4 2 -9 -3 -12 -11 -4 -8 -1 -12 7 -9 14 5 16 -62 1 -85 -5 -9 -4 -12 1
-8 6 3 11 -225 12 -611 l3 -617 -53 -25 c-213 -98 -655 -405 -853 -591 -161
-152 -356 -355 -417 -436 -12 -15 -25 -30 -28 -33 -3 -3 -26 -32 -51 -65 -56
-73 -75 -120 -70 -172 1 -14 27 -18 33 -5 4 9 151 132 233 194 66 50 331 228
339 228 3 0 24 13 48 29 168 112 781 423 1068 542 30 12 59 25 63 29 8 7 13
4178 5 4185 -2 1 -12 -1 -23 -6z m-305 -1959 c0 -5 -4 -10 -10 -10 -5 0 -10 5
-10 10 0 6 5 10 10 10 6 0 10 -4 10 -10z m6 -40 c0 -10 -9 -16 -22 -15 -26 0
-38 10 -30 23 10 16 52 9 52 -8z m0 -199 c0 -11 -5 -17 -13 -14 -17 6 -17 20
0 26 6 3 12 6 12 6 1 1 1 -7 1 -18z"/>
<path d="M5030 4520 c0 -5 5 -10 10 -10 6 0 10 5 10 10 0 6 -4 10 -10 10 -5 0
-10 -4 -10 -10z"/>
<path d="M650 5786 c-4 -557 -1 -4159 3 -4163 3 -3 48 -7 99 -9 51 -2 127 -6
168 -9 41 -3 101 -8 133 -10 62 -4 142 -13 192 -21 17 -3 48 -7 70 -9 50 -4
107 -12 215 -30 47 -8 103 -17 125 -20 22 -4 48 -8 57 -11 10 -3 30 -7 45 -10
45 -7 216 -45 248 -54 17 -5 41 -12 55 -14 58 -12 224 -61 360 -106 188 -62
320 -115 489 -196 114 -54 140 -63 158 -55 33 15 30 55 -4 79 -121 84 -649
344 -993 489 -19 8 -52 23 -73 34 -22 10 -43 19 -48 19 -6 0 -29 9 -51 20 -23
11 -48 20 -55 20 -7 0 -28 9 -48 20 -20 11 -42 20 -49 20 -8 0 -36 9 -62 20
-26 11 -54 22 -63 24 -9 2 -27 8 -41 13 -27 11 -351 115 -492 158 l-88 26 0
1912 0 1912 -175 1 -175 2 0 -52z"/>
<path d="M5707 5800 c-9 -4 -12 -427 -12 -1913 l0 -1909 -175 -53 c-96 -29
-211 -65 -255 -80 -44 -15 -84 -28 -90 -29 -10 -3 -22 -7 -80 -29 -32 -12 -52
-17 -72 -19 -7 -1 -13 -4 -13 -8 0 -4 -21 -14 -47 -22 -108 -35 -483 -193
-678 -286 -314 -149 -664 -337 -666 -359 -1 -7 -2 -19 -3 -25 -3 -18 14 -38
32 -38 8 0 61 22 118 49 88 43 143 67 309 136 33 14 174 66 190 69 6 2 17 6
25 9 99 39 555 155 720 182 19 3 53 10 75 15 22 5 65 12 95 15 30 4 57 8 60
10 3 2 32 6 65 10 33 3 89 10 125 15 36 5 94 12 130 15 36 3 79 8 95 10 27 3
207 14 330 20 28 2 55 3 60 4 7 1 10 664 9 2099 0 1153 -2 2102 -3 2108 -1 11
-318 15 -344 4z"/>
<path d="M4830 5561 c0 -6 4 -13 10 -16 6 -3 7 1 4 9 -7 18 -14 21 -14 7z"/>
<path d="M4919 5488 c-5 -18 -6 -38 -1 -34 7 8 12 36 6 36 -2 0 -4 -1 -5 -2z"/>
<path d="M5015 5471 c-3 -5 -2 -12 3 -15 5 -3 9 1 9 9 0 17 -3 19 -12 6z"/>
<path d="M4960 5440 c-9 -6 -10 -10 -3 -10 6 0 15 5 18 10 8 12 4 12 -15 0z"/>
<path d="M2070 5436 c0 -2 8 -10 18 -17 15 -13 16 -12 3 4 -13 16 -21 21 -21
13z"/>
<path d="M1680 5420 c-12 -7 -10 -9 7 -7 12 0 19 5 17 9 -6 10 -6 10 -24 -2z"/>
<path d="M4916 5398 c3 -5 10 -6 15 -3 13 9 11 12 -6 12 -8 0 -12 -4 -9 -9z"/>
<path d="M1853 5383 c4 -3 1 -13 -6 -22 -11 -14 -10 -14 5 -2 16 12 16 31 1
31 -4 0 -3 -3 0 -7z"/>
<path d="M5040 5380 c-9 -6 -10 -10 -3 -10 6 0 15 5 18 10 8 12 4 12 -15 0z"/>
<path d="M4955 5369 c-4 -6 -5 -12 -2 -15 2 -3 7 2 10 11 7 17 1 20 -8 4z"/>
<path d="M4910 5366 c0 -2 7 -7 16 -10 8 -3 12 -2 9 4 -6 10 -25 14 -25 6z"/>
<path d="M1795 5331 c-3 -5 -2 -12 3 -15 5 -3 9 1 9 9 0 17 -3 19 -12 6z"/>
<path d="M1830 5336 c0 -2 8 -10 18 -17 15 -13 16 -12 3 4 -13 16 -21 21 -21
13z"/>
<path d="M5016 5327 c3 -10 9 -15 12 -12 3 3 0 11 -7 18 -10 9 -11 8 -5 -6z"/>
<path d="M1736 5318 c3 -4 11 -5 19 -1 21 7 19 12 -4 10 -11 0 -18 -5 -15 -9z"/>
<path d="M2019 5328 c-5 -18 -6 -38 -1 -34 7 8 12 36 6 36 -2 0 -4 -1 -5 -2z"/>
<path d="M2187 5319 c7 -7 15 -10 18 -7 3 3 -2 9 -12 12 -14 6 -15 5 -6 -5z"/>
<path d="M4933 5313 c0 -10 4 -10 16 -1 9 7 18 13 20 15 2 1 -5 1 -16 0 -11 0
-20 -7 -20 -14z"/>
<path d="M4989 5317 c6 -8 9 -16 6 -19 -3 -2 2 -5 10 -5 13 0 13 3 -2 19 -19
21 -31 25 -14 5z"/>
<path d="M4870 5316 c0 -2 8 -10 18 -17 15 -13 16 -12 3 4 -13 16 -21 21 -21
13z"/>
<path d="M1970 5300 c0 -5 5 -10 11 -10 5 0 7 5 4 10 -3 6 -8 10 -11 10 -2 0
-4 -4 -4 -10z"/>
<path d="M1731 5284 c0 -11 3 -14 6 -6 3 7 2 16 -1 19 -3 4 -6 -2 -5 -13z"/>
<path d="M1673 5273 c6 -38 30 -62 52 -52 19 9 19 9 -2 5 -21 -4 -32 8 -39 42
-4 23 -15 27 -11 5z"/>
<path d="M2066 5282 c-3 -5 1 -9 9 -9 8 0 12 4 9 9 -3 4 -7 8 -9 8 -2 0 -6 -4
-9 -8z"/>
<path d="M5050 5280 c0 -5 5 -10 11 -10 5 0 7 5 4 10 -3 6 -8 10 -11 10 -2 0
-4 -4 -4 -10z"/>
<path d="M1745 5259 c-3 -4 2 -6 10 -5 21 3 28 13 10 13 -9 0 -18 -4 -20 -8z"/>
<path d="M2010 5260 c0 -5 5 -10 11 -10 5 0 7 5 4 10 -3 6 -8 10 -11 10 -2 0
-4 -4 -4 -10z"/>
<path d="M4900 5266 c0 -2 8 -10 18 -17 15 -13 16 -12 3 4 -13 16 -21 21 -21
13z"/>
<path d="M4943 5256 c-3 -6 -3 -8 2 -4 4 4 13 1 19 -8 10 -13 12 -13 12 4 0
20 -23 26 -33 8z"/>
<path d="M1645 5240 c-3 -5 -1 -10 4 -10 6 0 11 5 11 10 0 6 -2 10 -4 10 -3 0
-8 -4 -11 -10z"/>
<path d="M1765 5237 c-14 -11 -15 -16 -5 -22 9 -6 11 -4 5 5 -6 9 -4 12 7 8 9
-4 15 0 15 8 0 17 1 17 -22 1z"/>
<path d="M1947 5239 c7 -7 15 -10 18 -7 3 3 -2 9 -12 12 -14 6 -15 5 -6 -5z"/>
<path d="M4804 5239 c-2 -5 5 -6 17 -4 13 3 28 0 34 -5 8 -7 12 -5 12 3 0 14
-55 19 -63 6z"/>
<path d="M5039 5248 c-8 -26 -5 -36 9 -31 11 5 13 3 7 -7 -6 -9 -4 -11 5 -5
10 6 10 11 -3 20 -9 7 -14 15 -10 18 3 4 3 7 0 7 -4 0 -7 -1 -8 -2z"/>
<path d="M1673 5200 c0 -23 3 -28 9 -16 5 9 5 23 0 32 -6 12 -9 7 -9 -16z"/>
<path d="M1799 5218 c-5 -19 -8 -50 -4 -46 7 7 15 48 9 48 -2 0 -4 -1 -5 -2z"/>
<path d="M4819 5218 c-5 -18 -6 -38 -1 -34 7 8 12 36 6 36 -2 0 -4 -1 -5 -2z"/>
<path d="M4876 5212 c-5 -9 -2 -39 5 -46 3 -3 5 8 4 24 0 32 -1 35 -9 22z"/>
<path d="M1640 5200 c0 -5 5 -10 10 -10 6 0 10 5 10 10 0 6 -4 10 -10 10 -5 0
-10 -4 -10 -10z"/>
<path d="M1724 5195 c-4 -8 -10 -12 -15 -10 -5 3 -15 -10 -23 -29 -11 -26 -19
-34 -30 -30 -9 3 -16 2 -16 -3 0 -5 9 -9 20 -10 13 -1 23 8 31 32 7 19 16 32
19 30 4 -2 14 5 23 16 9 10 12 19 7 19 -6 0 -13 -7 -16 -15z"/>
<path d="M1850 5196 c7 -7 13 -7 20 0 6 6 3 10 -10 10 -13 0 -16 -4 -10 -10z"/>
<path d="M1995 5202 c3 -3 0 -10 -5 -17 -7 -8 -5 -12 5 -12 8 0 13 3 10 5 -3
3 0 10 5 17 7 8 5 12 -5 12 -8 0 -13 -3 -10 -5z"/>
<path d="M4921 5194 c0 -11 3 -14 6 -6 3 7 2 16 -1 19 -3 4 -6 -2 -5 -13z"/>
<path d="M4980 5190 c-6 -11 -9 -20 -8 -20 2 0 11 9 21 20 9 11 13 20 7 20 -5
0 -14 -9 -20 -20z"/>
<path d="M205 5174 c-55 -12 -118 -28 -140 -35 -36 -13 -40 -18 -42 -49 -2
-50 -13 -1922 -18 -3055 -4 -954 -4 -960 17 -1003 11 -23 34 -52 52 -65 l31
-22 1313 -1 c721 -1 1312 2 1312 6 0 15 -124 87 -250 144 -36 16 -269 95 -298
101 -9 2 -44 10 -77 18 -56 15 -164 38 -245 52 -19 4 -46 9 -60 12 -14 2 -339
5 -722 7 -383 1 -700 4 -703 8 -3 3 -7 882 -8 1954 l-2 1949 -30 0 c-16 0 -75
-9 -130 -21z"/>
<path d="M1755 5190 c-3 -6 1 -7 9 -4 18 7 21 14 7 14 -6 0 -13 -4 -16 -10z"/>
<path d="M5015 5191 c-3 -5 0 -13 6 -17 7 -4 9 -3 5 4 -3 5 0 13 6 15 9 4 10
6 1 6 -6 1 -14 -3 -18 -8z"/>
<path d="M6359 5182 c0 -10 -1 -889 -1 -1954 -1 -1411 -4 -1938 -12 -1939 -6
-1 -321 -2 -701 -4 -379 -1 -703 -5 -720 -9 -16 -4 -68 -13 -115 -22 -191 -34
-465 -115 -598 -176 -79 -36 -222 -119 -222 -129 0 -3 593 -6 1318 -5 1300 1
1317 1 1344 21 15 11 38 40 50 65 l23 45 -2 555 c-1 469 -9 1957 -16 3174 l-2
318 -35 13 c-89 31 -186 53 -272 60 -30 2 -38 -1 -39 -13z"/>
<path d="M1817 5183 c-2 -5 -3 -16 -2 -25 2 -12 -3 -18 -16 -18 -10 0 -18 5
-16 11 1 6 -11 13 -27 15 l-30 3 33 -20 c31 -19 70 -23 60 -7 -2 4 5 14 16 23
19 14 19 15 1 8 -13 -4 -17 -3 -12 5 4 7 5 12 2 12 -3 0 -7 -3 -9 -7z"/>
<path d="M4753 5169 c-2 -23 3 -25 10 -4 4 8 3 16 -1 19 -4 3 -9 -4 -9 -15z"/>
<path d="M2053 5165 c0 -8 4 -15 9 -15 4 0 8 4 8 9 0 6 -4 12 -8 15 -5 3 -9
-1 -9 -9z"/>
<path d="M1650 5163 c5 -2 8 -9 4 -14 -3 -5 0 -9 6 -9 15 0 7 23 -8 26 -7 1
-8 0 -2 -3z"/>
<path d="M4650 5161 c0 -6 4 -13 10 -16 6 -3 7 1 4 9 -7 18 -14 21 -14 7z"/>
<path d="M4793 5160 c-13 -5 -23 -11 -23 -14 0 -7 40 6 46 15 6 10 6 10 -23
-1z"/>
<path d="M4836 5158 c3 -4 9 -8 15 -8 5 0 9 4 9 8 0 5 -7 9 -15 9 -8 0 -12 -4
-9 -9z"/>
<path d="M4930 5158 c0 -6 7 -7 16 -4 11 4 14 1 10 -12 -4 -10 4 -29 19 -46
26 -30 34 -52 14 -41 -6 4 -24 25 -40 47 -16 23 -29 36 -29 30 0 -6 12 -25 26
-42 15 -17 24 -34 20 -37 -3 -3 -14 4 -25 15 -10 12 -22 22 -26 22 -5 0 2 -11
15 -25 21 -23 22 -26 8 -42 -8 -10 -13 -24 -11 -30 3 -7 0 -13 -6 -13 -6 0
-11 5 -11 11 0 8 -4 9 -13 0 -8 -6 -16 -9 -18 -8 -2 2 -12 -4 -21 -14 -17 -18
-16 -18 12 -15 17 2 33 0 36 -5 6 -10 3 -11 -46 -13 -19 -1 -41 -5 -48 -9 -7
-5 -12 -3 -12 3 0 6 7 13 15 16 8 4 15 13 15 21 0 11 -7 7 -21 -11 -16 -21
-18 -30 -9 -41 8 -10 9 -19 0 -34 -7 -14 -7 -21 0 -21 9 0 14 17 13 48 -1 7 5
11 13 8 7 -3 16 -1 19 4 4 6 12 10 18 10 7 -1 1 -9 -12 -20 -13 -11 -24 -31
-25 -45 -1 -20 -5 -23 -26 -19 -20 3 -21 3 -6 -4 14 -6 16 -11 8 -16 -7 -4
-12 -4 -12 1 0 4 -9 -7 -20 -25 -20 -32 -40 -38 -48 -14 -2 8 3 10 15 6 15 -5
15 -4 3 5 -27 18 -36 -7 -12 -32 14 -15 20 -30 16 -40 -4 -11 -1 -17 7 -17 7
0 9 3 6 6 -3 4 -2 15 4 25 8 15 14 17 29 9 15 -8 21 -6 29 7 6 11 11 13 11 5
0 -19 -31 -63 -41 -56 -5 3 -9 10 -9 15 0 6 5 7 12 3 7 -4 8 -3 4 4 -14 22
-28 13 -22 -14 5 -19 4 -24 -6 -18 -8 5 -8 1 2 -11 13 -17 13 -18 -1 -13 -16
6 -79 -44 -79 -62 0 -5 -7 -16 -16 -24 -8 -9 -10 -16 -4 -16 6 0 13 7 17 16 5
13 9 12 28 -6 13 -12 31 -23 41 -24 10 -2 20 -8 21 -13 6 -17 -30 -10 -51 10
-11 9 -25 17 -30 17 -6 0 -3 -5 7 -11 9 -6 15 -15 11 -20 -8 -14 17 -41 33
-35 10 4 12 -1 9 -19 -3 -14 -8 -29 -11 -35 -4 -6 1 -22 10 -36 9 -14 14 -29
10 -32 -4 -4 -11 1 -16 10 -5 9 -15 23 -22 30 -7 7 -16 21 -20 31 -4 10 -11
16 -16 13 -5 -3 -8 6 -8 19 0 20 2 23 13 14 10 -8 14 -8 14 0 0 6 -5 11 -11
11 -5 0 -7 6 -3 13 6 9 4 9 -8 -1 -13 -10 -17 -10 -22 3 -4 10 1 15 17 16 12
0 16 3 9 6 -7 3 -19 2 -28 -1 -12 -5 -13 -10 -3 -28 7 -12 13 -31 13 -43 1
-11 7 -19 14 -17 7 1 12 -5 12 -13 0 -8 10 -23 22 -35 12 -11 18 -20 12 -20
-5 0 -2 -5 6 -10 8 -5 23 -7 33 -4 17 5 17 3 7 -16 -10 -18 -14 -20 -21 -9 -6
10 -8 6 -6 -11 1 -23 27 -63 27 -43 0 5 -5 14 -12 21 -9 9 -9 12 -1 12 7 0 15
-5 18 -10 4 -6 10 -8 15 -5 4 3 14 -3 21 -12 12 -14 11 -15 -9 -9 -14 5 -22 3
-22 -4 0 -6 4 -9 9 -6 5 3 12 -1 15 -10 9 -24 7 -28 -7 -16 -10 8 -16 6 -26
-10 -13 -21 -14 -21 -29 -2 -12 16 -14 16 -9 2 4 -10 2 -18 -3 -18 -6 0 -10
-5 -10 -11 0 -8 5 -7 16 2 13 11 15 9 9 -17 l-6 -29 15 31 c7 18 19 35 26 39
17 11 27 -5 10 -16 -12 -9 -12 -10 3 -5 12 4 17 2 14 -6 -2 -7 -11 -12 -19
-10 -18 3 -32 -24 -17 -34 6 -3 13 -3 16 0 4 3 1 6 -6 6 -7 0 -9 5 -5 12 5 7
11 5 21 -8 14 -19 14 -19 11 1 -2 12 3 21 15 23 9 2 17 -2 17 -8 0 -6 -4 -9
-8 -6 -4 2 -9 -5 -9 -17 -2 -19 20 -43 40 -45 4 -1 15 -8 24 -17 8 -9 22 -14
30 -11 10 4 13 1 8 -13 -6 -21 14 -34 36 -21 14 9 39 -5 39 -22 0 -6 -7 -5
-15 2 -30 25 -19 4 18 -33 38 -39 53 -38 17 1 -19 20 -18 27 3 23 5 -1 6 3 3
8 -3 5 1 12 10 15 8 3 12 10 9 16 -3 5 -2 10 3 10 5 0 9 7 9 15 0 8 -4 12 -9
9 -4 -3 -8 -1 -8 5 0 5 4 12 9 15 10 7 9 25 -2 44 -5 7 -3 12 4 12 7 0 4 9 -8
23 -15 15 -20 33 -19 59 1 21 -1 43 -5 50 -4 6 -3 21 3 31 8 16 12 17 20 6 8
-12 9 -11 5 1 -2 8 -10 14 -17 12 -8 -2 -10 3 -5 15 3 10 7 23 8 28 1 6 6 13
11 16 4 4 3 17 -4 30 -12 21 -14 21 -25 5 -12 -16 -15 -15 -45 14 -17 17 -36
28 -42 24 -7 -4 -6 -9 3 -15 7 -4 17 -5 21 -3 4 3 8 0 8 -6 0 -7 -7 -10 -14
-7 -10 4 -13 1 -9 -9 6 -16 23 -19 23 -3 0 5 5 7 11 3 6 -3 7 -9 3 -13 -18
-12 -15 -39 3 -36 10 2 20 4 23 4 3 1 -1 5 -9 10 -9 6 -10 11 -2 15 6 4 11 2
11 -3 0 -6 5 -11 11 -11 5 0 8 4 5 8 -3 5 1 9 9 9 10 0 12 -4 5 -12 -5 -7 -7
-15 -3 -19 4 -4 -1 -4 -12 0 -18 7 -18 6 -7 -9 12 -14 11 -16 -8 -12 -14 3
-20 0 -17 -8 2 -7 9 -12 15 -12 5 0 14 -4 19 -9 4 -5 3 -7 -3 -3 -7 4 -10 -11
-9 -47 1 -36 -3 -53 -11 -53 -7 0 -10 7 -7 16 3 10 1 12 -4 6 -10 -13 -43 -18
-43 -7 0 4 6 14 13 22 9 11 8 11 -8 0 -19 -14 -19 -14 -5 4 13 18 13 19 0 12
-8 -4 -6 0 5 10 17 14 18 16 2 10 -13 -4 -16 -2 -11 7 4 6 -3 3 -16 -8 -14
-12 -20 -14 -14 -5 4 8 9 22 9 30 0 10 8 14 23 13 23 -3 30 11 10 23 -7 5 -8
3 -3 -6 5 -9 4 -11 -4 -6 -6 4 -19 2 -28 -6 -9 -7 -14 -8 -10 -2 4 7 0 11 -10
10 -9 0 -17 5 -19 12 -1 7 0 8 3 2 2 -5 9 -10 15 -10 6 0 4 7 -3 17 -12 14
-12 16 0 8 10 -6 12 -4 6 4 -6 10 -3 11 13 2 14 -7 23 -8 27 -1 5 9 -7 14 -27
12 -3 -1 -9 5 -12 14 -4 12 -2 12 14 4 24 -13 40 -13 18 1 -10 5 -23 19 -29
31 -7 13 -7 18 -1 14 6 -3 14 -1 18 5 5 8 3 9 -7 4 -8 -5 -11 -5 -7 0 4 4 3
14 -3 22 -16 18 -4 16 15 -3 9 -8 16 -12 16 -7 0 13 -16 35 -26 35 -12 0 -51
28 -40 28 5 0 17 -7 27 -15 15 -15 16 -14 14 15 -1 16 2 30 7 30 6 0 7 -8 3
-17 -5 -15 -4 -16 7 -5 11 11 9 16 -12 32 -14 10 -21 22 -17 26 4 4 1 14 -5
23 -10 13 -10 14 2 4 8 -7 19 -13 24 -13 6 0 0 7 -12 16 -12 8 -20 20 -16 25
3 6 12 5 22 -3 12 -11 12 -7 -2 17 l-18 30 20 -25 c11 -14 24 -21 28 -17 4 4
2 7 -5 7 -7 0 -9 5 -6 10 3 6 2 10 -3 10 -5 0 -8 10 -8 23 1 12 -5 31 -13 42
-16 19 -15 20 5 2 11 -9 24 -15 27 -12 4 3 3 -1 -3 -7 -15 -18 -12 -27 10 -25
11 1 20 5 20 10 0 5 -8 6 -17 3 -11 -4 -8 1 7 13 23 19 24 20 7 39 -21 23 -22
36 -1 28 10 -4 13 -2 8 6 -4 7 -3 8 5 4 7 -5 10 -2 9 6 -2 7 3 12 10 11 6 -2
12 2 12 8 0 6 -7 8 -17 4 -14 -5 -15 -3 -6 6 14 14 36 2 29 -18 -3 -8 -2 -12
2 -9 4 2 9 -5 9 -17 2 -17 0 -19 -8 -7 -7 11 -8 8 -5 -12 3 -15 8 -33 11 -40
4 -7 -1 -4 -9 6 -9 11 -19 17 -22 13 -4 -4 -2 -13 4 -20 7 -8 9 -16 7 -19 -3
-3 6 -4 20 -3 31 4 33 -10 3 -18 -18 -5 -19 -8 -8 -21 7 -9 10 -17 6 -17 -3
-1 -9 -2 -13 -3 -5 -1 -16 -6 -27 -12 -16 -10 -17 -12 -2 -17 10 -4 15 -3 11
3 -3 6 -2 10 3 10 16 0 21 -39 7 -53 -11 -11 -9 -16 7 -26 15 -9 19 -9 17 1
-3 25 1 38 12 38 8 0 8 -5 -1 -15 -7 -8 -8 -15 -2 -15 5 0 15 7 22 15 7 8 8
15 3 15 -5 0 -15 12 -22 27 -9 21 -9 28 0 34 18 11 19 51 1 72 -14 15 -13 19
3 37 14 15 16 23 8 31 -13 13 -6 42 8 34 4 -3 6 5 3 17 -3 13 -6 29 -8 36 -1
7 -8 18 -14 24 -9 9 -12 9 -13 -2 -1 -8 -1 -19 0 -23 1 -5 -4 -7 -11 -4 -7 2
-11 11 -9 18 2 8 4 20 4 27 0 15 3 15 27 2 22 -12 36 3 17 19 -8 6 -24 12 -37
14 -13 2 -26 9 -28 15 -3 11 28 9 46 -2 4 -2 14 -1 22 4 11 7 10 13 -5 36 -13
20 -14 26 -3 22 8 -4 14 1 14 12 0 14 -4 15 -18 7 -11 -8 -16 -21 -14 -40 2
-17 -1 -26 -8 -24 -6 2 -10 11 -10 20 1 9 -1 15 -5 13 -3 -2 -14 7 -24 20 -21
28 -12 32 15 7 10 -9 18 -12 18 -7 0 13 -39 36 -50 29 -6 -3 -9 4 -7 16 1 14
-4 23 -15 24 -10 2 -18 -1 -18 -7z m123 -103 c4 -8 3 -16 -1 -19 -4 -3 -9 4
-9 15 -2 23 3 25 10 4z m-80 -27 c-11 -13 -18 -30 -15 -38 4 -13 3 -13 -11 -2
-14 12 -14 16 5 38 12 13 26 24 32 24 5 0 0 -10 -11 -22z m22 -18 c4 -6 12 -7
18 -4 8 4 7 2 -1 -7 -11 -12 -14 -12 -22 1 -6 9 -10 10 -10 3 0 -7 8 -17 18
-22 10 -6 12 -11 4 -11 -7 0 -11 -4 -8 -9 3 -5 -1 -12 -10 -15 -10 -4 -13 -2
-8 6 5 7 3 8 -7 3 -11 -7 -11 -5 1 11 14 18 14 18 -2 5 -10 -7 -18 -10 -18 -6
0 4 -7 2 -15 -5 -11 -10 -19 -10 -27 -2 -6 6 -18 8 -27 5 -9 -4 -12 -2 -8 2 4
5 27 10 50 10 29 1 42 5 43 15 3 27 4 30 13 30 6 0 13 -5 16 -10z m60 -20 c3
-6 -1 -7 -9 -4 -18 7 -21 14 -7 14 6 0 13 -4 16 -10z m-107 -55 c0 -20 -3 -23
-14 -14 -16 13 -37 2 -28 -13 5 -7 1 -9 -9 -5 -18 7 -42 -17 -32 -33 3 -5 4
-10 1 -10 -2 0 -11 -3 -20 -6 -45 -17 5 48 64 83 19 12 36 22 36 22 1 1 2 -10
2 -24z m60 -14 c3 -9 7 -9 19 0 20 17 36 -7 20 -32 -10 -16 -12 -15 -28 4 -14
18 -19 19 -33 8 -8 -7 -14 -17 -13 -21 1 -5 -7 -15 -18 -23 -19 -14 -19 -16
-2 -34 23 -26 22 -34 -5 -29 -13 1 -31 17 -42 36 -15 24 -16 32 -5 28 8 -3 13
-11 12 -17 -2 -6 1 -11 7 -11 5 0 8 10 6 23 -3 12 -5 27 -5 32 -1 6 -6 3 -11
-5 -9 -13 -11 -13 -20 0 -8 11 -9 7 -5 -17 3 -19 1 -33 -5 -33 -5 0 -9 15 -7
32 2 25 7 33 22 33 11 0 19 6 18 13 -3 14 13 16 22 2 3 -5 12 -7 21 -3 11 4
12 9 4 19 -9 10 -6 12 16 10 16 -2 30 -8 32 -15z m27 -99 c-17 -15 -18 -15 -6
0 7 9 9 23 5 30 -6 10 -4 11 7 0 11 -10 10 -15 -6 -30z m-145 3 c9 5 11 4 6
-3 -12 -20 -15 -51 -6 -57 5 -3 7 4 5 16 -4 17 -2 20 7 11 18 -18 18 -51 0
-45 -11 5 -13 1 -8 -15 5 -14 1 -24 -11 -31 -14 -8 -15 -10 -3 -11 12 0 12 -2
2 -9 -11 -7 -10 -9 3 -15 9 -3 13 -10 10 -16 -3 -5 -3 -16 2 -22 4 -7 8 -23 9
-35 1 -18 -2 -20 -12 -12 -7 6 -18 8 -23 5 -13 -8 -3 -36 12 -33 6 1 11 -2 12
-8 0 -5 4 -15 8 -22 4 -6 3 -14 -1 -17 -5 -3 -8 -20 -7 -38 2 -19 -4 -41 -13
-51 -15 -16 -14 -20 12 -43 22 -21 25 -29 15 -40 -15 -19 -4 -30 15 -15 12 10
14 9 11 -6 -4 -26 14 -55 30 -49 8 3 17 1 20 -4 3 -5 14 -7 25 -5 12 2 18 0
14 -6 -3 -6 2 -19 11 -29 9 -10 14 -23 11 -29 -4 -5 -2 -12 3 -15 5 -4 8 -12
7 -20 -3 -22 -27 -46 -38 -39 -6 3 0 12 13 20 13 8 16 12 6 9 -15 -5 -16 -2
-7 14 9 17 7 18 -18 14 l-27 -4 28 15 c15 9 27 18 27 20 0 8 -24 1 -31 -9 -4
-4 -10 -3 -13 3 -4 6 -2 11 4 11 6 0 8 5 4 11 -4 8 -9 7 -16 -2 -6 -10 -8 -6
-4 11 3 14 3 19 0 12 -4 -8 -10 -10 -17 -3 -17 14 -29 14 -37 1 -5 -8 -9 -7
-13 5 -4 9 -3 14 1 11 5 -3 9 3 9 12 0 19 -27 43 -40 35 -4 -2 -6 -1 -5 4 1 4
-3 18 -10 29 -6 12 -8 24 -5 28 3 3 2 6 -3 6 -6 0 -10 11 -10 24 0 14 2 23 6
21 3 -1 11 3 18 11 10 10 10 14 1 14 -7 0 -9 3 -6 7 4 3 1 13 -5 21 -10 11 -8
17 7 28 11 8 14 14 6 14 -8 0 -11 6 -7 16 4 10 2 13 -6 8 -7 -4 -8 -3 -4 4 4
7 -1 10 -14 7 -17 -3 -19 -1 -10 15 15 28 13 32 -12 25 -20 -5 -21 -4 -5 5 9
6 21 9 26 5 5 -3 12 -1 16 5 4 6 10 8 15 5 5 -3 12 0 16 7 4 7 4 10 -1 6 -4
-4 -14 -3 -21 3 -8 7 -14 7 -19 -1 -3 -5 -11 -10 -18 -10 -6 0 -2 6 9 14 10 8
16 18 11 22 -4 4 -7 2 -7 -6 0 -10 -3 -10 -15 0 -8 7 -15 18 -15 24 0 6 4 4
10 -4 5 -8 12 -11 17 -7 4 5 3 11 -2 15 -12 9 -18 32 -7 33 46 5 63 16 42 29
-8 6 -11 10 -6 10 5 0 4 6 -1 13 -5 6 -8 23 -7 37 3 35 -6 44 -21 24 -12 -17
-6 -43 15 -64 3 -3 7 -14 8 -24 3 -17 2 -18 -12 -7 -9 8 -19 11 -23 7 -3 -3 0
-6 8 -6 8 -1 3 -7 -11 -15 -14 -8 -19 -14 -12 -15 7 0 11 -4 8 -9 -4 -5 -14
-8 -24 -6 -9 2 -19 4 -22 4 -3 1 7 9 23 19 15 10 24 21 21 25 -4 4 0 9 9 13
13 5 14 10 7 25 -6 10 -17 16 -25 13 -8 -4 -12 -11 -8 -18 4 -6 -1 -5 -10 3
-14 11 -20 11 -32 1 -8 -7 -15 -8 -15 -2 0 14 27 35 38 29 10 -7 22 2 42 28
12 17 10 16 -11 -3 -14 -12 -29 -19 -33 -15 -4 4 10 17 30 29 34 21 39 21 49
7 7 -10 17 -13 25 -8z m-33 -30 c0 -8 -4 -12 -9 -9 -5 3 -6 10 -3 15 9 13 12
11 12 -6z m177 -121 c3 -8 2 -12 -4 -9 -6 3 -10 10 -10 16 0 14 7 11 14 -7z
m-249 -42 c-2 -3 -10 0 -17 6 -20 16 -60 -19 -42 -36 19 -17 29 -15 14 3 -8
10 -9 15 -2 15 17 0 36 -40 24 -52 -6 -6 -20 0 -38 16 l-29 25 30 29 c27 27
32 28 48 14 9 -8 15 -17 12 -20z m31 18 c6 -8 11 -23 11 -32 0 -14 -3 -15 -14
-6 -10 8 -17 8 -26 -1 -9 -10 -8 -16 8 -27 11 -8 25 -12 32 -10 7 3 10 -1 6
-10 -6 -17 -15 -18 -32 -1 -11 10 -12 9 -6 -2 5 -9 3 -12 -6 -9 -8 3 -13 11
-11 18 1 7 -4 23 -13 36 -19 30 -19 40 0 24 11 -9 18 -10 28 -1 8 6 17 9 20 6
4 -3 4 -2 1 3 -3 4 -11 7 -16 7 -6 0 -13 6 -16 13 -5 17 20 11 34 -8z m-6 -50
c0 -5 -4 -10 -10 -10 -5 0 -10 5 -10 10 0 6 5 10 10 10 6 0 10 -4 10 -10z m29
-66 c15 10 33 -28 19 -42 -6 -6 -7 -16 -2 -24 15 -24 12 -36 -11 -46 -20 -9
-23 -8 -21 13 0 13 5 21 10 17 5 -3 6 0 2 7 -4 6 -2 18 4 26 10 12 10 15 -1
15 -11 0 -11 3 1 11 13 9 12 10 -2 5 -10 -3 -18 0 -18 6 0 7 -6 4 -13 -7 -10
-13 -16 -15 -21 -6 -12 18 14 44 30 30 7 -6 18 -8 23 -5z m-85 -7 c3 4 14 -3
22 -16 12 -17 19 -19 29 -11 18 15 31 -6 16 -24 -6 -7 -9 -20 -6 -28 3 -8 -1
-21 -10 -28 -10 -8 -15 -9 -15 -1 0 6 5 11 11 11 8 0 7 5 -1 15 -11 13 -10 18
6 31 18 14 18 14 -4 4 -18 -9 -21 -16 -16 -33 6 -20 5 -21 -12 -7 -14 12 -13
8 5 -17 12 -18 25 -33 27 -33 3 0 3 4 0 9 -3 5 6 9 21 9 20 0 22 -3 10 -9 -9
-6 -13 -17 -10 -30 4 -16 8 -17 14 -7 7 10 9 9 9 -3 0 -9 7 -22 15 -29 8 -6
13 -15 12 -18 -1 -4 3 -9 8 -10 19 -7 35 -24 29 -33 -8 -14 -24 -11 -20 4 1 6
1 9 -1 5 -8 -15 -21 -8 -28 15 -4 14 -8 17 -12 9 -4 -10 -8 -10 -19 -1 -8 6
-14 16 -14 21 0 6 6 6 14 -1 11 -9 16 -9 22 0 5 8 3 9 -6 4 -8 -5 -11 -4 -6 3
6 10 -3 10 -43 0 -7 -1 -15 2 -17 7 -5 15 14 41 23 32 4 -5 1 -12 -7 -17 -9
-6 -10 -10 -3 -10 27 0 22 22 -12 55 -36 37 -42 50 -26 60 6 3 9 18 8 33 -2
19 -8 27 -21 27 -11 0 -22 7 -24 15 -4 12 -3 13 10 3 8 -7 18 -10 22 -6z m117
-257 c10 -8 24 -20 32 -27 17 -14 16 -45 -2 -51 -13 -4 -11 19 2 29 4 3 1 12
-8 19 -13 11 -15 10 -9 -4 4 -10 1 -16 -7 -16 -7 0 -9 3 -6 6 3 4 1 16 -4 27
-9 16 -13 17 -20 6 -13 -21 -11 -27 17 -42 l27 -14 -22 -15 c-18 -13 -19 -17
-7 -27 11 -9 16 -9 22 0 4 8 3 9 -4 5 -7 -4 -12 -3 -12 2 0 14 11 21 26 15 10
-4 11 -10 3 -24 -9 -18 -2 -24 24 -20 4 0 7 -6 7 -14 0 -19 -14 -19 -30 0 -7
9 -15 13 -17 11 -3 -3 -14 4 -26 14 -17 17 -18 22 -7 36 12 14 11 18 -10 34
-20 15 -22 20 -11 34 10 12 10 16 2 16 -7 0 -9 4 -6 10 8 12 24 9 46 -10z m-6
-30 c3 -5 1 -10 -4 -10 -6 0 -11 5 -11 10 0 6 2 10 4 10 3 0 8 -4 11 -10z
m120 -57 c-2 -7 0 -15 6 -18 5 -4 7 -12 3 -18 -3 -7 2 -3 12 8 l17 20 -7 -20
c-8 -23 -9 -25 -7 -43 1 -9 8 -11 20 -7 16 5 19 1 18 -14 -2 -27 -26 -35 -46
-17 -11 10 -21 12 -33 5 -9 -5 -19 -6 -21 -1 -3 4 6 12 19 19 13 6 24 7 24 2
0 -5 5 -9 10 -9 6 0 3 11 -6 25 -8 13 -12 30 -8 36 5 8 3 9 -6 4 -9 -6 -11 -4
-5 5 5 9 4 11 -4 6 -8 -5 -10 0 -7 18 3 14 0 26 -5 26 -6 0 -7 5 -3 12 4 6 3
8 -3 5 -6 -4 -9 -20 -7 -37 3 -27 2 -29 -16 -18 -12 8 -15 15 -8 19 6 4 8 11
4 17 -3 6 2 15 11 21 14 8 22 5 35 -12 10 -12 16 -27 13 -34z m-50 -23 c4 -6
10 -8 15 -5 14 9 34 -35 22 -47 -11 -11 -32 -3 -32 12 0 5 8 7 18 4 9 -3 6 1
-8 9 -14 9 -28 13 -32 11 -5 -3 -8 2 -8 10 0 18 16 21 25 6z"/>
<path d="M4971 4909 c-13 -11 -30 -18 -38 -15 -10 4 -11 1 -4 -13 6 -10 8 -21
6 -25 -3 -3 -2 -3 3 0 4 3 7 9 7 13 0 4 14 20 30 34 35 31 31 36 -4 6z"/>
<path d="M5026 4911 c-4 -5 -2 -12 3 -15 5 -4 12 -2 15 3 4 5 2 12 -3 15 -5 4
-12 2 -15 -3z"/>
<path d="M4925 4820 c-3 -5 -5 -10 -3 -11 33 -8 38 -7 27 7 -14 17 -16 17 -24
4z"/>
<path d="M4850 4685 c0 -7 30 -65 33 -65 2 0 3 9 3 19 0 11 -4 17 -8 15 -7 -5
-12 10 -9 29 0 4 -3 7 -9 7 -5 0 -10 -2 -10 -5z"/>
<path d="M4875 4480 c3 -5 8 -10 11 -10 2 0 4 5 4 10 0 6 -5 10 -11 10 -5 0
-7 -4 -4 -10z"/>
<path d="M4874 4366 c3 -22 22 -40 30 -28 3 5 -3 17 -13 27 -17 15 -19 15 -17
1z"/>
<path d="M5000 4243 c0 -6 8 -17 18 -24 16 -13 16 -13 2 6 -8 11 -16 22 -17
24 -2 2 -3 0 -3 -6z"/>
<path d="M4843 4449 c-2 -23 3 -25 10 -4 4 8 3 16 -1 19 -4 3 -9 -4 -9 -15z"/>
<path d="M4992 5153 c2 -9 9 -18 16 -19 7 -1 8 0 2 3 -5 2 -10 9 -10 14 0 6 5
7 12 3 7 -4 8 -3 4 4 -11 18 -28 14 -24 -5z"/>
<path d="M5037 5163 c-4 -3 -7 -11 -7 -17 0 -6 5 -5 12 2 6 6 9 14 7 17 -3 3
-9 2 -12 -2z"/>
<path d="M1888 5153 c6 -2 9 -10 6 -15 -4 -7 -2 -8 5 -4 13 9 5 26 -12 25 -9
0 -8 -2 1 -6z"/>
<path d="M4895 5151 c-3 -5 0 -13 6 -17 7 -4 9 -3 5 4 -3 5 0 13 6 15 9 4 10
6 1 6 -6 1 -14 -3 -18 -8z"/>
<path d="M1919 5143 c0 -5 -3 -19 -5 -32 -2 -14 -2 -22 1 -19 8 8 17 58 10 58
-3 0 -5 -3 -6 -7z"/>
<path d="M1963 5135 c-3 -9 -3 -18 -1 -21 3 -3 8 4 11 16 6 23 -1 27 -10 5z"/>
<path d="M4704 5142 c4 -3 14 -7 22 -8 9 -1 13 0 10 4 -4 3 -14 7 -22 8 -9 1
-13 0 -10 -4z"/>
<path d="M4827 5129 c4 -13 8 -18 11 -10 2 7 -1 18 -6 23 -8 8 -9 4 -5 -13z"/>
<path d="M1835 5130 c-3 -5 -1 -10 4 -10 6 0 11 5 11 10 0 6 -2 10 -4 10 -3 0
-8 -4 -11 -10z"/>
<path d="M1870 5131 c0 -10 19 -25 25 -20 1 2 -3 10 -11 17 -8 7 -14 8 -14 3z"/>
<path d="M2006 5121 c8 -9 44 -11 44 -3 0 4 -11 8 -25 8 -13 0 -22 -2 -19 -5z"/>
<path d="M2193 5111 c0 -11 5 -18 9 -15 4 3 5 11 1 19 -7 21 -12 19 -10 -4z"/>
<path d="M4650 5120 c0 -5 5 -10 11 -10 5 0 7 5 4 10 -3 6 -8 10 -11 10 -2 0
-4 -4 -4 -10z"/>
<path d="M4735 5110 c-4 -6 1 -7 11 -3 13 5 15 3 9 -7 -5 -9 -4 -11 4 -6 6 4
9 12 6 17 -8 12 -22 12 -30 -1z"/>
<path d="M4851 5113 c-1 -18 13 -23 29 -11 12 8 12 9 -2 5 -9 -3 -19 -1 -22 6
-3 9 -5 9 -5 0z"/>
<path d="M1933 5093 c-7 -19 5 -45 17 -38 5 3 10 2 10 -4 0 -5 -5 -12 -10 -14
-6 -3 -5 -4 2 -3 7 2 13 9 13 17 0 8 -6 13 -12 12 -7 -2 -13 6 -13 16 0 14 5
18 19 14 10 -3 21 -1 24 4 3 4 -6 8 -20 8 -14 0 -28 -6 -30 -12z"/>
<path d="M2080 5100 c-9 -6 -10 -10 -3 -10 6 0 15 5 18 10 8 12 4 12 -15 0z"/>
<path d="M2113 5095 c0 -8 4 -12 9 -9 5 3 6 10 3 15 -9 13 -12 11 -12 -6z"/>
<path d="M2275 5100 c-3 -5 -1 -10 4 -10 6 0 11 5 11 10 0 6 -2 10 -4 10 -3 0
-8 -4 -11 -10z"/>
<path d="M4516 5093 c-6 -14 -5 -15 5 -6 7 7 10 15 7 18 -3 3 -9 -2 -12 -12z"/>
<path d="M1987 5086 c-16 -12 -15 -13 10 -13 16 0 22 2 15 4 -6 3 -10 9 -6 14
7 12 2 11 -19 -5z"/>
<path d="M4820 5090 c0 -5 0 -13 1 -16 0 -4 -5 -11 -13 -16 -11 -8 -10 -9 1
-6 13 4 28 48 16 48 -3 0 -5 -4 -5 -10z"/>
<path d="M1830 5080 c-13 -8 -12 -10 3 -10 9 0 17 5 17 10 0 12 -1 12 -20 0z"/>
<path d="M2235 5080 c-3 -5 -1 -10 4 -10 6 0 11 5 11 10 0 6 -2 10 -4 10 -3 0
-8 -4 -11 -10z"/>
<path d="M4615 5082 c3 -3 19 -6 35 -7 16 -1 27 1 24 4 -3 3 -19 6 -35 7 -16
1 -27 -1 -24 -4z"/>
<path d="M4713 5068 c-1 -10 3 -18 9 -18 6 0 8 3 5 7 -4 3 -2 11 3 18 7 8 6
12 -3 12 -7 0 -14 -9 -14 -19z"/>
<path d="M4770 5082 c0 -5 7 -9 15 -9 8 0 12 4 9 9 -3 4 -9 8 -15 8 -5 0 -9
-4 -9 -8z"/>
<path d="M4841 5074 c0 -11 3 -14 6 -6 3 7 2 16 -1 19 -3 4 -6 -2 -5 -13z"/>
<path d="M4875 5079 c-11 -16 -1 -19 13 -3 7 8 8 14 3 14 -5 0 -13 -5 -16 -11z"/>
<path d="M4905 5050 c10 -11 13 -20 7 -20 -7 0 -12 -5 -12 -12 0 -8 6 -6 16 4
15 15 15 18 1 32 -23 23 -33 20 -12 -4z"/>
<path d="M1982 5040 c-6 -10 -8 -21 -4 -24 13 -8 43 0 51 13 5 7 12 12 17 11
5 -1 10 4 12 12 2 9 0 8 -7 -2 -6 -8 -11 -10 -11 -5 0 6 -6 3 -13 -5 -7 -8
-21 -17 -31 -18 -17 -3 -18 -2 -7 12 8 9 12 18 10 21 -3 2 -10 -4 -17 -15z"/>
<path d="M1907 5044 c-3 -3 -3 -13 0 -21 5 -12 7 -12 14 -1 15 23 4 40 -14 22z"/>
<path d="M2076 5038 c3 -4 11 -5 19 -1 21 7 19 12 -4 10 -11 0 -18 -5 -15 -9z"/>
<path d="M2124 5042 c4 -3 14 -7 22 -8 9 -1 13 0 10 4 -4 3 -14 7 -22 8 -9 1
-13 0 -10 -4z"/>
<path d="M2266 5042 c-3 -5 1 -9 9 -9 8 0 12 4 9 9 -3 4 -7 8 -9 8 -2 0 -6 -4
-9 -8z"/>
<path d="M2316 5038 c3 -5 10 -6 15 -3 13 9 11 12 -6 12 -8 0 -12 -4 -9 -9z"/>
<path d="M4496 5038 c3 -5 10 -6 15 -3 13 9 11 12 -6 12 -8 0 -12 -4 -9 -9z"/>
<path d="M4724 5034 c-18 -14 -18 -15 4 -4 12 6 22 13 22 15 0 8 -5 6 -26 -11z"/>
<path d="M4850 5041 c0 -5 -9 -11 -21 -14 -12 -3 -18 -10 -14 -16 3 -6 -1 -11
-9 -11 -19 0 -21 -16 -4 -26 6 -4 8 -3 5 3 -4 6 0 14 8 17 9 3 18 -1 22 -10 5
-13 7 -13 14 -2 5 7 9 18 9 23 0 6 -4 4 -9 -3 -6 -10 -10 -10 -20 1 -9 12 -7
16 14 21 24 6 36 26 15 26 -5 0 -10 -4 -10 -9z"/>
<path d="M4639 5038 c-5 -18 -6 -38 -1 -34 7 8 12 36 6 36 -2 0 -4 -1 -5 -2z"/>
<path d="M4788 5033 c7 -3 16 -2 19 1 4 3 -2 6 -13 5 -11 0 -14 -3 -6 -6z"/>
<path d="M2107 5013 c5 -12 3 -14 -7 -8 -9 5 -11 4 -6 -4 6 -9 11 -9 22 0 17
14 17 16 0 22 -11 4 -13 1 -9 -10z"/>
<path d="M2180 5025 c0 -2 6 -8 13 -14 10 -8 14 -7 14 2 0 8 -6 14 -14 14 -7
0 -13 -1 -13 -2z"/>
<path d="M4535 5020 c3 -5 8 -10 11 -10 2 0 4 5 4 10 0 6 -5 10 -11 10 -5 0
-7 -4 -4 -10z"/>
<path d="M1932 5008 c6 -16 38 -23 38 -9 0 6 -7 7 -17 4 -11 -4 -14 -3 -9 5 4
7 2 12 -4 12 -7 0 -10 -6 -8 -12z"/>
<path d="M2276 5007 c3 -10 9 -15 12 -12 3 3 0 11 -7 18 -10 9 -11 8 -5 -6z"/>
<path d="M4870 5010 c0 -5 5 -10 10 -10 6 0 10 5 10 10 0 6 -4 10 -10 10 -5 0
-10 -4 -10 -10z"/>
<path d="M2320 5000 c-9 -6 -10 -10 -3 -10 6 0 15 5 18 10 8 12 4 12 -15 0z"/>
<path d="M4600 5006 c0 -2 8 -10 18 -17 15 -13 16 -12 3 4 -13 16 -21 21 -21
13z"/>
<path d="M4707 4999 c7 -7 15 -10 18 -7 3 3 -2 9 -12 12 -14 6 -15 5 -6 -5z"/>
<path d="M4756 4995 c4 -8 8 -15 10 -15 2 0 4 7 4 15 0 8 -4 15 -10 15 -5 0
-7 -7 -4 -15z"/>
<path d="M2160 4996 c0 -2 7 -7 16 -10 8 -3 12 -2 9 4 -6 10 -25 14 -25 6z"/>
<path d="M2068 4968 c-10 -10 -14 -18 -9 -18 10 0 36 29 30 34 -2 1 -12 -6
-21 -16z"/>
<path d="M2355 4980 c3 -5 8 -10 11 -10 2 0 4 5 4 10 0 6 -5 10 -11 10 -5 0
-7 -4 -4 -10z"/>
<path d="M4535 4980 c3 -5 8 -10 11 -10 2 0 4 5 4 10 0 6 -5 10 -11 10 -5 0
-7 -4 -4 -10z"/>
<path d="M4680 4969 c6 -10 16 -19 23 -18 9 0 9 2 0 6 -7 2 -13 9 -13 14 0 6
6 7 13 3 6 -4 8 -3 4 1 -4 5 -14 10 -22 11 -12 2 -12 -2 -5 -17z"/>
<path d="M4730 4980 c-9 -6 -10 -10 -3 -10 6 0 15 5 18 10 8 12 4 12 -15 0z"/>
<path d="M2099 4968 c-1 -7 -1 -16 0 -20 0 -5 -6 -8 -14 -8 -8 0 -15 -5 -15
-10 0 -20 36 8 37 29 2 22 -6 30 -8 9z"/>
<path d="M2270 4976 c0 -2 8 -10 18 -17 15 -13 16 -12 3 4 -13 16 -21 21 -21
13z"/>
<path d="M2200 4966 c0 -2 8 -10 18 -17 15 -13 16 -12 3 4 -13 16 -21 21 -21
13z"/>
<path d="M2519 4953 c-13 -16 -12 -17 4 -4 9 7 17 15 17 17 0 8 -8 3 -21 -13z"/>
<path d="M4593 4963 c4 -3 1 -13 -6 -22 -11 -14 -10 -14 5 -2 16 12 16 31 1
31 -4 0 -3 -3 0 -7z"/>
<path d="M4775 4961 c3 -5 -4 -11 -15 -13 -12 -2 -20 -7 -20 -13 1 -5 -7 -13
-17 -17 -17 -7 -17 -8 0 -5 10 1 18 7 17 12 -1 6 9 12 21 15 24 6 39 30 19 30
-6 0 -9 -4 -5 -9z"/>
<path d="M2128 4953 c6 -2 9 -10 6 -15 -4 -7 -2 -8 5 -4 13 9 5 26 -12 25 -9
0 -8 -2 1 -6z"/>
<path d="M2314 4936 c1 -8 5 -18 8 -22 4 -3 5 1 4 10 -1 8 -5 18 -8 22 -4 3
-5 -1 -4 -10z"/>
<path d="M4604 4918 c-12 -14 -13 -18 -3 -10 9 6 18 10 21 7 2 -3 5 2 5 10 0
19 0 19 -23 -7z"/>
<path d="M4657 4924 c2 -7 11 -10 19 -7 19 7 18 10 -5 16 -13 3 -18 1 -14 -9z"/>
<path d="M2110 4920 c0 -6 7 -10 15 -10 8 0 15 2 15 4 0 2 -7 6 -15 10 -8 3
-15 1 -15 -4z"/>
<path d="M2180 4920 c0 -5 7 -7 15 -4 8 4 15 8 15 10 0 2 -7 4 -15 4 -8 0 -15
-4 -15 -10z"/>
<path d="M2347 4919 c7 -7 15 -10 18 -7 3 3 -2 9 -12 12 -14 6 -15 5 -6 -5z"/>
<path d="M2386 4918 c3 -5 10 -6 15 -3 13 9 11 12 -6 12 -8 0 -12 -4 -9 -9z"/>
<path d="M4760 4915 c-9 -11 -8 -19 4 -37 9 -12 16 -17 16 -11 0 7 -4 15 -10
18 -5 3 -10 11 -10 17 0 7 6 6 15 -2 10 -9 15 -9 15 -1 0 6 -5 11 -11 11 -5 0
-7 5 -4 10 9 15 -1 12 -15 -5z"/>
<path d="M1659 4903 c-1 -2 -2 -6 -3 -10 -1 -5 -4 -12 -7 -18 -10 -18 -3 -105
10 -118 10 -10 16 -7 32 12 13 16 26 22 40 18 15 -4 18 -2 10 7 -7 9 -7 16 1
24 8 8 5 11 -11 9 -15 -1 -20 -6 -16 -16 3 -9 3 -13 0 -9 -9 9 -43 -25 -37
-36 3 -5 0 -6 -7 -2 -6 4 -9 12 -5 17 3 5 1 15 -4 22 -13 17 -11 45 4 51 8 3
11 12 8 21 -3 8 -1 15 5 15 6 0 10 -5 9 -11 -2 -6 3 -14 11 -17 10 -3 11 0 5
9 -5 9 1 8 19 -4 27 -17 37 -11 16 10 -8 8 -8 13 0 18 6 3 11 3 10 -2 -4 -22
2 -25 17 -7 14 18 15 18 4 -3 -6 -13 -7 -23 -3 -23 4 0 1 -5 -7 -10 -13 -9
-13 -11 0 -20 13 -9 13 -10 0 -10 -13 0 -13 -1 0 -10 11 -7 11 -10 2 -10 -7 0
-10 -5 -7 -10 3 -6 -1 -13 -9 -16 -9 -3 -13 -11 -9 -17 4 -6 15 1 28 17 20 26
23 26 39 11 15 -15 16 -15 14 7 -2 16 1 22 12 19 8 -2 24 -4 36 -4 11 -1 21
-7 21 -14 0 -9 -4 -10 -12 -3 -7 5 -15 7 -18 3 -14 -13 -6 -21 17 -19 17 2 23
-1 19 -10 -3 -7 -10 -12 -15 -11 -6 1 -13 -4 -15 -11 -3 -8 2 -10 14 -6 15 5
16 4 3 -6 -13 -10 -13 -11 0 -7 8 2 14 10 13 16 -4 17 8 13 24 -6 10 -14 13
-14 11 -3 -2 8 -7 18 -13 22 -5 4 -11 12 -11 18 -1 5 -3 12 -4 15 -1 3 -3 10
-4 15 0 6 -5 10 -9 9 -5 -1 -21 11 -37 26 -28 27 -44 22 -45 -12 0 -7 -3 -13
-7 -13 -5 0 -12 0 -16 0 -5 0 -8 14 -8 30 0 17 3 30 7 30 4 0 6 8 5 17 -3 20
-42 25 -57 7 -10 -13 -43 -8 -35 5 3 4 -4 7 -15 7 -10 0 -20 -2 -20 -3z m187
-75 c19 -23 19 -23 -2 -5 -11 9 -24 14 -29 10 -4 -5 -5 -2 -1 5 9 16 10 16 32
-10z"/>
<path d="M2083 4903 c9 -2 15 -8 12 -13 -3 -5 -12 -7 -19 -4 -8 3 -17 1 -20
-5 -8 -13 37 -10 46 3 10 14 0 26 -20 25 -15 -1 -15 -2 1 -6z"/>
<path d="M2203 4893 c-3 -10 -8 -21 -10 -25 -2 -4 4 -5 13 -1 13 5 15 3 9 -8
-5 -8 -4 -11 0 -6 13 11 15 38 2 30 -6 -4 -8 0 -4 10 3 10 4 17 1 17 -2 0 -7
-8 -11 -17z"/>
<path d="M4686 4903 c6 -4 10 -16 8 -26 -1 -10 4 -21 12 -24 8 -3 11 -9 8 -14
-3 -5 3 -6 12 -2 11 4 13 8 6 11 -7 2 -10 8 -7 13 4 5 0 6 -8 3 -10 -3 -14 2
-13 17 0 12 -6 24 -14 26 -10 3 -11 2 -4 -4z"/>
<path d="M2115 4874 c-9 -14 -15 -27 -13 -30 2 -2 12 10 22 26 21 37 15 40 -9
4z"/>
<path d="M4615 4889 c-4 -6 -5 -12 -2 -15 2 -3 7 2 10 11 7 17 1 20 -8 4z"/>
<path d="M2259 4873 c-12 -16 -12 -17 2 -6 9 7 20 9 24 5 5 -4 5 -1 1 6 -9 16
-11 15 -27 -5z"/>
<path d="M2593 4875 c0 -8 4 -12 9 -9 5 3 6 10 3 15 -9 13 -12 11 -12 -6z"/>
<path d="M4646 4877 c3 -10 9 -15 12 -12 3 3 0 11 -7 18 -10 9 -11 8 -5 -6z"/>
<path d="M4732 4876 c7 -8 15 -12 17 -11 5 6 -10 25 -20 25 -5 0 -4 -6 3 -14z"/>
<path d="M2305 4860 c-3 -6 1 -7 9 -4 18 7 21 14 7 14 -6 0 -13 -4 -16 -10z"/>
<path d="M2353 4855 c0 -8 4 -12 9 -9 5 3 6 10 3 15 -9 13 -12 11 -12 -6z"/>
<path d="M2435 4860 c-3 -5 -1 -10 4 -10 6 0 11 5 11 10 0 6 -2 10 -4 10 -3 0
-8 -4 -11 -10z"/>
<path d="M4550 4866 c0 -2 7 -7 16 -10 8 -3 12 -2 9 4 -6 10 -25 14 -25 6z"/>
<path d="M4993 4864 c8 -14 -16 -37 -29 -26 -4 4 -3 -1 5 -10 7 -9 18 -15 25
-12 14 5 15 39 1 51 -4 5 -5 3 -2 -3z"/>
<path d="M1668 4837 c-7 -14 -6 -23 5 -34 12 -12 16 -10 27 16 7 17 17 31 22
31 5 0 6 -5 2 -12 -5 -7 -3 -8 5 -4 17 11 4 21 -26 21 -14 1 -29 -7 -35 -18z
m26 4 c3 -5 -2 -15 -12 -22 -15 -12 -16 -12 -5 2 7 9 10 19 6 22 -3 4 -4 7 0
7 3 0 8 -4 11 -9z"/>
<path d="M2165 4840 c-3 -6 1 -7 9 -4 18 7 21 14 7 14 -6 0 -13 -4 -16 -10z"/>
<path d="M2225 4839 c-4 -6 -4 -13 -1 -16 3 -4 6 -1 6 6 0 7 5 9 10 6 6 -3 10
-1 10 4 0 14 -17 14 -25 0z"/>
<path d="M2399 4833 c-13 -16 -12 -17 4 -4 9 7 17 15 17 17 0 8 -8 3 -21 -13z"/>
<path d="M4450 4839 c0 -5 5 -7 10 -4 6 3 10 8 10 11 0 2 -4 4 -10 4 -5 0 -10
-5 -10 -11z"/>
<path d="M4630 4840 c0 -6 4 -9 9 -6 5 4 12 1 14 -4 3 -6 4 -5 3 2 -3 15 -26
23 -26 8z"/>
<path d="M4756 4835 c5 -11 2 -14 -12 -9 -15 6 -16 4 -7 -6 6 -7 16 -9 22 -6
14 9 15 36 1 36 -5 0 -7 -7 -4 -15z"/>
<path d="M2176 4822 c-2 -4 2 -16 10 -27 8 -10 14 -14 14 -9 0 6 -6 16 -12 23
-11 11 -10 13 5 8 9 -4 17 -2 17 3 0 12 -27 13 -34 2z"/>
<path d="M2283 4815 c-3 -9 -3 -18 -1 -21 3 -3 8 4 11 16 6 23 -1 27 -10 5z"/>
<path d="M4495 4820 c3 -5 8 -10 11 -10 2 0 4 5 4 10 0 6 -5 10 -11 10 -5 0
-7 -4 -4 -10z"/>
<path d="M4670 4820 c0 -5 8 -7 18 -3 14 5 15 3 5 -8 -7 -7 -13 -17 -13 -23 0
-5 6 -1 14 9 8 11 12 23 10 27 -7 11 -34 10 -34 -2z"/>
<path d="M2475 4809 c-4 -6 -5 -12 -2 -15 2 -3 7 2 10 11 7 17 1 20 -8 4z"/>
<path d="M1825 4793 c3 -12 1 -24 -5 -28 -8 -5 -4 -12 10 -22 11 -8 19 -22 18
-30 -2 -9 3 -18 11 -21 8 -3 11 0 7 7 -5 7 -1 9 11 4 12 -4 10 0 -7 14 -21 18
-23 23 -10 37 11 15 11 17 -1 14 -8 -2 -13 4 -13 14 1 10 -2 16 -6 13 -5 -3
-11 1 -14 7 -3 7 -3 3 -1 -9z"/>
<path d="M2227 4799 c7 -9 10 -19 6 -22 -3 -4 -1 -7 5 -7 17 0 15 16 -5 31
-16 12 -17 12 -6 -2z"/>
<path d="M2430 4801 c0 -6 4 -13 10 -16 6 -3 7 1 4 9 -7 18 -14 21 -14 7z"/>
<path d="M2155 4790 c3 -5 8 -10 11 -10 2 0 4 5 4 10 0 6 -5 10 -11 10 -5 0
-7 -4 -4 -10z"/>
<path d="M2313 4785 c0 -8 4 -12 9 -9 5 3 6 10 3 15 -9 13 -12 11 -12 -6z"/>
<path d="M1786 4775 c4 -11 4 -17 -1 -13 -4 4 -22 -3 -39 -16 -17 -13 -36 -22
-42 -19 -6 2 -11 -3 -11 -10 0 -8 11 -14 28 -14 18 0 25 5 22 13 -6 16 30 36
51 28 18 -7 16 20 -3 39 -10 9 -11 8 -5 -8z"/>
<path d="M4979 4783 c-1 -4 -2 -15 -3 -23 0 -8 -7 -16 -13 -16 -23 -3 -24 -4
-13 -24 9 -16 8 -22 -5 -26 -9 -4 -14 -13 -11 -21 3 -7 -1 -16 -9 -19 -8 -4
-15 -11 -15 -17 0 -6 3 -7 7 -4 3 4 13 -2 21 -14 12 -18 12 -22 -3 -39 -15
-17 -15 -19 0 -27 9 -6 16 -13 16 -16 -3 -20 0 -27 11 -27 6 0 9 3 5 6 -3 4 4
15 16 25 19 15 20 20 8 31 -8 7 -11 8 -8 2 8 -15 -19 -39 -27 -25 -4 5 -1 13
5 16 5 4 8 14 5 22 -4 9 -1 12 7 8 6 -4 3 1 -8 11 -18 15 -18 16 -2 10 10 -3
21 -6 23 -6 2 0 4 -6 4 -14 0 -12 15 -14 53 -7 4 0 7 6 7 12 0 8 -4 8 -13 1
-9 -8 -19 -6 -36 7 -21 16 -22 19 -7 33 14 14 13 17 -14 28 -23 10 -26 15 -17
25 7 7 15 11 19 9 4 -2 9 0 13 6 4 6 12 7 18 4 8 -4 7 -2 -1 7 -11 12 -14 12
-22 -1 -7 -11 -10 -11 -10 -2 0 7 -4 11 -9 7 -5 -3 -12 -1 -16 4 -3 6 3 8 14
6 10 -2 27 3 38 11 17 14 17 14 -1 7 -15 -5 -18 -3 -13 10 3 9 2 19 -3 22 -6
4 -11 3 -11 -2z m-5 -137 c-11 -28 -30 -25 -29 4 0 23 3 27 17 19 10 -5 15
-16 12 -23z m-14 -60 c0 -2 -8 -10 -17 -17 -16 -13 -17 -12 -4 4 13 16 21 21
21 13z"/>
<path d="M2155 4760 c-13 -6 -15 -9 -5 -9 8 0 22 4 30 9 18 12 2 12 -25 0z"/>
<path d="M4510 4761 c0 -6 4 -13 10 -16 6 -3 7 1 4 9 -7 18 -14 21 -14 7z"/>
<path d="M4660 4765 c0 -8 29 -12 39 -5 9 5 4 8 -13 8 -14 0 -26 -2 -26 -3z"/>
<path d="M2250 4751 c0 -6 4 -13 10 -16 6 -3 7 1 4 9 -7 18 -14 21 -14 7z"/>
<path d="M2310 4750 c-9 -6 -10 -10 -3 -10 6 0 15 5 18 10 8 12 4 12 -15 0z"/>
<path d="M2075 4740 c3 -5 8 -10 11 -10 2 0 4 5 4 10 0 6 -5 10 -11 10 -5 0
-7 -4 -4 -10z"/>
<path d="M2190 4741 c8 -5 18 -7 22 -5 4 3 8 1 8 -5 0 -5 -5 -12 -10 -14 -6
-3 -5 -4 2 -3 23 5 14 29 -12 33 -18 2 -21 1 -10 -6z"/>
<path d="M4553 4733 c0 -9 4 -10 14 -2 7 6 13 12 13 14 0 1 -6 2 -13 2 -8 0
-14 -6 -14 -14z"/>
<path d="M4630 4740 c0 -5 5 -10 10 -10 6 0 10 5 10 10 0 6 -4 10 -10 10 -5 0
-10 -4 -10 -10z"/>
<path d="M4699 4743 c-1 -5 -1 -11 0 -15 0 -4 -7 -7 -17 -5 -9 1 -18 -2 -19
-7 -1 -5 -14 -17 -30 -27 -15 -10 -24 -19 -20 -19 16 0 57 32 51 41 -3 5 5 8
18 6 15 -1 22 3 20 12 -2 8 3 11 13 8 8 -4 15 -2 15 3 0 12 -29 14 -31 3z"/>
<path d="M1759 4730 c-9 -6 -10 -13 -3 -22 13 -17 15 -56 4 -63 -14 -8 -23 16
-11 28 6 6 11 16 11 22 -1 5 -10 -1 -20 -14 -16 -18 -18 -27 -9 -38 7 -8 18
-12 25 -9 21 8 27 -14 10 -33 -18 -19 -18 -41 -1 -53 20 -15 27 -7 12 15 -14
21 -13 24 3 35 12 7 21 8 25 2 3 -6 11 -10 18 -10 6 0 0 11 -14 24 -20 18 -25
32 -23 65 1 35 -1 41 -15 36 -12 -5 -13 -3 -4 6 6 6 17 8 25 3 21 -13 50 -15
46 -3 -5 14 -61 20 -79 9z"/>
<path d="M2250 4710 c6 -11 13 -20 16 -20 2 0 0 9 -6 20 -6 11 -13 20 -16 20
-2 0 0 -9 6 -20z"/>
<path d="M4530 4721 c0 -6 4 -13 10 -16 6 -3 7 1 4 9 -7 18 -14 21 -14 7z"/>
<path d="M4579 4713 c-11 -15 -11 -16 1 -6 11 10 16 9 27 -5 13 -15 13 -15 3
6 -13 27 -14 27 -31 5z"/>
<path d="M2355 4700 c3 -13 0 -29 -5 -35 -7 -8 -5 -12 4 -12 14 0 17 50 4 63
-4 4 -5 -4 -3 -16z"/>
<path d="M1795 4689 c1 -20 15 -39 15 -21 0 5 2 17 5 25 3 7 0 14 -8 14 -7 0
-13 -8 -12 -18z"/>
<path d="M2184 4695 c11 -8 24 -15 30 -15 5 0 1 7 -10 15 -10 8 -23 14 -29 14
-5 0 -1 -6 9 -14z"/>
<path d="M2234 4686 c3 -16 8 -31 11 -35 3 -3 4 7 1 23 -3 16 -8 31 -11 35 -3
3 -4 -7 -1 -23z"/>
<path d="M2390 4699 c0 -5 5 -7 10 -4 6 3 10 8 10 11 0 2 -4 4 -10 4 -5 0 -10
-5 -10 -11z"/>
<path d="M4396 4693 c-6 -14 -5 -15 5 -6 7 7 10 15 7 18 -3 3 -9 -2 -12 -12z"/>
<path d="M4710 4699 c0 -5 5 -7 12 -3 8 5 9 2 4 -11 -5 -15 -4 -16 9 -5 13 11
13 15 3 21 -18 12 -28 11 -28 -2z"/>
<path d="M1825 4690 c-4 -6 -3 -16 3 -22 6 -6 12 -6 17 2 4 6 3 16 -3 22 -6 6
-12 6 -17 -2z"/>
<path d="M1855 4670 c-10 -11 -21 -17 -25 -15 -5 3 -16 2 -25 -1 -14 -6 -13
-10 10 -34 27 -28 19 -54 -10 -30 -16 13 -28 -1 -19 -24 7 -18 24 -22 24 -6 0
6 -5 10 -12 10 -6 0 -8 3 -4 7 4 5 13 0 21 -10 11 -16 14 -14 30 18 13 29 14
39 5 51 -9 10 -9 14 -1 15 6 1 17 2 23 3 15 1 24 36 10 36 -5 0 -17 -9 -27
-20z m-9 -58 c-4 -3 -11 0 -16 8 -15 24 -11 33 6 15 9 -9 13 -19 10 -23z"/>
<path d="M1907 4684 c-3 -3 -3 -13 0 -22 4 -10 2 -13 -5 -8 -6 3 -13 2 -17 -4
-4 -6 -10 -8 -14 -6 -4 3 -8 -8 -8 -23 0 -19 5 -27 13 -24 7 2 11 13 9 24 -2
11 0 17 6 13 6 -3 20 2 31 13 12 10 18 12 13 4 -5 -10 -4 -12 4 -7 15 10 4 26
-17 26 -15 0 -15 2 -2 10 8 5 10 10 4 10 -6 0 -13 -3 -17 -6z"/>
<path d="M2290 4682 c0 -4 10 -9 22 -9 18 -2 20 0 8 7 -18 12 -30 13 -30 2z"/>
<path d="M4660 4680 c-11 -8 -8 -9 13 -4 23 5 26 4 21 -12 -6 -15 -4 -16 6 -7
25 23 -9 43 -40 23z"/>
<path d="M2391 4667 c-8 -10 -7 -14 2 -14 8 0 14 6 14 14 0 7 -1 13 -2 13 -2
0 -8 -6 -14 -13z"/>
<path d="M2200 4660 c-12 -7 -12 -12 -2 -22 9 -9 15 -9 24 0 8 8 9 15 2 22 -5
5 -15 6 -24 0z m20 -10 c0 -5 -5 -10 -11 -10 -5 0 -7 5 -4 10 3 6 8 10 11 10
2 0 4 -4 4 -10z"/>
<path d="M4455 4660 c3 -5 8 -10 11 -10 2 0 4 5 4 10 0 6 -5 10 -11 10 -5 0
-7 -4 -4 -10z"/>
<path d="M2280 4651 c0 -10 19 -25 25 -20 1 2 -3 10 -11 17 -8 7 -14 8 -14 3z"/>
<path d="M4625 4638 l-20 -21 23 12 c12 6 22 16 22 21 0 13 -2 12 -25 -12z"/>
<path d="M4670 4645 c0 -8 4 -15 10 -15 5 0 7 7 4 15 -4 8 -8 15 -10 15 -2 0
-4 -7 -4 -15z"/>
<path d="M1908 4626 c-15 -11 -13 -13 17 -12 40 1 41 2 17 15 -12 6 -23 5 -34
-3z"/>
<path d="M2235 4629 c-4 -6 -5 -12 -2 -15 2 -3 7 2 10 11 7 17 1 20 -8 4z"/>
<path d="M2180 4622 c0 -6 9 -12 20 -15 11 -3 20 -11 20 -17 0 -9 -5 -9 -17 1
-16 13 -17 12 -4 -4 15 -19 39 -8 27 12 -10 16 -46 33 -46 23z"/>
<path d="M2256 4622 c-9 -8 -7 -40 2 -45 4 -3 16 0 27 4 18 9 18 9 -2 5 -17
-3 -23 1 -23 14 0 13 5 17 20 13 11 -3 20 -3 20 0 0 7 -38 16 -44 9z"/>
<path d="M2350 4615 c5 -6 7 -24 4 -40 -3 -16 -2 -26 2 -22 14 13 12 74 -2 74
-9 0 -11 -4 -4 -12z"/>
<path d="M2495 4620 c3 -5 8 -10 11 -10 2 0 4 5 4 10 0 6 -5 10 -11 10 -5 0
-7 -4 -4 -10z"/>
<path d="M4455 4620 c-3 -5 -1 -10 4 -10 6 0 11 5 11 10 0 6 -2 10 -4 10 -3 0
-8 -4 -11 -10z"/>
<path d="M4640 4618 c-12 -8 -11 -9 4 -4 13 5 17 2 12 -9 -3 -8 -1 -15 4 -15
12 0 13 27 2 34 -4 2 -14 0 -22 -6z"/>
<path d="M4575 4609 c-4 -6 -14 -8 -24 -4 -13 5 -14 4 -3 -6 10 -11 15 -10 29
4 10 9 14 17 11 17 -4 0 -10 -5 -13 -11z"/>
<path d="M1910 4598 c0 -6 -3 -9 -6 -5 -10 9 -61 -20 -68 -39 -4 -10 0 -24 8
-33 14 -13 15 -11 11 17 -2 18 0 30 4 27 5 -2 7 -20 6 -38 -2 -24 1 -34 11
-34 16 0 15 27 -1 40 -6 6 -5 10 3 14 10 4 10 8 0 21 -10 12 -10 14 0 8 6 -4
12 -3 12 1 0 11 38 14 45 3 2 -4 -2 -13 -10 -20 -8 -7 -15 -17 -15 -22 0 -6 6
-5 15 2 12 10 13 8 9 -12 -3 -12 -6 -29 -6 -35 -1 -10 -5 -10 -15 -1 -11 8
-12 7 -7 -6 4 -10 1 -16 -7 -16 -11 0 -11 -3 1 -10 8 -5 20 -10 25 -10 6 0 3
5 -5 10 -13 8 -12 10 4 10 12 0 16 5 13 15 -4 8 -2 17 4 21 6 3 8 12 5 20 -3
8 1 17 9 20 8 4 15 10 15 16 0 5 -4 7 -8 4 -5 -3 -15 6 -22 19 -14 26 -30 33
-30 13z"/>
<path d="M4594 4592 c-9 -14 -8 -18 6 -18 11 0 15 6 12 18 -2 10 -5 18 -6 18
-1 0 -6 -8 -12 -18z"/>
<path d="M1905 4572 c-15 -10 -14 -60 1 -66 7 -3 15 2 18 10 3 8 2 12 -3 9
-19 -11 -23 17 -5 36 17 18 9 26 -11 11z"/>
<path d="M5007 4565 c3 -8 9 -12 14 -9 12 7 11 11 -5 17 -10 4 -13 1 -9 -8z"/>
<path d="M2226 4561 c-4 -5 0 -12 6 -14 10 -4 9 -8 -2 -17 -13 -10 -13 -11 0
-7 8 2 16 13 16 25 1 22 -10 29 -20 13z"/>
<path d="M2297 4555 c-4 -8 -1 -17 5 -21 7 -4 8 -3 4 4 -10 16 6 15 24 0 8 -7
6 -3 -4 10 -23 26 -22 26 -29 7z"/>
<path d="M4519 4553 c-12 -16 -12 -17 2 -6 9 7 20 9 24 5 5 -4 5 -1 1 6 -9 16
-11 15 -27 -5z"/>
<path d="M4620 4560 c-12 -7 -10 -9 8 -7 12 0 22 5 22 9 0 11 -12 10 -30 -2z"/>
<path d="M1797 4539 c-9 -6 -17 -15 -17 -20 0 -6 5 -7 12 -3 6 4 8 3 5 -3 -4
-6 0 -14 9 -17 12 -5 14 -1 9 16 -6 18 -5 19 7 7 15 -14 21 -42 6 -33 -4 3 -8
1 -8 -5 0 -18 17 -21 30 -6 9 10 9 15 1 15 -6 0 -10 3 -9 8 2 4 -4 17 -12 29
-12 16 -20 19 -33 12z"/>
<path d="M1749 4524 c-8 -10 -21 -13 -38 -9 -24 6 -25 6 -8 -13 9 -10 17 -24
17 -31 0 -7 5 -9 11 -6 6 4 8 13 5 21 -5 13 6 18 27 15 4 0 7 8 7 19 0 24 -4
25 -21 4z"/>
<path d="M2260 4530 c0 -21 -2 -25 -16 -33 -8 -4 -14 -13 -14 -18 0 -17 34 22
37 42 2 11 1 19 -2 19 -3 0 -5 -4 -5 -10z"/>
<path d="M2510 4536 c0 -2 8 -10 18 -17 15 -13 16 -12 3 4 -13 16 -21 21 -21
13z"/>
<path d="M2287 4519 c7 -7 15 -10 18 -7 3 3 -2 9 -12 12 -14 6 -15 5 -6 -5z"/>
<path d="M4616 4511 c-4 -5 3 -7 14 -4 23 6 26 13 6 13 -8 0 -17 -4 -20 -9z"/>
<path d="M2321 4501 c-8 -5 -9 -11 -3 -15 5 -3 12 1 16 9 6 17 6 18 -13 6z"/>
<path d="M1750 4481 c0 -10 3 -21 8 -25 4 -4 7 -13 7 -18 0 -6 5 -13 11 -15
17 -6 12 30 -6 45 -13 10 -12 11 4 5 14 -5 17 -3 11 7 -5 9 -4 11 4 6 6 -4 9
-11 6 -16 -3 -5 4 -11 15 -15 11 -4 18 -11 14 -16 -3 -6 5 -8 20 -5 14 3 26 0
26 -5 0 -6 5 -7 10 -4 6 4 7 12 4 18 -4 7 -3 8 2 4 5 -5 9 -13 9 -17 0 -5 9
-16 20 -25 11 -9 14 -13 6 -9 -10 5 -12 3 -6 -5 6 -10 3 -11 -12 -2 -20 10
-33 6 -33 -10 0 -4 9 -6 20 -4 11 2 22 0 25 -5 3 -5 -4 -7 -15 -5 -14 3 -18 0
-13 -8 5 -8 2 -8 -9 1 -13 10 -17 10 -22 -3 -3 -9 -11 -13 -17 -9 -7 4 -9 3
-6 -3 4 -6 -2 -22 -14 -34 -11 -13 -18 -19 -14 -12 3 8 -2 11 -16 8 -17 -3
-19 -2 -9 10 9 11 7 14 -9 12 -15 -1 -19 -6 -16 -18 3 -10 1 -20 -4 -24 -6 -3
-8 0 -5 9 6 16 -11 16 -36 2 -12 -7 -13 -6 -2 5 23 25 12 33 -13 9 -26 -25
-32 -40 -14 -40 5 0 8 4 5 9 -3 5 6 9 20 9 18 0 24 -5 20 -15 -4 -10 4 -9 28
7 32 19 56 14 42 -9 -4 -5 2 -8 11 -6 10 1 24 -3 32 -9 12 -9 13 -8 6 4 -5 8
-10 21 -12 29 -3 21 16 53 28 46 5 -4 9 -1 9 5 0 6 4 9 9 5 5 -3 12 -1 16 5 9
14 27 1 19 -13 -4 -7 -3 -8 2 -4 5 5 9 18 9 30 1 12 6 21 11 20 6 -1 10 8 9
20 -2 26 -52 59 -80 52 -13 -4 -10 0 8 10 15 9 27 18 27 20 0 10 -25 0 -45
-18 -19 -18 -21 -17 -38 4 -22 28 -67 34 -67 10z m185 -61 c3 -6 -1 -7 -9 -4
-18 7 -21 14 -7 14 6 0 13 -4 16 -10z"/>
<path d="M2266 4485 c-11 -8 -16 -15 -10 -15 5 0 18 7 28 15 11 8 16 15 10 15
-5 0 -18 -7 -28 -15z"/>
<path d="M2374 4489 c-3 -6 -2 -15 3 -20 5 -5 9 -1 9 11 0 23 -2 24 -12 9z"/>
<path d="M4579 4498 c-5 -18 -6 -38 -1 -34 7 8 12 36 6 36 -2 0 -4 -1 -5 -2z"/>
<path d="M4490 4480 c0 -5 5 -10 11 -10 5 0 7 5 4 10 -3 6 -8 10 -11 10 -2 0
-4 -4 -4 -10z"/>
<path d="M4530 4481 c0 -6 4 -13 10 -16 6 -3 7 1 4 9 -7 18 -14 21 -14 7z"/>
<path d="M4604 4479 c-3 -6 -1 -16 5 -22 9 -9 10 -7 5 7 -6 15 -4 17 6 11 9
-5 11 -4 6 3 -9 15 -13 15 -22 1z"/>
<path d="M4717 4484 c-3 -3 -3 -13 0 -21 5 -12 7 -12 14 -1 15 23 4 40 -14 22z"/>
<path d="M4920 4481 c0 -6 4 -13 10 -16 6 -3 7 1 4 9 -7 18 -14 21 -14 7z"/>
<path d="M2793 4473 c-13 -2 -32 -16 -43 -30 -20 -25 -20 -39 -19 -778 l1
-753 23 -22 c16 -15 40 -24 67 -26 53 -4 12 -27 783 435 270 161 500 304 511
318 16 19 20 34 17 62 -3 20 -9 41 -15 48 -8 10 -113 76 -173 109 -11 6 -180
106 -375 224 -195 117 -368 221 -385 230 -16 9 -93 55 -170 101 -135 81 -166
92 -222 82z"/>
<path d="M2194 4456 c-3 -8 -1 -23 5 -33 9 -15 10 -13 5 10 -5 23 -4 26 12 20
12 -4 15 -3 10 5 -10 16 -25 15 -32 -2z"/>
<path d="M2232 4444 c-7 -8 -8 -14 -3 -14 10 0 25 19 20 25 -2 1 -10 -3 -17
-11z"/>
<path d="M1722 4421 c-17 -17 -32 -26 -32 -20 0 5 -5 9 -11 9 -8 0 -8 -5 1
-15 10 -12 10 -18 1 -29 -19 -23 5 -28 30 -6 13 11 19 19 14 20 -6 0 -17 -6
-24 -12 -8 -7 -3 2 10 20 16 22 28 30 39 26 8 -4 23 -7 32 -8 9 0 14 -4 12 -8
-3 -4 -1 -8 4 -8 13 0 23 27 16 45 -7 17 -24 20 -24 5 0 -5 6 -10 13 -10 6 0
4 -5 -6 -11 -20 -12 -52 6 -41 22 9 16 -1 10 -34 -20z"/>
<path d="M2635 4440 c-3 -5 -1 -10 4 -10 6 0 11 5 11 10 0 6 -2 10 -4 10 -3 0
-8 -4 -11 -10z"/>
<path d="M4420 4440 c-9 -6 -10 -10 -3 -10 6 0 15 5 18 10 8 12 4 12 -15 0z"/>
<path d="M4510 4439 c0 -5 5 -7 10 -4 6 3 10 8 10 11 0 2 -4 4 -10 4 -5 0 -10
-5 -10 -11z"/>
<path d="M4620 4440 c-9 -6 -10 -10 -3 -10 6 0 15 5 18 10 8 12 4 12 -15 0z"/>
<path d="M4650 4438 c0 -6 3 -8 7 -5 3 4 13 1 22 -6 14 -11 14 -10 2 6 -15 20
-31 22 -31 5z"/>
<path d="M1823 4403 l-18 -30 -30 19 c-41 25 -46 23 -42 -17 2 -19 0 -32 -4
-29 -5 3 -21 -1 -35 -9 -15 -8 -22 -17 -17 -20 6 -4 16 0 23 8 17 20 30 19 30
-2 0 -15 2 -16 10 -3 5 8 23 15 40 16 25 1 28 -1 18 -13 -9 -11 -8 -13 3 -11
20 4 27 17 24 44 -1 13 2 21 7 17 6 -3 7 4 3 18 -5 18 -4 21 4 9 6 -8 8 -24 5
-35 -3 -11 4 -5 15 13 13 19 26 30 33 26 6 -4 8 -3 5 4 -4 5 -15 9 -25 8 -9
-2 -20 1 -24 7 -3 6 -14 -3 -25 -20z m-58 -21 c-3 -3 -11 0 -18 7 -9 10 -8 11
6 5 10 -3 15 -9 12 -12z m48 -15 c4 3 7 1 7 -5 0 -7 -4 -12 -10 -13 -39 -4
-54 -2 -58 10 -3 9 2 11 18 6 17 -6 21 -4 14 6 -6 11 -5 12 8 2 8 -7 18 -10
21 -6z"/>
<path d="M2142 4400 c-7 -11 -9 -20 -4 -20 4 0 13 9 20 20 7 11 9 20 4 20 -4
0 -13 -9 -20 -20z"/>
<path d="M2176 4405 c-9 -26 -7 -32 5 -12 6 10 9 21 6 23 -2 3 -7 -2 -11 -11z"/>
<path d="M4535 4411 c-3 -5 -2 -12 3 -15 5 -3 9 1 9 9 0 17 -3 19 -12 6z"/>
<path d="M4636 4405 c4 -8 8 -15 10 -15 2 0 4 7 4 15 0 8 -4 15 -10 15 -5 0
-7 -7 -4 -15z"/>
<path d="M4944 4408 c-4 -7 -4 -10 1 -6 4 4 14 3 21 -3 9 -7 14 -6 20 3 4 7 4
10 -1 6 -4 -4 -14 -3 -21 3 -9 7 -14 6 -20 -3z"/>
<path d="M2219 4403 c-1 -5 -1 -12 0 -17 1 -5 -5 -6 -14 -2 -9 3 -13 2 -10 -4
3 -6 1 -10 -6 -10 -7 0 -10 -3 -7 -6 9 -9 49 16 43 26 -3 5 5 11 17 13 l23 4
-22 2 c-13 0 -24 -2 -24 -6z"/>
<path d="M2284 4399 c-4 -7 -3 -9 4 -5 5 3 13 0 15 -6 4 -9 6 -10 6 -1 1 17
-16 25 -25 12z"/>
<path d="M2396 4393 c-6 -14 -5 -15 5 -6 7 7 10 15 7 18 -3 3 -9 -2 -12 -12z"/>
<path d="M4680 4395 c0 -8 2 -15 4 -15 2 0 6 7 10 15 3 8 1 15 -4 15 -6 0 -10
-7 -10 -15z"/>
<path d="M4915 4400 c3 -5 8 -10 11 -10 2 0 4 5 4 10 0 6 -5 10 -11 10 -5 0
-7 -4 -4 -10z"/>
<path d="M4591 4387 c-8 -10 -7 -14 4 -14 8 0 11 5 8 10 -4 6 1 8 11 4 10 -4
15 -3 11 3 -8 14 -20 12 -34 -3z"/>
<path d="M4456 4373 c-6 -14 -5 -15 5 -6 7 7 10 15 7 18 -3 3 -9 -2 -12 -12z"/>
<path d="M4533 4365 c0 -8 4 -15 9 -15 4 0 8 4 8 9 0 6 -4 12 -8 15 -5 3 -9
-1 -9 -9z"/>
<path d="M4639 4378 c-6 -12 -5 -48 1 -48 4 0 7 11 6 25 -1 22 -3 30 -7 23z"/>
<path d="M4975 4370 c-4 -6 -15 -8 -26 -5 -12 4 -19 2 -19 -6 0 -7 3 -9 6 -6
4 3 14 2 24 -3 17 -9 20 -36 6 -59 -7 -10 -4 -11 11 -2 11 6 22 8 25 6 2 -2 4
5 5 15 1 11 -3 20 -8 20 -6 0 -7 -6 -3 -12 4 -7 3 -9 -1 -5 -16 14 -14 36 2
30 13 -5 13 -3 4 15 -13 25 -17 26 -26 12z"/>
<path d="M2250 4360 c0 -5 5 -10 10 -10 6 0 10 5 10 10 0 6 -4 10 -10 10 -5 0
-10 -4 -10 -10z"/>
<path d="M2280 4365 c0 -2 6 -8 13 -14 10 -8 14 -7 14 2 0 8 -6 14 -14 14 -7
0 -13 -1 -13 -2z"/>
<path d="M4690 4360 c0 -5 5 -10 10 -10 6 0 10 5 10 10 0 6 -4 10 -10 10 -5 0
-10 -4 -10 -10z"/>
<path d="M2174 4339 c-2 -4 -1 -14 2 -23 5 -12 2 -15 -12 -10 -15 5 -16 4 -4
-4 20 -15 32 -4 24 20 -3 11 -2 18 3 15 5 -3 15 -2 23 3 11 7 9 9 -8 7 -13 -1
-25 -4 -28 -8z"/>
<path d="M2435 4339 c-3 -4 2 -6 10 -5 21 3 28 13 10 13 -9 0 -18 -4 -20 -8z"/>
<path d="M4456 4342 c-3 -5 1 -9 9 -9 8 0 12 4 9 9 -3 4 -7 8 -9 8 -2 0 -6 -4
-9 -8z"/>
<path d="M4723 4343 c-18 -7 -16 -14 12 -47 14 -16 25 -25 25 -19 0 5 -9 18
-20 28 -15 14 -17 20 -8 26 15 10 8 18 -9 12z"/>
<path d="M4574 4326 c1 -8 5 -18 8 -22 4 -3 5 1 4 10 -1 8 -5 18 -8 22 -4 3
-5 -1 -4 -10z"/>
<path d="M4680 4334 c0 -6 6 -16 13 -23 10 -11 9 -13 -5 -8 -10 4 -18 2 -18
-3 0 -12 27 -13 34 -2 2 4 -2 16 -10 27 -8 10 -14 14 -14 9z"/>
<path d="M2210 4315 c0 -8 2 -15 4 -15 2 0 6 7 10 15 3 8 1 15 -4 15 -6 0 -10
-7 -10 -15z"/>
<path d="M2296 4313 c-6 -14 -5 -15 5 -6 7 7 10 15 7 18 -3 3 -9 -2 -12 -12z"/>
<path d="M2376 4313 c-6 -14 -5 -15 5 -6 7 7 10 15 7 18 -3 3 -9 -2 -12 -12z"/>
<path d="M2237 4313 c-10 -10 -8 -23 4 -23 5 0 7 5 3 12 -5 8 -2 9 10 5 10 -4
15 -3 11 3 -7 12 -19 13 -28 3z"/>
<path d="M4646 4283 c-6 -14 -5 -15 5 -6 7 7 10 15 7 18 -3 3 -9 -2 -12 -12z"/>
<path d="M2200 4269 c13 -23 22 -25 13 -2 -5 12 -3 14 8 8 8 -5 11 -4 6 0 -4
5 -14 10 -22 11 -12 2 -12 -2 -5 -17z"/>
<path d="M2276 4278 c3 -5 10 -6 15 -3 13 9 11 12 -6 12 -8 0 -12 -4 -9 -9z"/>
<path d="M4510 4281 c0 -6 4 -13 10 -16 6 -3 7 1 4 9 -7 18 -14 21 -14 7z"/>
<path d="M4604 4279 c-4 -7 -3 -9 4 -5 5 3 13 0 15 -6 4 -9 6 -10 6 -1 1 17
-16 25 -25 12z"/>
<path d="M4714 4281 c3 -5 -1 -12 -9 -15 -13 -5 -13 -9 -3 -25 7 -11 14 -18
17 -16 2 3 -2 12 -10 22 -12 15 -12 16 4 10 10 -4 16 -3 12 2 -3 5 0 11 7 13
7 3 5 7 -6 11 -9 4 -15 3 -12 -2z"/>
<path d="M4766 4263 c-6 -14 -5 -15 5 -6 7 7 10 15 7 18 -3 3 -9 -2 -12 -12z"/>
<path d="M4580 4266 c0 -2 8 -10 18 -17 15 -13 16 -12 3 4 -13 16 -21 21 -21
13z"/>
<path d="M4659 4268 c-7 -23 -3 -45 8 -41 16 6 17 23 2 23 -5 0 -7 5 -4 10 3
6 4 10 1 10 -3 0 -6 -1 -7 -2z"/>
<path d="M1671 4257 c2 -1 13 -9 24 -17 19 -14 19 -14 6 3 -7 9 -18 17 -24 17
-6 0 -8 -1 -6 -3z"/>
<path d="M2170 4238 c0 -4 4 -8 9 -8 6 0 12 4 15 8 3 5 -1 9 -9 9 -8 0 -15 -4
-15 -9z"/>
<path d="M2230 4241 c0 -6 4 -12 8 -15 5 -3 9 1 9 9 0 8 -4 15 -9 15 -4 0 -8
-4 -8 -9z"/>
<path d="M1674 4216 c1 -8 5 -18 8 -22 4 -3 5 1 4 10 -1 8 -5 18 -8 22 -4 3
-5 -1 -4 -10z"/>
<path d="M1776 4218 c3 -5 10 -6 15 -3 13 9 11 12 -6 12 -8 0 -12 -4 -9 -9z"/>
<path d="M2096 4221 c-3 -4 8 -8 23 -7 16 1 27 4 24 9 -6 10 -41 9 -47 -2z"/>
<path d="M2201 4221 c-8 -5 -9 -11 -3 -15 5 -3 12 1 16 9 6 17 6 18 -13 6z"/>
<path d="M2268 4223 c7 -3 16 -2 19 1 4 3 -2 6 -13 5 -11 0 -14 -3 -6 -6z"/>
<path d="M2307 4219 c7 -7 15 -10 18 -7 3 3 -2 9 -12 12 -14 6 -15 5 -6 -5z"/>
<path d="M4585 4220 c-3 -6 1 -7 9 -4 18 7 21 14 7 14 -6 0 -13 -4 -16 -10z"/>
<path d="M4606 4205 c-18 -14 -18 -14 1 -12 11 0 20 7 20 14 0 7 -1 13 -1 13
-1 0 -9 -7 -20 -15z"/>
<path d="M2240 4206 c0 -2 8 -10 18 -17 15 -13 16 -12 3 4 -13 16 -21 21 -21
13z"/>
<path d="M4700 4206 c0 -2 7 -9 15 -16 9 -7 15 -8 15 -2 0 5 -7 12 -15 16 -8
3 -15 4 -15 2z"/>
<path d="M2075 4190 c-3 -6 1 -7 9 -4 18 7 21 14 7 14 -6 0 -13 -4 -16 -10z"/>
<path d="M2135 4191 c-3 -5 0 -13 6 -17 8 -5 9 -3 4 6 -6 10 -1 12 18 8 15 -3
24 -1 21 3 -7 12 -41 11 -49 0z"/>
<path d="M2313 4185 c0 -8 4 -12 9 -9 5 3 6 10 3 15 -9 13 -12 11 -12 -6z"/>
<path d="M2113 4163 c0 -15 2 -22 4 -15 3 6 10 9 16 5 7 -4 5 2 -3 13 -8 10
-15 20 -16 22 -1 2 -1 -10 -1 -25z"/>
<path d="M2375 4180 c3 -5 8 -10 11 -10 2 0 4 5 4 10 0 6 -5 10 -11 10 -5 0
-7 -4 -4 -10z"/>
<path d="M4680 4169 c13 -23 22 -25 13 -2 -5 12 -3 14 8 8 8 -5 11 -4 6 0 -4
5 -14 10 -22 11 -12 2 -12 -2 -5 -17z"/>
<path d="M2015 4161 c-3 -12 -10 -19 -15 -16 -13 8 -24 -35 -12 -47 8 -8 9 -4
5 11 -3 12 -1 21 5 21 13 0 36 39 29 47 -3 2 -8 -5 -12 -16z"/>
<path d="M2059 4163 c-1 -5 -1 -12 0 -17 1 -5 -5 -6 -14 -2 -9 3 -13 2 -10 -4
3 -6 1 -10 -6 -10 -7 0 -10 -3 -7 -6 9 -9 49 16 43 26 -3 5 5 11 17 13 l23 4
-22 2 c-13 0 -24 -2 -24 -6z"/>
<path d="M4730 4163 c0 -5 14 -9 31 -9 35 -2 33 5 -5 12 -14 2 -26 1 -26 -3z"/>
<path d="M2159 4155 c-1 -3 -2 -8 -3 -12 -1 -5 -4 -13 -8 -19 -4 -6 -1 -11 5
-11 7 0 13 11 13 24 0 21 -4 31 -7 18z"/>
<path d="M4639 4158 c-5 -18 -6 -38 -1 -34 7 8 12 36 6 36 -2 0 -4 -1 -5 -2z"/>
<path d="M4495 4140 c-3 -5 -1 -10 4 -10 6 0 11 5 11 10 0 6 -2 10 -4 10 -3 0
-8 -4 -11 -10z"/>
<path d="M4700 4136 c0 -2 7 -6 15 -10 8 -3 15 -1 15 4 0 6 -7 10 -15 10 -8 0
-15 -2 -15 -4z"/>
<path d="M4756 4125 c-3 -8 -1 -15 4 -15 6 0 10 7 10 15 0 8 -2 15 -4 15 -2 0
-6 -7 -10 -15z"/>
<path d="M4790 4129 c0 -5 5 -7 10 -4 6 3 10 8 10 11 0 2 -4 4 -10 4 -5 0 -10
-5 -10 -11z"/>
<path d="M4817 4126 c-4 -9 -3 -15 2 -11 5 3 11 0 13 -7 3 -7 7 -5 11 6 4 9 3
15 -2 11 -5 -3 -11 0 -13 7 -3 7 -7 5 -11 -6z"/>
<path d="M2074 4121 c4 -5 1 -12 -4 -14 -6 -3 -5 -4 2 -3 15 3 23 26 8 26 -6
0 -9 -4 -6 -9z"/>
<path d="M2191 4107 c-13 -21 -12 -21 5 -5 10 10 16 20 13 22 -3 3 -11 -5 -18
-17z"/>
<path d="M4666 4105 c-11 -8 -15 -15 -9 -15 6 0 16 7 23 15 16 19 11 19 -14 0z"/>
<path d="M2015 4102 c-9 -9 -5 -32 5 -32 5 0 6 7 3 17 -4 10 -2 14 5 9 6 -3
13 -3 16 2 5 9 -20 12 -29 4z"/>
<path d="M2107 4093 c3 -7 6 -13 8 -13 2 0 5 6 8 13 3 8 -1 14 -8 14 -7 0 -11
-6 -8 -14z"/>
<path d="M2336 4098 c3 -4 11 -5 19 -1 21 7 19 12 -4 10 -11 0 -18 -5 -15 -9z"/>
<path d="M4710 4094 c8 -10 15 -20 16 -22 1 -2 4 1 7 5 3 5 -4 15 -16 23 -21
12 -21 12 -7 -6z"/>
<path d="M4770 4091 c-6 -13 -5 -18 5 -18 7 0 11 6 8 13 -3 9 2 11 16 7 12 -3
21 -3 21 0 0 2 -9 7 -20 10 -13 3 -24 -1 -30 -12z"/>
<path d="M4861 4094 c12 -15 11 -16 -9 -10 -12 4 -22 4 -22 -1 0 -12 38 -14
45 -2 3 5 18 -3 33 -17 15 -14 41 -32 59 -40 18 -9 35 -24 38 -35 4 -10 11
-19 16 -19 19 0 -25 52 -60 70 -20 10 -44 28 -54 40 -10 11 -22 18 -27 15 -6
-3 -10 -1 -10 4 0 6 -5 11 -11 11 -8 0 -7 -6 2 -16z"/>
<path d="M2139 4098 c-5 -18 -6 -38 -1 -34 7 8 12 36 6 36 -2 0 -4 -1 -5 -2z"/>
<path d="M4515 4089 c-4 -6 -5 -12 -2 -15 2 -3 7 2 10 11 7 17 1 20 -8 4z"/>
<path d="M1954 4078 c-4 -6 -3 -8 4 -4 5 3 13 0 15 -6 3 -8 6 -6 6 5 1 19 -14
23 -25 5z"/>
<path d="M2055 4080 c3 -5 8 -10 11 -10 2 0 4 5 4 10 0 6 -5 10 -11 10 -5 0
-7 -4 -4 -10z"/>
<path d="M2215 4080 c3 -5 8 -10 11 -10 2 0 4 5 4 10 0 6 -5 10 -11 10 -5 0
-7 -4 -4 -10z"/>
<path d="M4690 4081 c0 -6 4 -13 10 -16 6 -3 7 1 4 9 -7 18 -14 21 -14 7z"/>
<path d="M4630 4076 c0 -2 8 -10 18 -17 15 -13 16 -12 3 4 -13 16 -21 21 -21
13z"/>
<path d="M1914 4063 c3 -3 -2 -12 -10 -20 -18 -18 -9 -33 19 -32 21 1 21 1 -1
8 l-24 6 23 20 c19 17 22 18 16 3 -4 -10 -2 -18 4 -18 18 0 5 33 -14 36 -11 1
-16 0 -13 -3z"/>
<path d="M1990 4060 c0 -6 7 -10 15 -10 8 0 15 2 15 4 0 2 -7 6 -15 10 -8 3
-15 1 -15 -4z"/>
<path d="M4739 4068 c0 -2 -2 -13 -3 -26 -3 -21 -2 -21 18 -5 12 10 23 20 26
22 3 2 -6 0 -19 -4 -16 -5 -21 -4 -17 4 4 6 5 11 2 11 -3 0 -6 -1 -7 -2z"/>
<path d="M4808 4063 c6 -2 9 -10 6 -15 -4 -7 -2 -8 5 -4 13 9 5 26 -12 25 -9
0 -8 -2 1 -6z"/>
<path d="M1820 4050 c-13 -9 -13 -11 0 -20 20 -13 30 -13 30 1 0 5 -4 7 -10 4
-5 -3 -10 -2 -10 4 0 5 6 12 13 14 6 3 8 6 2 6 -5 0 -17 -4 -25 -9z"/>
<path d="M2035 4044 c-16 -8 -22 -12 -11 -9 10 3 24 1 30 -4 8 -7 12 -4 12 10
0 10 0 19 -1 19 0 -1 -13 -8 -30 -16z"/>
<path d="M2093 4038 c-1 -11 1 -16 5 -12 4 5 11 12 15 15 5 3 2 9 -5 12 -9 3
-14 -3 -15 -15z"/>
<path d="M2216 4047 c3 -10 9 -15 12 -12 3 3 0 11 -7 18 -10 9 -11 8 -5 -6z"/>
<path d="M4596 4047 c3 -10 9 -15 12 -12 3 3 0 11 -7 18 -10 9 -11 8 -5 -6z"/>
<path d="M4684 4042 c23 -26 23 -26 23 -7 0 8 -3 13 -5 10 -3 -3 -12 1 -21 7
-10 8 -9 4 3 -10z"/>
<path d="M4836 4045 c-3 -8 -1 -15 4 -15 6 0 10 7 10 15 0 8 -2 15 -4 15 -2 0
-6 -7 -10 -15z"/>
<path d="M4870 4050 c0 -5 5 -10 10 -10 6 0 10 5 10 10 0 6 -4 10 -10 10 -5 0
-10 -4 -10 -10z"/>
<path d="M5055 4050 c-3 -5 -3 -10 2 -10 4 0 2 -4 -5 -9 -11 -6 -11 -10 0 -19
10 -8 13 -4 13 19 1 32 -1 34 -10 19z"/>
<path d="M1967 4039 c7 -7 15 -10 18 -7 3 3 -2 9 -12 12 -14 6 -15 5 -6 -5z"/>
<path d="M2136 4038 c3 -4 11 -5 19 -1 21 7 19 12 -4 10 -11 0 -18 -5 -15 -9z"/>
<path d="M4780 4040 c-9 -6 -10 -10 -3 -10 6 0 15 5 18 10 8 12 4 12 -15 0z"/>
<path d="M4919 4024 c11 -17 18 -34 14 -37 -3 -4 2 -9 11 -13 9 -3 13 -11 9
-17 -3 -6 -1 -7 5 -3 17 10 15 26 -4 26 -8 0 -13 4 -10 8 3 5 -7 21 -20 38
l-26 29 21 -31z"/>
<path d="M1775 4020 c-16 -17 -16 -20 -3 -15 9 4 19 13 22 21 7 19 2 18 -19
-6z"/>
<path d="M4848 4007 c-6 -13 -6 -17 0 -13 6 3 13 0 16 -6 3 -7 4 -4 1 7 -4 16
0 21 15 21 11 0 20 -6 20 -13 0 -7 5 -13 10 -13 7 0 8 6 2 17 -14 23 -51 24
-64 0z"/>
<path d="M1792 4004 c-7 -8 -8 -14 -3 -14 10 0 25 19 20 25 -2 1 -10 -3 -17
-11z"/>
<path d="M4962 4004 c10 -10 20 -16 22 -13 3 3 -5 11 -17 18 -21 13 -21 12 -5
-5z"/>
<path d="M1817 3995 c-8 -18 6 -27 29 -18 13 5 15 3 9 -7 -5 -9 -4 -11 4 -6
17 11 2 28 -20 21 -14 -5 -17 -3 -13 9 3 9 4 16 1 16 -3 0 -7 -7 -10 -15z"/>
<path d="M1860 3999 c8 -5 24 -14 35 -20 18 -9 19 -9 3 4 -10 8 -16 16 -13 18
2 3 -6 6 -18 6 -17 2 -19 0 -7 -8z"/>
<path d="M2187 3999 c7 -7 15 -10 18 -7 3 3 -2 9 -12 12 -14 6 -15 5 -6 -5z"/>
<path d="M4515 4000 c-3 -5 -1 -10 4 -10 6 0 11 5 11 10 0 6 -2 10 -4 10 -3 0
-8 -4 -11 -10z"/>
<path d="M1995 3990 c-3 -5 -3 -10 1 -10 4 0 -1 -10 -12 -22 -19 -23 -19 -23
2 -5 11 9 21 24 21 32 0 18 -3 19 -12 5z"/>
<path d="M2029 3983 c-13 -16 -12 -17 4 -4 9 7 17 15 17 17 0 8 -8 3 -21 -13z"/>
<path d="M1750 3980 c0 -5 5 -10 10 -10 6 0 10 5 10 10 0 6 -4 10 -10 10 -5 0
-10 -4 -10 -10z"/>
<path d="M1955 3981 c-3 -5 0 -13 6 -17 7 -4 9 -3 5 4 -3 5 0 13 6 15 9 4 10
6 1 6 -6 1 -14 -3 -18 -8z"/>
<path d="M2110 3979 c0 -5 5 -7 10 -4 6 3 10 8 10 11 0 2 -4 4 -10 4 -5 0 -10
-5 -10 -11z"/>
<path d="M4719 3973 c-13 -16 -12 -17 4 -4 16 13 21 21 13 21 -2 0 -10 -8 -17
-17z"/>
<path d="M1643 3957 c0 -15 0 -27 1 -25 1 2 8 12 16 22 8 11 10 17 3 13 -6 -4
-13 -1 -16 5 -2 7 -4 0 -4 -15z"/>
<path d="M4783 3964 c9 -11 14 -23 11 -26 -3 -3 -1 -8 4 -12 18 -11 8 25 -12
41 -21 18 -21 18 -3 -3z"/>
<path d="M4990 3965 c0 -8 4 -15 10 -15 5 0 7 7 4 15 -4 8 -8 15 -10 15 -2 0
-4 -7 -4 -15z"/>
<path d="M1676 3953 c-6 -14 -5 -15 5 -6 7 7 10 15 7 18 -3 3 -9 -2 -12 -12z"/>
<path d="M1795 3960 c27 -12 43 -12 25 0 -8 5 -22 9 -30 9 -10 0 -8 -3 5 -9z"/>
<path d="M1876 3962 c-3 -5 1 -9 9 -9 8 0 12 4 9 9 -3 4 -7 8 -9 8 -2 0 -6 -4
-9 -8z"/>
<path d="M4665 3960 c-3 -6 1 -7 9 -4 18 7 21 14 7 14 -6 0 -13 -4 -16 -10z"/>
<path d="M4753 3953 c0 -11 7 -20 14 -20 10 0 10 4 1 16 -7 9 -13 18 -15 20
-1 2 -1 -5 0 -16z"/>
<path d="M4870 3959 c0 -5 5 -7 10 -4 6 3 10 8 10 11 0 2 -4 4 -10 4 -5 0 -10
-5 -10 -11z"/>
<path d="M4904 3955 c-18 -15 -18 -15 0 -8 13 4 17 3 12 -5 -5 -8 -1 -10 10
-5 11 4 13 8 6 11 -7 2 -10 8 -6 13 8 13 1 11 -22 -6z"/>
<path d="M5028 3953 c6 -2 10 -9 7 -14 -4 -5 1 -6 10 -2 13 5 14 7 3 14 -7 5
-17 8 -23 8 -5 0 -4 -3 3 -6z"/>
<path d="M1696 3943 c-7 -8 13 -33 27 -33 6 0 2 7 -9 15 -19 15 -19 16 1 13
11 -2 24 -7 28 -13 5 -6 7 -4 5 4 -4 15 -41 25 -52 14z"/>
<path d="M1855 3940 c6 -10 3 -12 -11 -7 -18 7 -18 6 -2 -6 10 -8 16 -17 13
-20 -3 -4 -2 -5 2 -2 12 9 12 34 1 42 -7 4 -8 1 -3 -7z"/>
<path d="M1999 3933 c-13 -16 -12 -17 4 -4 9 7 17 15 17 17 0 8 -8 3 -21 -13z"/>
<path d="M2130 3940 c0 -5 5 -10 11 -10 5 0 7 5 4 10 -3 6 -8 10 -11 10 -2 0
-4 -4 -4 -10z"/>
<path d="M4828 3943 c7 -3 16 -2 19 1 4 3 -2 6 -13 5 -11 0 -14 -3 -6 -6z"/>
<path d="M4965 3939 c-5 -8 -5 -11 0 -7 4 4 13 0 20 -9 13 -17 35 -10 35 10 0
7 -4 6 -10 -3 -8 -13 -11 -12 -23 4 -11 16 -15 16 -22 5z"/>
<path d="M1886 3923 c-6 -14 -5 -15 5 -6 7 7 10 15 7 18 -3 3 -9 -2 -12 -12z"/>
<path d="M1935 3930 c-4 -6 -12 -7 -18 -4 -7 4 -9 4 -5 -1 4 -4 3 -13 -2 -20
-7 -8 -5 -12 5 -12 8 0 13 3 10 5 -3 3 2 14 12 24 9 10 13 18 10 18 -3 0 -9
-5 -12 -10z"/>
<path d="M4855 3930 c-4 -6 -12 -7 -18 -4 -7 4 -9 4 -5 -1 4 -4 2 -15 -5 -24
-10 -14 -10 -14 5 -3 9 8 21 11 25 9 5 -3 9 3 9 14 0 22 -2 23 -11 9z"/>
<path d="M1665 3920 c3 -5 8 -10 11 -10 2 0 4 5 4 10 0 6 -5 10 -11 10 -5 0
-7 -4 -4 -10z"/>
<path d="M1776 3922 c-3 -5 1 -9 9 -9 8 0 15 4 15 9 0 4 -4 8 -9 8 -6 0 -12
-4 -15 -8z"/>
<path d="M2046 3918 c3 -5 10 -6 15 -3 13 9 11 12 -6 12 -8 0 -12 -4 -9 -9z"/>
<path d="M4930 3920 c0 -5 5 -10 10 -10 6 0 10 5 10 10 0 6 -4 10 -10 10 -5 0
-10 -4 -10 -10z"/>
<path d="M1664 3896 c11 -9 23 -16 27 -16 14 0 19 19 8 26 -8 4 -9 3 -5 -4 9
-15 1 -15 -27 -1 -21 10 -21 10 -3 -5z"/>
<path d="M1795 3900 c-16 -7 -17 -9 -3 -9 9 -1 20 4 23 9 7 11 7 11 -20 0z"/>
<path d="M2074 3902 c4 -3 14 -7 22 -8 9 -1 13 0 10 4 -4 3 -14 7 -22 8 -9 1
-13 0 -10 -4z"/>
<path d="M5015 3901 c-3 -6 4 -15 16 -21 12 -7 19 -8 15 -2 -3 6 0 13 6 16 7
3 2 3 -11 0 -16 -4 -21 -3 -17 5 4 6 5 11 2 11 -3 0 -7 -4 -11 -9z"/>
<path d="M4941 3896 c2 -2 15 -9 29 -15 24 -11 24 -11 6 3 -16 13 -49 24 -35
12z"/>
<path d="M1735 3879 c-6 -8 -4 -10 5 -4 10 6 12 4 6 -11 -6 -15 -5 -17 5 -6 9
9 10 15 2 23 -8 8 -13 7 -18 -2z"/>
<path d="M1830 3879 c0 -5 5 -7 10 -4 6 3 10 8 10 11 0 2 -4 4 -10 4 -5 0 -10
-5 -10 -11z"/>
<path d="M4605 3880 c-3 -6 1 -7 9 -4 18 7 21 14 7 14 -6 0 -13 -4 -16 -10z"/>
<path d="M4840 3885 c0 -2 6 -8 13 -14 10 -8 14 -7 14 2 0 8 -6 14 -14 14 -7
0 -13 -1 -13 -2z"/>
<path d="M1796 3867 c3 -10 9 -15 12 -12 3 3 0 11 -7 18 -10 9 -11 8 -5 -6z"/>
<path d="M1907 3859 c7 -7 15 -10 18 -7 3 3 -2 9 -12 12 -14 6 -15 5 -6 -5z"/>
<path d="M1947 3859 c7 -7 15 -10 18 -7 3 3 -2 9 -12 12 -14 6 -15 5 -6 -5z"/>
<path d="M2015 3860 c3 -5 8 -10 11 -10 2 0 4 5 4 10 0 6 -5 10 -11 10 -5 0
-7 -4 -4 -10z"/>
<path d="M4646 3862 c-3 -5 1 -9 9 -9 8 0 12 4 9 9 -3 4 -7 8 -9 8 -2 0 -6 -4
-9 -8z"/>
<path d="M4940 3866 c0 -2 9 -6 20 -9 11 -3 18 -1 14 4 -5 9 -34 13 -34 5z"/>
<path d="M1715 3849 c-4 -6 -5 -12 -2 -15 2 -3 7 2 10 11 7 17 1 20 -8 4z"/>
<path d="M4896 3847 c3 -10 9 -15 12 -12 3 3 0 11 -7 18 -10 9 -11 8 -5 -6z"/>
<path d="M1870 3841 c0 -6 4 -13 10 -16 6 -3 7 1 4 9 -7 18 -14 21 -14 7z"/>
<path d="M4516 3838 c3 -5 10 -6 15 -3 13 9 11 12 -6 12 -8 0 -12 -4 -9 -9z"/>
<path d="M4939 3833 c-13 -16 -12 -17 4 -4 16 13 21 21 13 21 -2 0 -10 -8 -17
-17z"/>
<path d="M1666 3823 c-6 -14 -5 -15 5 -6 7 7 10 15 7 18 -3 3 -9 -2 -12 -12z"/>
<path d="M1996 3813 c-6 -14 -5 -15 5 -6 7 7 10 15 7 18 -3 3 -9 -2 -12 -12z"/>
<path d="M4675 3819 c-3 -4 2 -6 10 -5 21 3 28 13 10 13 -9 0 -18 -4 -20 -8z"/>
<path d="M4992 3811 c7 -9 13 -18 15 -20 1 -2 1 5 0 16 0 11 -7 20 -14 20 -10
0 -10 -4 -1 -16z"/>
<path d="M5029 3817 c6 -8 7 -18 3 -22 -4 -5 -1 -5 6 -1 10 6 10 11 1 22 -6 8
-14 14 -16 14 -3 0 0 -6 6 -13z"/>
<path d="M1690 3816 c0 -2 8 -10 18 -17 15 -13 16 -12 3 4 -13 16 -21 21 -21
13z"/>
<path d="M1816 3807 c3 -10 9 -15 12 -12 3 3 0 11 -7 18 -10 9 -11 8 -5 -6z"/>
<path d="M1745 3800 c-3 -6 1 -7 9 -4 18 7 21 14 7 14 -6 0 -13 -4 -16 -10z"/>
<path d="M1870 3799 c0 -5 5 -7 10 -4 6 3 10 8 10 11 0 2 -4 4 -10 4 -5 0 -10
-5 -10 -11z"/>
<path d="M1939 3808 c-5 -18 -6 -38 -1 -34 7 8 12 36 6 36 -2 0 -4 -1 -5 -2z"/>
<path d="M4813 3791 c0 -11 5 -18 9 -15 4 3 5 11 1 19 -7 21 -12 19 -10 -4z"/>
<path d="M4935 3799 c-3 -4 2 -6 10 -5 21 3 28 13 10 13 -9 0 -18 -4 -20 -8z"/>
<path d="M1666 3778 c3 -4 9 -8 15 -8 5 0 9 4 9 8 0 5 -7 9 -15 9 -8 0 -12 -4
-9 -9z"/>
<path d="M4736 3778 c3 -4 11 -5 19 -1 21 7 19 12 -4 10 -11 0 -18 -5 -15 -9z"/>
<path d="M4850 3779 c0 -5 5 -7 10 -4 6 3 10 8 10 11 0 2 -4 4 -10 4 -5 0 -10
-5 -10 -11z"/>
<path d="M4973 3745 c0 -8 4 -12 9 -9 5 3 6 10 3 15 -9 13 -12 11 -12 -6z"/>
<path d="M1856 3742 c-2 -4 -1 -14 4 -22 7 -11 9 -9 7 8 -1 24 -3 26 -11 14z"/>
<path d="M4854 3736 c1 -8 5 -18 8 -22 4 -3 5 1 4 10 -1 8 -5 18 -8 22 -4 3
-5 -1 -4 -10z"/>
<path d="M1739 3728 c-5 -18 -6 -38 -1 -34 7 8 12 36 6 36 -2 0 -4 -1 -5 -2z"/>
<path d="M4795 3711 c-3 -5 -2 -12 3 -15 5 -3 9 1 9 9 0 17 -3 19 -12 6z"/>
<path d="M4975 3700 c3 -5 8 -10 11 -10 2 0 4 5 4 10 0 6 -5 10 -11 10 -5 0
-7 -4 -4 -10z"/>
<path d="M1676 3687 c3 -10 9 -15 12 -12 3 3 0 11 -7 18 -10 9 -11 8 -5 -6z"/>
<path d="M5019 3668 c-5 -18 -6 -38 -1 -34 7 8 12 36 6 36 -2 0 -4 -1 -5 -2z"/>
<path d="M2030 614 c-84 -19 -136 -63 -176 -149 -28 -61 -42 -165 -22 -166 7
0 702 -1 1543 -1 l1530 -1 -2 46 c0 25 -9 61 -19 79 -33 59 -110 125 -191 165
l-78 37 -1268 1 c-884 0 -1283 -3 -1317 -11z"/>
</g>
</svg>
