<svg width="16" height="20" viewBox="0 0 16 20" fill="none" xmlns="http://www.w3.org/2000/svg">
<g id="Group 27">
<path id="Vector" d="M8.40512 8.97776C8.40512 8.61544 8.11136 8.32169 7.74902 8.32169C7.38668 8.32169 7.09292 8.61544 7.09292 8.97776H8.40512ZM7.09292 18.6729C7.09292 19.0353 7.38668 19.329 7.74902 19.329C8.11136 19.329 8.40512 19.0353 8.40512 18.6729H7.09292ZM5.67089 4.17607C5.35723 4.35752 5.25005 4.75888 5.43149 5.07253C5.61293 5.38619 6.01429 5.49337 6.3279 5.31193L5.67089 4.17607ZM9.17014 5.31193C9.48375 5.49337 9.88511 5.38619 10.0665 5.07253C10.248 4.75888 10.1408 4.35752 9.82711 4.17607L9.17014 5.31193ZM3.87446 2.21094C3.57725 2.41825 3.50438 2.82722 3.71168 3.12442C3.91899 3.42162 4.32797 3.4945 4.62516 3.2872L3.87446 2.21094ZM10.8729 3.2872C11.1701 3.4945 11.5791 3.42162 11.7863 3.12442C11.9937 2.82722 11.9208 2.41825 11.6236 2.21094L10.8729 3.2872ZM7.09292 8.97776V18.6729H8.40512V8.97776H7.09292ZM2.07467 7.56013C3.59217 7.72684 5.54893 8.17065 6.90151 9.0921L7.64028 8.00765C6.02041 6.90406 3.80549 6.43018 2.21797 6.25577L2.07467 7.56013ZM2.07467 18.0118C3.59217 18.1785 5.54893 18.6224 6.90151 19.5438L7.64028 18.4593C6.02041 17.3557 3.80549 16.8819 2.21797 16.7074L2.07467 18.0118ZM0.0944977 8.21698V15.8815H1.4067V8.21698H0.0944977ZM2.21797 16.7074C1.73991 16.6549 1.4067 16.2756 1.4067 15.8815H0.0944977C0.0944977 17.0267 1.01601 17.8955 2.07467 18.0118L2.21797 16.7074ZM2.21797 6.25577C1.02025 6.12419 0.0944977 7.09903 0.0944977 8.21698H1.4067C1.4067 7.79565 1.73565 7.52289 2.07467 7.56013L2.21797 6.25577ZM13.28 6.25577C11.6925 6.43018 9.47763 6.90406 7.85776 8.00765L8.59653 9.0921C9.94915 8.17065 11.9059 7.72684 13.4233 7.56013L13.28 6.25577ZM13.28 16.7074C11.6925 16.8819 9.47763 17.3557 7.85776 18.4593L8.59653 19.5438C9.94915 18.6224 11.9059 18.1785 13.4233 18.0118L13.28 16.7074ZM14.0913 8.21698V15.8815H15.4035V8.21698H14.0913ZM13.4233 18.0118C14.482 17.8955 15.4035 17.0267 15.4035 15.8815H14.0913C14.0913 16.2756 13.7581 16.6549 13.28 16.7074L13.4233 18.0118ZM13.4233 7.56013C13.7624 7.52289 14.0913 7.79565 14.0913 8.21698H15.4035C15.4035 7.09903 14.4778 6.12419 13.28 6.25577L13.4233 7.56013ZM6.90151 19.5438C7.41003 19.8902 8.08801 19.8902 8.59653 19.5438L7.85776 18.4593C7.79495 18.5021 7.70309 18.5021 7.64028 18.4593L6.90151 19.5438ZM6.90151 9.0921C7.41003 9.43852 8.08801 9.43852 8.59653 9.0921L7.85776 8.00765C7.79495 8.05042 7.70309 8.05042 7.64028 8.00765L6.90151 9.0921ZM6.3279 5.31193C6.74545 5.07041 7.23009 4.93197 7.74902 4.93197V3.61977C6.99328 3.61977 6.28276 3.82214 5.67089 4.17607L6.3279 5.31193ZM7.74902 4.93197C8.26795 4.93197 8.75259 5.07041 9.17014 5.31193L9.82711 4.17607C9.21528 3.82214 8.50476 3.61977 7.74902 3.61977V4.93197ZM4.62516 3.2872C5.51051 2.66965 6.5865 2.30757 7.74902 2.30757V0.995361C6.30945 0.995361 4.97287 1.44477 3.87446 2.21094L4.62516 3.2872ZM7.74902 2.30757C8.91155 2.30757 9.98755 2.66965 10.8729 3.2872L11.6236 2.21094C10.5252 1.44477 9.1886 0.995361 7.74902 0.995361V2.30757Z" fill="#F26224"/>
</g>
</svg>
