<svg width="113" height="123" viewBox="0 0 113 123" fill="none" xmlns="http://www.w3.org/2000/svg">
<path d="M71.9939 104.285H40.9715C39.9328 104.285 39.0855 103.44 39.0855 102.403C39.0855 101.367 39.9328 100.521 40.9715 100.521H71.9939C73.0326 100.521 73.8799 101.367 73.8799 102.403C73.8799 103.449 73.0326 104.285 71.9939 104.285Z" fill="#414042"/>
<path d="M69.1696 110.613H43.7959C42.7572 110.613 41.9099 109.768 41.9099 108.731C41.9099 107.695 42.7572 106.849 43.7959 106.849H69.1696C70.2082 106.849 71.0555 107.695 71.0555 108.731C71.0555 109.768 70.2082 110.613 69.1696 110.613Z" fill="#414042"/>
<path d="M85.6146 55.0429C85.6146 59.8526 84.4302 64.7441 82.0523 68.9446C78.4626 75.2726 75.4105 85.792 74.0439 92.9565C73.8343 94.0294 73.6065 95.2477 73.2239 96.4024H39.7324C39.2586 94.9295 39.0035 93.3384 38.7575 92.0201C37.8282 86.9831 35.7783 78.4275 33.4915 73.8633C32.0702 71.0448 30.3938 68.3445 29.264 65.3896C27.9976 62.0892 27.3599 58.5706 27.3599 55.0429C27.3599 38.9865 40.3975 25.9758 56.4873 25.9758C72.5679 25.9758 85.6146 38.9865 85.6146 55.0429Z" fill="#F26224"/>
<path d="M73.2239 98.2845H39.7324C38.9124 98.2845 38.1927 97.7571 37.9376 96.9843C37.4911 95.6114 37.236 94.1931 37.0083 92.9475C36.9718 92.7474 36.9354 92.5474 36.8989 92.3565C36.0881 87.9469 34.0928 79.2731 31.7969 74.6998C31.3504 73.8088 30.8584 72.8996 30.3847 72.0268C29.3552 70.1266 28.2983 68.1627 27.4874 66.0534C26.139 62.5348 25.4557 58.8252 25.4557 55.0339C25.4557 37.9682 39.368 24.0847 56.469 24.0847C73.5701 24.0847 87.4824 37.9682 87.4824 55.0339C87.4824 60.3436 86.1613 65.4715 83.674 69.8629C80.2301 75.9273 77.2236 86.2649 75.8752 93.3021C75.6747 94.3658 75.4196 95.6933 75.0005 96.9752C74.7636 97.7662 74.0348 98.2845 73.2239 98.2845ZM41.1628 94.5295H71.7844C71.9393 93.8749 72.0668 93.2202 72.1853 92.6111C73.6339 85.0283 76.7407 74.4907 80.4123 68.0172C82.5534 64.244 83.7287 59.6344 83.7287 55.043C83.7287 40.0503 71.5019 27.8579 56.4873 27.8579C41.4635 27.8579 29.2458 40.0593 29.2458 55.043C29.2458 58.3797 29.8471 61.6346 31.0315 64.7168C31.7513 66.5989 32.7079 68.3718 33.7192 70.2448C34.2021 71.1449 34.7123 72.0723 35.1861 73.0178C37.6734 77.9639 39.7688 87.074 40.6253 91.6746C40.6617 91.8746 40.6981 92.0746 40.7346 92.2838C40.8439 93.002 40.9897 93.7657 41.1628 94.5295Z" fill="#414042"/>
<path d="M77.4422 55.0703C76.4309 55.0703 75.5927 54.2702 75.5563 53.2519C75.1918 42.1142 63.0471 36.9409 62.9195 36.8954C61.9629 36.4954 61.5073 35.3953 61.8991 34.4406C62.3 33.4859 63.3933 33.0223 64.359 33.4223C64.5048 33.4859 68.0307 34.9498 71.6204 38.0592C76.4673 42.2597 79.1368 47.4694 79.319 53.1337C79.3555 54.1702 78.5355 55.0431 77.4969 55.0794C77.4878 55.0703 77.4696 55.0703 77.4422 55.0703Z" fill="#414042"/>
<path d="M68.96 113.768C68.96 118.551 63.3751 122.433 56.4873 122.433C49.5995 122.433 44.0145 118.551 44.0145 113.768C44.0145 113.759 44.0145 113.75 44.0145 113.741H68.96C68.96 113.75 68.96 113.759 68.96 113.768Z" fill="#414042"/>
<path d="M56.4781 19.3841C55.5397 19.3841 54.7835 18.6295 54.7835 17.693V1.69111C54.7835 0.754635 55.5397 0 56.4781 0C57.4166 0 58.1728 0.754635 58.1728 1.69111V17.693C58.1728 18.6295 57.4166 19.3841 56.4781 19.3841Z" fill="#414042"/>
<path d="M111.271 54.5609H95.2357C94.2973 54.5609 93.5411 53.8063 93.5411 52.8698C93.5411 51.9333 94.2973 51.1787 95.2357 51.1787H111.271C112.209 51.1787 112.965 51.9333 112.965 52.8698C112.965 53.8063 112.209 54.5609 111.271 54.5609Z" fill="#414042"/>
<path d="M17.7297 54.5609H1.69462C0.756198 54.5609 0 53.8063 0 52.8698C0 51.9333 0.756198 51.1787 1.69462 51.1787H17.7297C18.6681 51.1787 19.4243 51.9333 19.4243 52.8698C19.4152 53.8063 18.659 54.5609 17.7297 54.5609Z" fill="#414042"/>
<path d="M25.2735 31.6855C24.9091 31.6855 24.5446 31.5674 24.2349 31.331L11.589 21.4843C10.851 20.9115 10.7235 19.8478 11.2975 19.1113C11.8714 18.3749 12.9374 18.2476 13.6754 18.8204L26.3212 28.667C27.0592 29.2398 27.1868 30.3036 26.6128 31.04C26.2757 31.4673 25.7746 31.6855 25.2735 31.6855Z" fill="#414042"/>
<path d="M86.1704 31.6855C85.6693 31.6855 85.1682 31.4582 84.8311 31.04C84.2571 30.3036 84.3847 29.2398 85.1227 28.667L97.7685 18.8204C98.5065 18.2476 99.5634 18.3749 100.146 19.1113C100.72 19.8478 100.593 20.9115 99.8549 21.4843L87.209 31.331C86.8993 31.5674 86.5349 31.6855 86.1704 31.6855Z" fill="#414042"/>
<path d="M101.185 86.8286C100.821 86.8286 100.456 86.7104 100.146 86.474L87.5006 76.6274C86.7626 76.0546 86.6351 74.9908 87.2091 74.2544C87.783 73.5179 88.849 73.3906 89.587 73.9634L102.233 83.8101C102.971 84.3829 103.098 85.4466 102.524 86.1831C102.187 86.6104 101.686 86.8286 101.185 86.8286Z" fill="#414042"/>
<path d="M11.1061 86.8286C10.605 86.8286 10.1039 86.6013 9.76683 86.1831C9.19285 85.4466 9.32039 84.3829 10.0584 83.8101L22.7042 73.9634C23.4422 73.3906 24.5082 73.5179 25.0822 74.2544C25.6562 74.9908 25.5286 76.0546 24.7906 76.6274L12.1448 86.474C11.835 86.7104 11.4706 86.8286 11.1061 86.8286Z" fill="#414042"/>
<g style="mix-blend-mode:overlay" opacity="0.6">
<path d="M83.7651 54.961C83.7651 59.5615 82.6354 64.2439 80.3577 68.2535C76.9229 74.3087 74.0074 84.3736 72.6955 91.2289C72.495 92.2563 72.2764 93.4201 71.921 94.5293H68.6685C69.0238 93.4292 69.2516 92.2654 69.452 91.2289C70.764 84.3736 73.6794 74.3087 77.1142 68.2535C79.3919 64.2348 80.5217 59.5615 80.5217 54.961C80.5217 40.1501 68.632 28.9124 54 28.0669C54.5375 28.0396 55.3211 27.9214 55.8677 27.9214C71.2559 27.9214 83.7651 39.6046 83.7651 54.961Z" fill="#F2C33D"/>
</g>
</svg>
