<svg width="20" height="21" viewBox="0 0 20 21" fill="none" xmlns="http://www.w3.org/2000/svg">
<g id="Group 26">
<g id="Group">
<g id="Group_2">
<path id="Vector" d="M17.611 2.63474H15.835V2.11312C15.835 1.49679 15.3336 0.995361 14.7172 0.995361C14.1009 0.995361 13.5995 1.49679 13.5995 2.11312V2.63474H7.34002V2.11312C7.34002 1.49679 6.83859 0.995361 6.22226 0.995361C5.60593 0.995361 5.1045 1.49679 5.1045 2.11312V2.64853C5.07283 2.63977 5.03963 2.63474 5.00517 2.63474H3.52063C2.49341 2.63474 1.6577 3.47046 1.6577 4.49768V10.8441C1.6577 11.0498 1.82454 11.2166 2.03029 11.2166C2.23603 11.2166 2.40287 11.0498 2.40287 10.8441V6.47239H15.835C16.0407 6.47239 16.2076 6.30558 16.2076 6.0998C16.2076 5.89402 16.0407 5.72721 15.835 5.72721H2.40287V4.49768C2.40287 3.88134 2.9043 3.37992 3.52063 3.37992H5.00517C5.03963 3.37992 5.07283 3.37485 5.1045 3.36613V3.84565C5.1045 4.46198 5.60593 4.96341 6.22226 4.96341C6.83859 4.96341 7.34002 4.46198 7.34002 3.84565V3.37992H13.5995V3.84565C13.5995 4.46198 14.1009 4.96341 14.7172 4.96341C15.3336 4.96341 15.835 4.46198 15.835 3.84565V3.37992H17.611C18.2273 3.37992 18.7288 3.88134 18.7288 4.49768V18.6558C18.7288 19.0257 18.4278 19.3266 18.0579 19.3266C17.6879 19.3266 17.387 19.0257 17.387 18.6558V17.6919C17.387 17.4861 17.2202 17.3193 17.0144 17.3193H12.6805C12.4747 17.3193 12.3079 17.4861 12.3079 17.6919C12.3079 17.8977 12.4747 18.0645 12.6805 18.0645H16.6418V18.6558C16.6418 18.8983 16.7032 19.1268 16.8112 19.3266H1.81333C1.44354 19.3266 1.14267 19.0258 1.14267 18.656V18.0645H9.4821C9.68784 18.0645 9.85468 17.8977 9.85468 17.6919C9.85468 17.4861 9.68784 17.3193 9.4821 17.3193H5.75936C6.41042 16.7586 6.82384 15.9292 6.82384 15.0046C6.82384 13.32 5.45328 11.9494 3.76863 11.9494C2.08398 11.9494 0.713415 13.32 0.713415 15.0046C0.713415 15.9292 1.12684 16.7586 1.7779 17.3193H0.770086C0.564343 17.3193 0.397499 17.4861 0.397499 17.6919V18.656C0.397499 19.4367 1.03265 20.0718 1.81333 20.0718H18.0579C18.8387 20.0718 19.4739 19.4366 19.4739 18.6558V4.49768C19.4739 3.47046 18.6382 2.63474 17.611 2.63474ZM6.59485 3.84565C6.59485 4.05109 6.4277 4.21824 6.22226 4.21824C6.01682 4.21824 5.84967 4.05109 5.84967 3.84565V2.11312C5.84967 1.90768 6.01682 1.74053 6.22226 1.74053C6.4277 1.74053 6.59485 1.90768 6.59485 2.11312V3.84565ZM15.0898 3.84565C15.0898 4.05109 14.9227 4.21824 14.7172 4.21824C14.5118 4.21824 14.3447 4.05109 14.3447 3.84565V2.11312C14.3447 1.90768 14.5118 1.74053 14.7172 1.74053C14.9227 1.74053 15.0898 1.90768 15.0898 2.11312V3.84565ZM1.45859 15.0046C1.45859 13.7309 2.49486 12.6946 3.76863 12.6946C5.04239 12.6946 6.07867 13.7309 6.07867 15.0046C6.07867 16.2784 5.04239 17.3147 3.76863 17.3147C2.49486 17.3147 1.45859 16.2784 1.45859 15.0046Z" fill="#F26224"/>
</g>
</g>
<g id="Group_3">
<g id="Group_4">
<path id="Vector_2" d="M17.8465 5.83646C17.7772 5.76716 17.6811 5.72729 17.5831 5.72729C17.4851 5.72729 17.389 5.76716 17.3197 5.83646C17.2504 5.90576 17.2105 6.00189 17.2105 6.09988C17.2105 6.19787 17.2503 6.294 17.3197 6.3633C17.389 6.4326 17.4851 6.47247 17.5831 6.47247C17.6811 6.47247 17.7772 6.4326 17.8465 6.3633C17.9158 6.294 17.9557 6.19787 17.9557 6.09988C17.9557 6.00189 17.9158 5.90576 17.8465 5.83646Z" fill="#F26224"/>
</g>
</g>
<g id="Group_5">
<g id="Group_6">
<path id="Vector_3" d="M11.5245 17.4286C11.4552 17.3593 11.3591 17.3198 11.2611 17.3198C11.1631 17.3198 11.067 17.3593 10.9977 17.4286C10.9284 17.4983 10.8885 17.594 10.8885 17.692C10.8885 17.7904 10.9284 17.8862 10.9977 17.9558C11.067 18.0251 11.1631 18.0646 11.2611 18.0646C11.3591 18.0646 11.4552 18.0251 11.5245 17.9558C11.5938 17.8862 11.6337 17.79 11.6337 17.692C11.6337 17.594 11.5938 17.4983 11.5245 17.4286Z" fill="#F26224"/>
</g>
</g>
<g id="Group_7">
<g id="Group_8">
<path id="Vector_4" d="M8.82733 12.322C8.04665 12.322 7.4115 12.9572 7.4115 13.7379C7.4115 14.5185 8.04665 15.1537 8.82733 15.1537C9.60801 15.1537 10.2432 14.5185 10.2432 13.7379C10.2432 12.9572 9.60801 12.322 8.82733 12.322ZM8.82733 14.4085C8.45754 14.4085 8.15667 14.1076 8.15667 13.7379C8.15667 13.3681 8.45754 13.0672 8.82733 13.0672C9.19712 13.0672 9.49799 13.3681 9.49799 13.7379C9.49799 14.1076 9.19712 14.4085 8.82733 14.4085Z" fill="#F26224"/>
</g>
</g>
<g id="Group_9">
<g id="Group_10">
<path id="Vector_5" d="M12.3044 12.322C11.5237 12.322 10.8885 12.9572 10.8885 13.7379C10.8885 14.5185 11.5237 15.1537 12.3044 15.1537C13.085 15.1537 13.7202 14.5185 13.7202 13.7379C13.7202 12.9572 13.085 12.322 12.3044 12.322ZM12.3044 14.4085C11.9346 14.4085 11.6337 14.1076 11.6337 13.7379C11.6337 13.3681 11.9346 13.0672 12.3044 13.0672C12.6741 13.0672 12.975 13.3681 12.975 13.7379C12.975 14.1076 12.6741 14.4085 12.3044 14.4085Z" fill="#F26224"/>
</g>
</g>
<g id="Group_11">
<g id="Group_12">
<path id="Vector_6" d="M15.7823 12.322C15.0016 12.322 14.3664 12.9572 14.3664 13.7379C14.3664 14.5185 15.0016 15.1537 15.7823 15.1537C16.563 15.1537 17.1981 14.5185 17.1981 13.7379C17.1981 12.9572 16.563 12.322 15.7823 12.322ZM15.7823 14.4085C15.4125 14.4085 15.1116 14.1076 15.1116 13.7379C15.1116 13.3681 15.4125 13.0672 15.7823 13.0672C16.1521 13.0672 16.4529 13.3681 16.4529 13.7379C16.4529 14.1076 16.1521 14.4085 15.7823 14.4085Z" fill="#F26224"/>
</g>
</g>
<g id="Group_13">
<g id="Group_14">
<path id="Vector_7" d="M5.34986 8.44702C4.56918 8.44702 3.93403 9.08217 3.93403 9.86285C3.93403 10.6435 4.56918 11.2787 5.34986 11.2787C6.13054 11.2787 6.76569 10.6435 6.76569 9.86285C6.76569 9.08217 6.13054 8.44702 5.34986 8.44702ZM5.34986 10.5335C4.98007 10.5335 4.6792 10.2326 4.6792 9.86285C4.6792 9.49306 4.98007 9.1922 5.34986 9.1922C5.71965 9.1922 6.02051 9.49306 6.02051 9.86285C6.02051 10.2326 5.71965 10.5335 5.34986 10.5335Z" fill="#F26224"/>
</g>
</g>
<g id="Group_15">
<g id="Group_16">
<path id="Vector_8" d="M12.3044 8.44702C11.5237 8.44702 10.8885 9.08217 10.8885 9.86285C10.8885 10.6435 11.5237 11.2787 12.3044 11.2787C13.085 11.2787 13.7202 10.6435 13.7202 9.86285C13.7202 9.08217 13.085 8.44702 12.3044 8.44702ZM12.3044 10.5335C11.9346 10.5335 11.6337 10.2326 11.6337 9.86285C11.6337 9.49306 11.9346 9.1922 12.3044 9.1922C12.6741 9.1922 12.975 9.49306 12.975 9.86285C12.975 10.2326 12.6741 10.5335 12.3044 10.5335Z" fill="#F26224"/>
</g>
</g>
<g id="Group_17">
<g id="Group_18">
<path id="Vector_9" d="M15.7823 8.44702C15.0016 8.44702 14.3664 9.08217 14.3664 9.86285C14.3664 10.6435 15.0016 11.2787 15.7823 11.2787C16.563 11.2787 17.1981 10.6435 17.1981 9.86285C17.1981 9.08217 16.563 8.44702 15.7823 8.44702ZM15.7823 10.5335C15.4125 10.5335 15.1116 10.2326 15.1116 9.86285C15.1116 9.49306 15.4125 9.1922 15.7823 9.1922C16.1521 9.1922 16.4529 9.49306 16.4529 9.86285C16.4529 10.2326 16.1521 10.5335 15.7823 10.5335Z" fill="#F26224"/>
</g>
</g>
<g id="Group_19">
<g id="Group_20">
<path id="Vector_10" d="M8.82733 8.44702C8.04665 8.44702 7.4115 9.08217 7.4115 9.86285C7.4115 10.6435 8.04665 11.2787 8.82733 11.2787C9.60801 11.2787 10.2432 10.6435 10.2432 9.86285C10.2432 9.08217 9.60801 8.44702 8.82733 8.44702ZM8.82733 10.5335C8.45754 10.5335 8.15667 10.2326 8.15667 9.86285C8.15667 9.49306 8.45754 9.1922 8.82733 9.1922C9.19712 9.1922 9.49799 9.49306 9.49799 9.86285C9.49799 10.2326 9.19712 10.5335 8.82733 10.5335Z" fill="#F26224"/>
</g>
</g>
<g id="Group_21">
<g id="Group_22">
<path id="Vector_11" d="M5.09586 14.0962C4.95033 13.9507 4.71448 13.9507 4.56891 14.0962L3.35555 15.3096L2.9409 14.8949C2.79536 14.7494 2.55952 14.7494 2.41395 14.8949C2.26845 15.0404 2.26845 15.2764 2.41395 15.4219L3.09209 16.1C3.16199 16.1698 3.25674 16.2091 3.35555 16.2091C3.45436 16.2091 3.54911 16.1698 3.619 16.1L5.09586 14.6231C5.24136 14.4776 5.24136 14.2417 5.09586 14.0962Z" fill="#F26224"/>
</g>
</g>
</g>
</svg>
