<svg width="113" height="77" viewBox="0 0 113 77" fill="none" xmlns="http://www.w3.org/2000/svg">
<path d="M18.1304 3.6517V0.834717H14.6158V3.6517H11.8042V6.82081H14.6158V9.63779H18.1304V6.82081H20.9421V3.6517H18.1304Z" fill="#F26224"/>
<path d="M88.7731 8.22922V5.41223H85.2585V8.22922H82.7983V11.3983H85.2585V14.2153H88.7731V11.3983H91.5847V8.22922H88.7731Z" fill="#F26224"/>
<path d="M37.1092 60.6957V58.9351H33.5947V60.6957H31.8374V64.2169H33.5947V66.3296H37.1092V64.2169H38.8665V60.6957H37.1092Z" fill="#F26224"/>
<path d="M98.9653 17.7366H62.4138H51.5187H14.2643C6.53227 17.7366 0.206055 24.0748 0.206055 31.8215C0.206055 39.5682 6.53227 45.9064 14.2643 45.9064H46.5983V76.5411L53.6274 72.6678L60.6566 76.5411V66.6817L66.2798 69.8508V45.9064H98.6138C106.346 45.9064 112.672 39.5682 112.672 31.8215C113.024 24.0748 106.697 17.7366 98.9653 17.7366ZM3.72062 31.8215C3.72062 25.8354 8.64101 20.9057 14.2643 20.9057C20.2391 20.9057 24.808 25.8354 24.808 31.4694C24.808 31.8215 24.808 32.5257 24.808 32.8779H7.23518L7.93809 34.9906C8.64101 38.1597 10.0468 40.2724 12.507 42.0331C7.58664 41.6809 3.72062 37.1033 3.72062 31.8215ZM18.4818 41.6809C15.3187 40.6246 13.2099 39.2161 12.1556 36.7512H24.1051C24.1051 36.7512 24.1051 37.1033 23.7536 37.1033C23.7536 37.1033 23.7536 37.4555 23.4022 37.4555C23.0507 37.8076 22.6993 38.5118 22.3478 38.864C21.2934 40.2724 19.5362 41.3288 18.4818 41.6809ZM46.5983 42.7373H23.4022C23.7536 42.3852 24.4565 41.6809 24.808 41.3288L25.1595 40.9767C25.8624 40.2724 26.2138 39.5682 26.5653 38.864C26.9167 37.8076 27.6197 37.1033 27.6197 36.047V35.6948C28.3226 34.2864 28.3226 33.23 28.3226 31.8215C28.3226 27.596 26.5653 23.7227 23.4022 21.2578H51.1672C55.0332 21.2578 58.1964 26.1875 58.1964 31.8215C58.1964 37.4555 55.0332 42.3852 51.1672 42.3852L46.5983 42.7373ZM57.4934 64.9211V70.555L53.9789 68.4423L50.4643 70.555V45.9064H51.8701H57.8449L57.4934 64.9211ZM60.6566 62.8083V45.9064H62.0624H63.1167V64.2168L60.6566 62.8083ZM67.6857 31.8215C67.6857 38.1597 64.874 42.3852 62.4138 42.3852H61.008H58.1964C58.5478 42.0331 58.5478 41.6809 58.8993 41.3288C60.6566 38.864 61.7109 35.3427 61.7109 31.4694C61.7109 27.9481 60.6566 24.4269 58.8993 21.6099C58.5478 21.2578 58.5478 20.9057 58.1964 20.5536H62.4138C64.874 20.9057 67.6857 25.4833 67.6857 31.8215ZM109.509 31.8215C109.509 37.8076 104.589 42.3852 98.9653 42.3852H68.0371C69.7944 39.9203 70.8488 36.047 70.8488 31.8215C70.8488 27.596 69.7944 23.7227 68.0371 21.2578H98.9653C104.94 20.9057 109.509 25.8354 109.509 31.8215Z" fill="#F26224"/>
</svg>
