<svg width="124" height="123" viewBox="0 0 124 123" fill="none" xmlns="http://www.w3.org/2000/svg">
<path d="M99.6047 23.2784L101.213 12.57L110.72 2.96317L111.097 8.34299L110.755 7.37804L110.327 3.37306L113.664 0L114.366 8.37715L99.6047 23.2784Z" fill="#414042"/>
<path d="M115.547 9.54712L100.786 24.4484L111.499 22.7234L115.281 18.9063L119.457 14.6878L120.612 13.5179L121.126 13.0056L123.95 10.1534L115.547 9.54712Z" fill="#414042"/>
<path d="M51.8903 90.381C46.525 90.381 41.4848 88.2974 37.6855 84.5145C33.8947 80.7315 31.8068 75.6933 31.8068 70.3391C31.8068 64.9849 33.8947 59.9552 37.6855 56.1637C41.4763 52.3807 46.525 50.2971 51.8903 50.2971C55.8522 50.2971 59.6944 51.4499 62.9803 53.6275C63.9644 54.285 64.2382 55.6086 63.5793 56.5907C62.9204 57.5727 61.594 57.8459 60.61 57.1884C58.0257 55.4805 55.0136 54.5754 51.8903 54.5754C43.1792 54.5754 36.0939 61.646 36.0939 70.3391C36.0939 79.0322 43.1792 86.1028 51.8903 86.1028C60.6014 86.1028 67.6867 79.0322 67.6867 70.3391C67.6867 68.3579 67.3273 66.428 66.6085 64.6091C66.1807 63.5076 66.7197 62.2693 67.8236 61.8338C68.9275 61.4069 70.1683 61.9449 70.6047 63.0464C71.5117 65.3691 71.9738 67.82 71.9738 70.3391C71.9738 75.6933 69.8859 80.723 66.0951 84.5145C62.3043 88.2974 57.2556 90.381 51.8903 90.381Z" fill="#414042"/>
<path d="M51.8903 107.263C46.8929 107.263 42.0496 106.29 37.4887 104.36C33.0817 102.498 29.1284 99.8427 25.7312 96.4526C22.334 93.0625 19.6642 89.1087 17.7988 84.7109C15.8649 80.1594 14.8893 75.3261 14.8893 70.3391C14.8893 65.3521 15.8649 60.5188 17.7988 55.9673C19.6642 51.5696 22.3255 47.6244 25.7226 44.2342C29.1198 40.8441 33.0732 38.1798 37.4801 36.3267C42.041 34.3968 46.8844 33.4233 51.8817 33.4233C56.2116 33.4233 60.4474 34.1663 64.4863 35.618C68.3884 37.027 71.9995 39.0679 75.2255 41.698C76.1411 42.4409 76.278 43.7902 75.5335 44.7039C74.7891 45.6176 73.4371 45.7542 72.5214 45.0113C66.7197 40.2976 59.3863 37.7016 51.8903 37.7016C33.8519 37.7016 19.185 52.3466 19.185 70.3477C19.185 88.3487 33.8604 102.985 51.8903 102.985C69.9286 102.985 84.6041 88.3402 84.6041 70.3477C84.6041 63.9944 82.7729 57.8375 79.3072 52.5345C78.6569 51.5439 78.9393 50.2203 79.9319 49.5713C80.9245 48.9223 82.2509 49.2041 82.9012 50.1947C86.8204 56.1894 88.8912 63.1575 88.8912 70.3391C88.8912 75.3261 87.9157 80.1594 85.9818 84.7109C84.1163 89.1087 81.4551 93.0539 78.0579 96.4441C74.6607 99.8342 70.7073 102.498 66.3004 104.352C61.7309 106.281 56.8876 107.263 51.8903 107.263Z" fill="#414042"/>
<path d="M51.8903 122.122C44.882 122.122 38.0877 120.756 31.687 118.049C25.5087 115.444 19.9552 111.704 15.1974 106.956C10.4311 102.2 6.69166 96.666 4.07318 90.5005C1.36914 84.1131 0 77.3328 0 70.339C0 63.3453 1.36914 56.565 4.08174 50.1775C6.69166 44.0121 10.4397 38.47 15.206 33.7136C19.9723 28.9571 25.5173 25.2254 31.6955 22.6124C38.0962 19.9139 44.8906 18.5391 51.8988 18.5391C58.2482 18.5391 64.4521 19.6748 70.3394 21.9036C76.0213 24.064 81.2497 27.1809 85.862 31.1688C86.7605 31.9459 86.8546 33.2951 86.0759 34.1832C85.2972 35.0799 83.9452 35.1738 83.0553 34.3967C74.4126 26.9247 63.3482 22.8088 51.8988 22.8088C25.6456 22.8344 4.28711 44.1487 4.28711 70.339C4.28711 96.5379 25.6456 117.844 51.8903 117.844C78.1435 117.844 99.4935 96.5293 99.4935 70.339C99.4935 60.0234 96.2332 50.2117 90.0721 41.9712C89.3618 41.0233 89.5587 39.6826 90.5085 38.9738C91.4583 38.2651 92.8018 38.4615 93.512 39.4093C96.7809 43.7815 99.3223 48.6148 101.068 53.7641C102.874 59.0926 103.781 64.6689 103.781 70.339C103.781 77.3328 102.411 84.1131 99.6988 90.5005C97.0889 96.666 93.3409 102.208 88.5746 106.956C83.8083 111.712 78.2633 115.444 72.0765 118.049C65.6929 120.756 58.8986 122.122 51.8903 122.122Z" fill="#414042"/>
<path d="M51.9502 85.1036C60.1544 85.1036 66.8053 78.4665 66.8053 70.2792C66.8053 62.0919 60.1544 55.4548 51.9502 55.4548C43.7459 55.4548 37.095 62.0919 37.095 70.2792C37.095 78.4665 43.7459 85.1036 51.9502 85.1036Z" fill="#F26224"/>
<path d="M52.8401 73.8829C52.3524 73.8829 51.856 73.695 51.4795 73.3278C50.7179 72.5763 50.718 71.3637 51.4624 70.6037L114.46 7.01088C115.213 6.25087 116.428 6.25087 117.19 6.9938C117.951 7.74527 117.951 8.95786 117.207 9.71787L54.2092 73.3107C53.8327 73.695 53.3364 73.8829 52.8401 73.8829Z" fill="#414042"/>
</svg>
