<svg width="94" height="94" viewBox="0 0 94 94" fill="none" xmlns="http://www.w3.org/2000/svg">
<path d="M67.3723 15.7383H66.0691C57.9893 15.7383 50.6914 19.3796 45.7392 25.3617V21.7204H47.8244C49.9095 21.7204 51.734 19.8998 51.734 17.8191C51.734 17.0388 51.4733 16.5186 51.2126 15.7383L43.3935 2.73381C42.6116 1.43336 41.3084 0.653076 39.7446 0.653076C38.1807 0.653076 36.8776 1.43336 36.0956 2.73381L28.2765 15.7383C28.0158 16.2585 27.7552 17.0388 27.7552 17.8191C27.7552 19.8998 29.5796 21.7204 31.6647 21.7204H33.7498V42.5276H39.7446C39.7446 45.3886 40.2659 48.2496 41.3084 50.8505L24.6275 67.4963L15.7658 59.9537L0.909424 74.7788V87.2632H57.2073C58.7711 90.9044 62.4201 93.2453 66.5903 93.2453C72.3244 93.2453 77.0159 88.5636 77.0159 82.8417V81.021C78.8403 80.5008 79.8829 78.6802 79.8829 76.8596C79.8829 76.0793 79.6222 75.299 79.3616 74.7788C80.6648 73.9986 81.4467 72.6981 81.4467 71.1376C81.4467 69.8371 80.9254 68.7968 79.8829 67.7564C79.8829 66.4559 80.6648 65.1555 81.7074 64.1152L84.5744 61.5142C90.0478 56.5725 93.4361 49.29 93.4361 42.0075C93.6968 27.4424 81.968 15.7383 67.3723 15.7383ZM31.6647 18.5993C31.1435 18.5993 30.8829 18.3392 30.8829 17.8191C30.8829 17.559 30.8829 17.559 30.8829 17.2989L38.702 4.29437C39.2233 3.51409 40.2658 3.51409 40.7871 4.29437L48.6063 17.2989C48.6063 17.559 48.6063 17.559 48.6063 17.8191C48.6063 18.3392 48.3457 18.5993 47.8244 18.5993H42.6116V29.7832C41.0478 32.6442 40.0052 36.0254 39.7446 39.6666H36.8775V18.8594H31.6647V18.5993ZM45.7392 58.3931V84.1421H39.7446V56.3124L42.6116 53.4514C43.6542 55.2721 44.6967 56.8326 45.7392 58.3931ZM36.8775 84.1421H30.8829V65.4156L36.8775 59.4335V84.1421ZM24.8881 71.3977L27.7552 68.5367V84.4022H21.7605V69.0569L24.8881 71.3977ZM16.0264 63.855L18.8935 66.1958V84.1421H12.8987V66.9761L16.0264 63.855ZM4.03704 75.8192L10.0318 69.8371V84.1421H4.03704V75.8192ZM48.8669 84.1421V61.5142L51.734 63.855C52.7765 64.6353 53.2977 65.9358 53.5584 67.4963C52.7765 68.2766 51.9945 69.577 51.9945 70.8775C51.9945 72.438 52.7765 73.7385 54.0797 74.5188C53.819 75.299 53.5584 75.8192 53.5584 76.5995C53.5584 78.4201 54.8616 80.2407 56.4254 80.7609V82.5815C56.4254 83.1017 56.4254 83.6219 56.4254 84.1421H48.8669ZM78.5797 70.8775C78.5797 71.6577 77.7978 72.438 77.0159 72.438H75.452H57.7286H56.1648C55.3828 72.438 54.6009 71.6577 54.6009 70.8775C54.6009 70.0972 55.3828 69.317 56.1648 69.317H77.0159C78.0584 69.317 78.5797 70.0972 78.5797 70.8775ZM66.851 90.1242C62.6807 90.1242 59.2925 86.743 59.2925 82.5815V81.021H74.1488V82.5815C74.1488 86.743 70.7605 90.1242 66.851 90.1242ZM75.7127 78.16H57.7286C56.9467 78.16 56.1648 77.3797 56.1648 76.5995C56.1648 75.8192 56.9467 75.0389 57.7286 75.0389H75.7127C76.4946 75.0389 77.2765 75.8192 77.2765 76.5995C77.2765 77.6398 76.4946 78.16 75.7127 78.16ZM82.7499 59.1734L79.8829 61.7743C78.5797 63.0748 77.5371 64.6353 77.2765 66.4559C77.2765 66.4559 77.2765 66.4559 77.0159 66.4559H56.1648C56.1648 66.4559 56.1647 66.4559 55.9041 66.4559C55.6435 64.6353 54.6009 63.0748 53.2977 61.7743L50.4308 59.1734C45.4786 54.7519 42.6116 48.5097 42.6116 41.7474C42.6116 29.0029 53.0371 18.5993 65.8084 18.5993H67.1116C79.8829 18.5993 90.3084 29.0029 90.3084 41.7474C90.5691 48.5097 87.7021 54.7519 82.7499 59.1734Z" fill="#2E3B81"/>
<path d="M84.5745 42.5276C84.5745 43.5679 84.314 44.3482 84.314 45.3886L87.1809 45.9088C87.4416 44.8684 87.4416 43.828 87.4416 42.7877L84.5745 42.5276Z" fill="#2E3B81"/>
<path d="M78.8405 54.7519L75.9735 57.3528C75.1916 58.1331 74.6703 58.6533 73.8884 59.4336L76.2342 61.2542C76.7554 60.734 77.2767 59.9537 77.798 59.4336L80.665 56.8327C83.0107 54.7519 85.0958 51.8909 86.1384 48.7698L83.2714 47.7295C82.4894 50.5905 80.9257 52.9313 78.8405 54.7519Z" fill="#2E3B81"/>
<path d="M45.7393 40.967L48.6063 41.2271C48.6063 40.1868 48.867 39.4065 48.867 38.3661L45.9999 37.8459C45.9999 38.8863 45.9999 39.9267 45.7393 40.967Z" fill="#2E3B81"/>
<path d="M66.8511 24.5814V21.7205H66.0692C57.7288 21.7205 50.1702 26.9223 47.3032 34.4649L50.1703 35.5053C52.7766 29.003 59.2926 24.5814 66.3298 24.5814H66.8511Z" fill="#2E3B81"/>
<path d="M72.8459 37.846C72.8459 34.985 71.0215 32.9043 68.4151 32.124V29.0029H65.5481V32.124C62.9417 32.6442 61.1172 34.985 61.1172 37.846C61.1172 40.4469 62.681 42.5276 65.0268 43.3079L68.1545 44.3482C69.197 44.6083 69.979 45.9088 69.979 46.9492C69.979 48.5097 68.6758 49.8102 67.1119 49.8102H66.8513C65.2874 49.8102 63.9842 48.5097 63.9842 46.9492V45.3886H61.1172V46.9492C61.1172 49.8101 62.9417 51.8909 65.5481 52.6711V55.7922H68.4151V52.6711C71.0215 52.1509 72.8459 49.8101 72.8459 46.9492C72.8459 44.3482 71.2821 42.2675 68.9363 41.4872L65.8087 40.4469C64.7662 40.1868 63.9842 38.8863 63.9842 37.846C63.9842 36.2854 65.2874 34.985 66.8513 34.985H67.1119C68.6758 34.985 69.979 36.2854 69.979 37.846V38.1061L72.8459 37.846Z" fill="#2E3B81"/>
<path d="M10.8139 36.5456H12.899V57.3528H24.8883V36.5456H26.9735C29.0586 36.5456 30.8831 34.725 30.8831 32.6443C30.8831 31.864 30.6224 31.3438 30.3618 30.5635L22.5426 17.559C21.7607 16.2586 20.4575 15.4783 18.8937 15.4783C17.3299 15.4783 16.0267 16.2586 15.2448 17.559L7.42561 30.5635C7.16497 31.0837 6.9043 31.864 6.9043 32.6443C6.9043 34.725 8.72877 36.5456 10.8139 36.5456ZM10.032 32.3841L17.8512 19.3796C18.3724 18.5994 19.415 18.5994 19.9362 19.3796L27.7554 32.3841C27.7554 32.6442 27.7554 32.6443 27.7554 32.9044C27.7554 33.4245 27.4948 33.6846 26.9735 33.6846H21.7607V54.4918H16.0266V33.6846H10.8139C10.2926 33.6846 10.032 33.4245 10.032 32.9044C10.032 32.6443 10.032 32.3841 10.032 32.3841Z" fill="#2E3B81"/>
</svg>
