<svg width="43" height="72" viewBox="0 0 43 72" fill="none" xmlns="http://www.w3.org/2000/svg">
<path fill-rule="evenodd" clip-rule="evenodd" d="M0 13.9875C0 6.24973 6.16484 0 13.7975 0H28.7692C36.4019 0 42.5667 6.24973 42.5667 13.9875C42.5667 18.154 40.8053 22.0229 37.8697 24.7013L25.54 35.7128L37.8697 46.7242C40.8053 49.4027 42.5667 53.2715 42.5667 57.438C42.5667 65.1758 36.4019 71.4255 28.7692 71.4255H13.7975C6.16484 71.4255 0 65.1758 0 57.438C0 53.2715 1.76138 49.4027 4.69702 46.7242L20.843 33.3319L34.6405 20.8324C36.6955 19.0468 37.8697 16.3684 37.8697 13.6899C37.8697 8.63058 33.7598 4.4641 28.7692 4.4641H13.7975C8.80691 4.7617 4.69702 8.92819 4.69702 13.9875C4.69702 16.666 5.87127 19.3444 7.92622 21.1301L14.9717 27.6774C15.8524 28.5702 16.146 30.0582 15.2653 30.9511C14.3846 31.8439 12.9168 32.1415 12.0361 31.2487L4.69702 24.7013C1.76138 22.0229 0 18.154 0 13.9875ZM21.7237 38.9864L7.63265 50.5931C7.33909 50.8907 7.04553 51.1883 6.75196 51.4859H35.2276C34.9341 51.1883 34.6405 50.8907 34.3469 50.5931L21.7237 38.9864Z" fill="#313A81"/>
</svg>
