<svg width="108" height="125" viewBox="0 0 108 125" fill="none" xmlns="http://www.w3.org/2000/svg">
<path d="M2.71582 93.543C1.35792 93.543 0 92.5188 0 90.8118V12.9731C0 5.80376 5.77112 0 12.9001 0H43.7925C45.1504 0 46.5084 1.02419 46.5084 2.73118C46.5084 4.43817 45.4899 5.46237 43.7925 5.46237H12.9001C8.48693 5.46237 5.09215 8.87634 5.09215 13.3145V91.1532C5.43163 92.1774 4.41321 93.543 2.71582 93.543Z" fill="#F26224"/>
<path d="M90.6404 103.785H59.748C58.3901 103.785 57.0322 102.761 57.0322 101.054C57.0322 99.6881 58.0507 98.3225 59.748 98.3225H88.2641V82.9596H13.2397C8.82653 82.9596 5.43175 86.3736 5.43175 90.8118C5.43175 95.2499 8.82653 98.6639 13.2397 98.6639H33.9478C35.3057 98.6639 36.6636 99.6881 36.6636 101.395C36.6636 102.761 35.6452 104.126 33.9478 104.126H13.2397C6.11072 104.126 0.3396 98.3225 0.3396 91.1532C0.3396 83.9838 6.11072 78.1801 13.2397 78.1801H90.6404C91.9984 78.1801 93.3562 79.2042 93.3562 80.9112V101.737C93.0167 102.761 91.9984 103.785 90.6404 103.785Z" fill="#F26224"/>
<path d="M59.7479 124.61C59.0689 124.61 58.7294 124.269 58.0505 123.927L46.8477 114.71L35.645 123.927C34.966 124.61 33.9477 124.61 32.9292 124.269C31.9108 123.927 31.5713 122.903 31.5713 121.879V90.8119C31.5713 89.4463 32.5897 88.0807 34.2871 88.0807C35.645 88.0807 37.0029 89.1049 37.0029 90.8119V116.417L45.8293 109.247C46.8477 108.565 48.2056 108.565 49.2241 109.247L58.0505 116.417V90.8119C58.0505 89.4463 59.0689 88.0807 60.7663 88.0807C62.1242 88.0807 63.4821 89.1049 63.4821 90.8119V121.879C63.4821 122.903 62.8032 123.927 62.1242 124.269C60.4268 124.61 60.0874 124.61 59.7479 124.61Z" fill="#F26224"/>
<path d="M69.9324 93.5431H23.4241C22.0662 93.5431 20.7083 92.5189 20.7083 90.8119C20.7083 89.4463 21.7267 88.0807 23.4241 88.0807H69.9324C71.2903 88.0807 72.6482 89.1049 72.6482 90.8119C72.6482 92.1775 71.2903 93.5431 69.9324 93.5431Z" fill="#F26224"/>
<path d="M74.0059 67.5968C55.3347 67.5968 40.3977 52.5753 40.3977 33.7984C40.3977 15.0215 55.3347 0 74.0059 0C92.6771 0 107.614 15.0215 107.614 33.7984C107.614 52.5753 92.3376 67.5968 74.0059 67.5968ZM74.0059 5.46237C58.39 5.46237 45.4899 18.4355 45.4899 34.1398C45.4899 49.8441 58.39 62.8172 74.0059 62.8172C89.6218 62.8172 102.522 49.8441 102.522 34.1398C102.522 18.4355 89.6218 5.46237 74.0059 5.46237Z" fill="#F26224"/>
<path d="M84.1903 49.5027C83.5113 49.5027 82.8324 49.1613 82.4929 48.8199L72.3086 38.578C71.9691 38.2366 71.6296 37.5538 71.6296 36.871V18.4355C71.6296 17.0699 72.6481 15.7043 74.3455 15.7043C75.7034 15.7043 77.0613 16.7285 77.0613 18.4355V35.5054L86.5666 45.0646C87.585 46.0888 87.585 47.7957 86.5666 48.8199C85.5482 49.1613 84.8692 49.5027 84.1903 49.5027Z" fill="#F26224"/>
</svg>
