<svg width="476" height="101" viewBox="0 0 476 101" fill="none" xmlns="http://www.w3.org/2000/svg">
<path d="M336.204 95.1898V81.702C344.889 86.0574 354.406 88.43 364.089 88.6534C376.755 88.6534 384.517 83.1545 384.517 74.543C384.517 65.9315 379.819 64.1678 370.115 60.9514L358.573 57.7351C343.661 53.3775 336 44.6622 336 32.1081C336 17.064 347.44 7 365.825 7C375.21 7.134 384.477 9.14352 393.097 12.9139V25.9868C384.67 21.6248 375.383 19.2487 365.928 19.0353C355.713 19.0353 349.176 23.9117 349.176 31.1744C349.176 38.4371 353.671 41.5497 363.783 44.8698L375.325 48.1899C390.033 52.5475 398 61.0552 398 73.9205C398 90.106 385.232 101 364.395 101C354.713 100.975 345.131 99.0005 336.204 95.1898Z" fill="#F26224"/>
<path d="M0 98V7H56V17.9365H10.9723V43.8333H47.8225V54.1508H10.9723V86.5476H56V97.4841L0 98Z" fill="#283B8F"/>
<path d="M115.177 0H126V98.3257H115.177V87.1925C112.988 90.9769 109.908 94.1577 106.209 96.4528C102.28 98.8926 97.7302 100.122 93.1186 99.9904C88.5898 100.053 84.0974 99.1671 79.9247 97.3892C75.8627 95.5817 72.1603 93.0432 68.9986 89.8977C65.958 86.9029 63.4786 83.378 61.6802 79.4929C59.9112 75.2433 59 70.6802 59 66.0707C59 61.4612 59.9112 56.898 61.6802 52.6484C63.4213 48.5459 65.9029 44.806 68.9986 41.6193C72.1382 38.4731 75.8475 35.9651 79.9247 34.2319C84.0899 32.4183 88.5826 31.4971 93.1186 31.5266C97.7302 31.395 102.28 32.6244 106.209 35.0643C109.889 37.4274 112.962 40.6364 115.177 44.4286V0ZM93.2216 89.3775C97.3431 89.5607 101.417 88.4325 104.869 86.152C108.055 84.0145 110.589 81.0243 112.188 77.516C113.888 73.7421 114.768 69.6443 114.768 65.4984C114.768 61.3525 113.888 57.2548 112.188 53.4808C110.533 50.009 108.011 47.0324 104.869 44.8448C101.529 42.7545 97.6667 41.6715 93.737 41.7234C89.6306 41.6669 85.5924 42.7852 82.0893 44.9489C78.701 47.0483 75.8985 49.9847 73.9463 53.4808C71.8818 57.1595 70.8152 61.3227 70.854 65.5504C70.7694 69.7837 71.8391 73.959 73.9463 77.62C75.9955 81.1461 78.9055 84.0834 82.3986 86.152C85.7323 88.1821 89.5352 89.2943 93.4278 89.3775H93.2216Z" fill="#283B8F"/>
<path d="M135 73.6542V33H146.032V71.0615C146.052 74.1961 146.88 77.2707 148.435 79.9792C149.989 82.6876 152.215 84.9353 154.892 86.4985C157.568 88.0616 160.601 88.8856 163.688 88.8883C166.776 88.8911 169.81 88.0726 172.489 86.5142C175.104 84.9513 177.283 82.7385 178.823 80.0842C180.385 77.3436 181.196 74.2281 181.172 71.0615V33H192V98.3371H181.07V90.0404C178.801 93.1009 175.864 95.5859 172.489 97.3C168.988 99.1382 165.092 100.065 161.151 99.9965C156.556 100.062 152.032 98.8421 148.075 96.4703C144.17 94.1494 140.903 90.8683 138.575 86.9291C136.223 82.9139 134.987 78.326 135 73.6542Z" fill="#283B8F"/>
<path d="M202 97.9997V7.00364H232.925C237.178 6.93307 241.385 7.8885 245.192 9.7892C248.847 11.5798 251.92 14.3699 254.057 17.8365C256.291 21.6445 257.4 26.0094 257.252 30.4232C257.277 33.0288 256.823 35.6167 255.912 38.0578C255.15 40.3795 253.922 42.5211 252.304 44.3512C250.912 45.987 249.091 47.2018 247.047 47.859C249.652 48.504 252.059 49.7794 254.057 51.5731C255.913 53.3458 257.478 55.4 258.696 57.6602C259.86 60.0195 260.725 62.5148 261.273 65.0884C261.763 67.499 262.004 69.9536 261.994 72.4135C262.094 77.0772 260.917 81.6794 258.592 85.7224C256.416 89.4656 253.286 92.5631 249.521 94.6983C245.691 96.8828 241.354 98.0214 236.945 97.9997H202ZM212.927 43.8354H232.306C236.07 43.9461 239.741 42.6599 242.615 40.2244C244.096 38.9715 245.254 37.3796 245.989 35.5836C246.725 33.7876 247.017 31.8405 246.841 29.9074C246.992 27.9767 246.688 26.0375 245.954 24.2457C245.22 22.4539 244.076 20.8594 242.615 19.5904C239.694 17.2624 236.038 16.0551 232.306 16.1858H212.927V43.8354ZM212.927 88.4049H236.327C239.212 88.4116 242.039 87.588 244.47 86.032C246.951 84.4916 248.978 82.3198 250.346 79.7386C251.855 76.9523 252.635 73.829 252.614 70.6596C252.594 67.6918 251.813 64.7788 250.346 62.1997C248.957 59.578 246.938 57.344 244.47 55.6999C242.069 54.0681 239.229 53.2047 236.327 53.2239H212.927V88.4049Z" fill="#F26224"/>
<path d="M270 98V7H325V17.9365H280.166V43.8333H316.46V54.1508H280.166V86.5476H324.39V97.4841L270 98Z" fill="#F26224"/>
<path d="M476 7V17.9365H445.575V98H434.321V17.9365H404V7H476Z" fill="#F26224"/>
</svg>
