<svg width="96" height="87" viewBox="0 0 96 87" fill="none" xmlns="http://www.w3.org/2000/svg">
<path d="M94.1757 44.7601H80.1013V40.8588C80.1013 39.0381 78.5374 37.4776 76.7129 37.4776H74.1065C72.8033 31.4955 69.9363 26.0336 65.5055 21.8722C58.2076 14.5896 47.5214 11.2085 37.3565 13.0291C36.3139 13.2892 35.7927 14.0694 35.7927 15.1098C36.0533 16.1502 36.8352 16.6703 37.8778 16.6703C47.0001 15.1098 56.1225 17.9708 62.6384 24.4731C66.2874 28.1143 68.8937 32.5359 69.9363 37.4776H59.7714C57.9469 37.4776 56.3831 39.0381 56.3831 40.8588V44.7601H42.3087C41.2661 44.7601 40.4842 45.5404 40.4842 46.5807V58.0247C40.4842 59.8454 41.2661 61.4059 42.3087 62.4463V72.0696C35.0108 72.0696 28.2341 68.9485 23.0213 64.0068C16.2447 57.2445 13.3777 47.8812 15.4628 38.5179C15.7235 37.4776 14.9416 36.4372 13.899 36.4372C12.8564 36.1771 11.8139 36.9574 11.8139 37.9978C9.72881 48.4014 12.8564 59.3252 20.415 66.6077C26.149 72.3297 34.2289 75.7109 42.3087 75.971V82.7333C42.3087 82.9934 42.3087 82.9934 42.3087 83.2535C20.9363 82.9934 3.73411 65.5674 3.73411 44.2399C3.73411 37.4776 5.55856 30.9753 8.68622 25.2533L14.9416 31.4955C15.2023 31.7556 15.7235 32.0157 16.2448 32.0157H27.9735L39.4416 43.4597C39.7023 43.7198 40.2235 43.9798 40.7448 43.9798C41.2661 43.9798 41.7874 43.7198 42.048 43.4597C42.8299 42.6794 42.8299 41.639 42.048 40.8588L30.5799 29.4148V17.7107C30.5799 17.1905 30.3193 16.6704 30.0586 16.4103L23.8033 10.1681C29.5374 7.047 36.0533 5.22639 42.8299 5.22639C57.9469 5.22639 71.7608 14.0694 78.2768 27.8542C78.5374 28.6345 79.3193 28.8946 80.1013 28.8946C80.3619 28.8946 80.6225 28.8946 80.8831 28.6345C81.9257 28.1143 82.1863 27.074 81.665 26.0336C78.2767 18.7511 72.8033 12.5089 66.2874 8.08738C59.2501 3.66584 51.1703 1.06492 43.0905 1.06492C35.532 1.06492 27.9735 3.14565 21.4576 7.04701L15.9842 1.58512C15.4629 1.06494 14.6809 0.804833 13.899 1.06492C13.1171 1.32501 12.8565 2.1053 12.8565 2.88557V13.5493H2.17026C1.38834 13.5493 0.606476 14.0695 0.345838 14.5896C0.0851991 15.3699 0.0851513 16.1502 0.867067 16.6703L6.34049 22.1323C2.43091 28.6345 0.345838 36.1771 0.345838 43.7198C0.345838 55.1637 4.77666 65.8274 12.8565 73.8902C20.9363 81.953 31.6225 86.3746 43.0905 86.3746H90.0055C92.3512 86.3746 94.1757 84.5539 94.1757 82.2131V62.1862C95.2183 60.8857 96.0002 59.3252 96.0002 57.7646V46.3207C96.0002 45.8005 95.2183 44.7601 94.1757 44.7601ZM16.766 8.08738L27.4522 18.7511V26.0336L16.766 15.3699V8.08738ZM14.1597 17.7107L24.8458 28.3744H17.548L6.8618 17.7107H14.1597ZM60.5534 41.3789H76.4523V45.0202H60.5534V41.3789ZM90.5268 74.1503H78.2768C77.2342 74.1503 76.4523 74.9306 76.4523 75.971C76.4523 77.0113 77.2342 77.7916 78.2768 77.7916H90.5268V82.4732C90.5268 82.7333 90.2661 82.9934 90.0055 82.9934H49.3459H47.0001C46.7395 82.9934 46.4788 82.7333 46.4788 82.4732V64.527C46.7395 64.527 47.2608 64.527 47.5214 64.527H62.8991C63.1597 67.388 65.5055 69.4687 68.3725 69.4687C71.2395 69.4687 73.5852 67.388 73.8459 64.527H89.2236C89.4843 64.527 90.0055 64.527 90.2662 64.527L90.5268 74.1503ZM66.8087 64.0068V60.6256H70.4576V64.0068C70.4576 65.0472 69.6757 65.8274 68.6331 65.8274C67.5905 65.8274 66.8087 65.0472 66.8087 64.0068ZM92.3512 58.0247C92.3512 58.805 92.0906 59.5853 91.5694 60.1055C91.0481 60.6256 90.2661 60.8857 89.4842 60.8857H74.1065V59.0651C74.1065 57.7646 73.064 56.7243 71.7608 56.7243H64.9842C63.681 56.7243 62.6384 57.7646 62.6384 59.0651V60.8857H47.2608C45.697 60.8857 44.3937 59.5853 44.3937 58.0247V48.6615H92.0906L92.3512 58.0247Z" fill="#2E3B81"/>
</svg>
