<svg width="96" height="76" viewBox="0 0 96 76" fill="none" xmlns="http://www.w3.org/2000/svg">
<path d="M94.3513 15.2807L48.4789 0.455566C48.2182 0.455566 47.697 0.455566 47.4363 0.455566L1.56394 15.2807C0.782019 15.5408 0.260742 16.3211 0.260742 17.1014C0.260742 17.8816 0.782019 18.6619 1.56394 18.922L23.7182 26.2045V39.4691C23.7182 39.9893 23.9789 40.7696 24.5001 41.0297C25.0214 41.2898 36.2289 48.8324 47.9576 48.8324C59.6863 48.8324 70.8938 41.2898 71.4151 41.0297C71.9364 40.7696 72.197 39.9893 72.197 39.4691V26.2045L79.7555 23.8637V41.81C77.6704 42.5902 76.1066 44.671 76.1066 47.0118C76.1066 49.3526 77.4098 51.1732 79.4949 52.2136L74.2821 72.7607C74.0215 74.0611 74.8034 75.1015 76.1066 75.1015H87.314C88.6172 75.1015 89.3992 74.0611 89.1385 72.7607L83.9257 52.2136C86.0109 51.4333 87.314 49.3526 87.314 47.0118C87.314 44.671 85.7502 42.5902 83.6651 41.81V22.5632L94.6119 18.922C95.3938 18.6619 95.9151 17.8816 95.9151 17.1014C95.6545 16.3211 95.1332 15.5408 94.3513 15.2807ZM78.1917 71.2001L81.3194 58.4557L84.447 71.2001H78.1917ZM68.2874 38.4288C65.681 39.9893 56.5587 44.931 47.697 44.931C38.8353 44.931 29.9735 39.9893 27.1065 38.4288V27.2449L47.1757 33.7471C47.4363 33.7471 47.9576 33.7471 48.2182 33.7471L68.2874 27.2449V38.4288ZM47.697 30.1059C42.2236 28.2853 14.3352 19.1821 7.81926 17.1014L47.697 4.09686L87.5747 17.1014C83.6651 18.4018 49.5214 29.5857 47.697 30.1059Z" fill="#2E3B81"/>
</svg>
