<svg width="96" height="87" viewBox="0 0 96 87" fill="none" xmlns="http://www.w3.org/2000/svg">
<path d="M94.0905 84.2536H87.5746V57.9845C87.5746 57.2042 87.0533 56.684 86.2714 56.684C85.4895 56.684 84.9682 57.2042 84.9682 57.9845V84.2536H74.0214V38.2176C74.0214 37.9575 74.282 37.6974 74.5426 37.6974H84.4469C84.7076 37.6974 84.9682 37.9575 84.9682 38.2176V52.5226C84.9682 53.3028 85.4895 53.823 86.2714 53.823C87.0533 53.823 87.5746 53.3028 87.5746 52.5226V38.2176C87.5746 36.397 86.0107 34.8364 84.1863 34.8364H74.282C72.4575 34.8364 70.8937 36.397 70.8937 38.2176V84.2536H66.2022V48.3611C66.2022 46.5405 64.6384 44.9799 62.8139 44.9799H52.9096C51.0852 44.9799 49.5213 46.5405 49.5213 48.3611V84.2536H44.8298V58.5046C44.8298 56.684 43.266 55.1235 41.4415 55.1235H31.5373C29.7128 55.1235 28.149 56.684 28.149 58.5046V70.7289C28.149 71.5092 28.6702 72.0293 29.4522 72.0293C30.2341 72.0293 30.7554 71.5092 30.7554 70.7289V58.5046C30.7554 58.2446 31.016 57.9845 31.2766 57.9845H41.1809C41.4415 57.9845 41.7022 58.2446 41.7022 58.5046V84.2536H30.7554V76.4509C30.7554 75.6706 30.2341 75.1504 29.4522 75.1504C28.6702 75.1504 28.149 75.6706 28.149 76.4509V84.2536H24.5V68.6482C24.5 66.8275 22.9362 65.267 21.1117 65.267H11.2075C9.38299 65.267 7.81916 66.8275 7.81916 68.6482V84.2536H1.30319C0.521277 84.2536 0 84.7738 0 85.5541C0 86.3343 0.521277 86.8545 1.30319 86.8545H94.0905C94.8725 86.8545 95.3937 86.3343 95.3937 85.5541C95.6544 85.0339 94.8725 84.2536 94.0905 84.2536ZM52.9096 48.3611C52.9096 48.101 53.1703 47.8409 53.4309 47.8409H63.3352C63.5958 47.8409 63.8565 48.101 63.8565 48.3611V84.2536H52.9096V48.3611ZM10.6862 68.9083C10.6862 68.6482 10.9468 68.3881 11.2075 68.3881H21.1117C21.3724 68.3881 21.633 68.6482 21.633 68.9083V84.5137H10.6862V68.9083Z" fill="#2E3B81"/>
<path d="M14.8564 48.8813C15.1171 48.8813 15.1171 48.8813 14.8564 48.8813C25.5426 48.101 35.1862 46.0203 44.048 42.1189C56.0373 37.1772 65.9416 29.6346 73.2395 19.7512L77.931 23.1323C78.9735 23.9126 80.2767 22.8722 80.0161 21.8319L77.931 2.3251C77.931 1.54483 76.8884 0.76456 76.1065 1.02465L57.0799 5.96635C56.0373 6.22644 55.7767 7.78698 56.5586 8.56726L61.2501 11.9484C60.2076 13.509 58.1224 16.37 54.4735 20.0112C53.9522 20.5314 53.9522 21.5718 54.4735 22.092C54.9948 22.6121 56.0373 22.6121 56.5586 22.092C62.2927 16.6301 64.3778 12.4686 64.3778 12.2085C64.6384 11.6883 64.3778 10.9081 63.8565 10.3879L60.4682 8.04708L74.8033 4.40581L76.3671 19.231L72.9788 16.8902C72.4576 16.37 71.415 16.6301 71.1544 17.1502C63.8565 27.2938 53.9522 34.8364 42.2235 39.7781C31.5373 44.1996 21.1118 45.7602 14.0745 46.2804C13.5532 46.2804 13.5532 45.7602 14.0745 45.5001C29.4522 40.8185 42.2235 34.0561 52.1278 25.7332C52.649 25.2131 52.9097 24.4328 52.3884 23.6525C51.8671 23.1323 51.0852 22.8722 50.3033 23.3924C40.6597 31.4552 28.149 37.9575 13.032 42.6391C11.4681 43.1593 10.6862 44.7198 10.9469 46.2804C12.25 47.8409 13.5532 48.8813 14.8564 48.8813Z" fill="#2E3B81"/>
</svg>
