<svg width="124" height="116" viewBox="0 0 124 116" fill="none" xmlns="http://www.w3.org/2000/svg">
<path d="M117.459 51.3306L112.706 44.1612V3.1935C112.706 1.8279 111.688 0.803711 110.33 0.803711H71.2901C68.2348 0.803711 65.1796 2.1693 62.8032 4.21769C62.4637 4.55909 62.1243 4.90049 61.7848 5.24188C61.4453 4.90049 61.1058 4.55909 60.7663 4.21769C58.39 1.8279 55.6742 0.803711 52.2794 0.803711H13.5791C12.2212 0.803711 11.2027 1.8279 11.2027 3.1935V44.1612L6.45006 51.3306C2.37634 57.8172 0 64.9865 0 72.8387V113.465C0 114.831 1.01843 115.855 2.37634 115.855C3.73425 115.855 4.75268 114.831 4.75268 113.465V72.4973C4.75268 65.6693 6.78954 59.5241 10.5238 53.7204L11.2027 52.6962V78.9838C11.2027 82.0564 13.5791 84.4462 16.6344 84.4462C18.3317 84.4462 20.0291 83.422 21.0476 82.0564L26.1397 74.5456C26.8187 73.8628 27.4976 73.5215 28.5161 73.5215C29.5345 73.8628 30.2134 74.887 29.874 75.9112L28.5161 81.3736C26.4792 89.5671 23.4239 97.4193 19.3502 104.589C19.0107 104.93 19.0107 105.271 19.0107 105.954V113.124C19.0107 114.489 20.0291 115.513 21.387 115.513C22.7449 115.513 23.7634 114.489 23.7634 113.124V106.637C25.8002 103.223 27.4976 99.8091 28.8555 96.0537H94.714C96.0719 99.8091 97.7693 103.223 99.8062 106.637V113.124C99.8062 114.489 100.825 115.513 102.183 115.513C103.54 115.513 104.559 114.489 104.559 113.124V105.954C104.559 105.613 104.559 105.271 104.219 104.589C100.146 97.4193 97.0904 89.5671 95.0535 81.3736L93.6956 75.9112C93.3561 74.887 94.0351 73.8628 95.0535 73.5215C96.0719 73.1801 96.7509 73.5215 97.4298 74.2043L102.522 81.715C103.54 83.0806 105.238 84.1048 106.935 84.1048C109.99 84.1048 112.367 81.715 112.367 78.6424V52.3548L113.046 53.379C116.78 58.8414 118.817 65.3279 118.817 72.1559V112.782C118.817 114.148 119.835 115.172 121.193 115.172C122.551 115.172 123.57 114.148 123.57 112.782V72.4973C123.909 64.9865 121.533 57.4758 117.459 51.3306ZM27.4976 5.58328H37.6819V37.6747L34.2872 34.2607C33.9477 33.9193 33.2687 33.5779 32.5898 33.5779C31.9108 33.5779 31.2319 33.9193 30.8924 34.2607L27.4976 37.6747V5.58328ZM22.066 71.8145L16.9738 79.3252C16.9738 79.6666 16.6344 79.6666 16.2949 79.6666C15.9554 79.6666 15.6159 79.3252 15.6159 78.9838V5.58328H22.4055V43.8198C22.4055 44.844 23.0844 45.5268 23.7634 46.2096C24.7818 46.551 25.8002 46.2096 26.4792 45.5268L32.2503 39.7231L38.0214 45.5268C38.3609 45.8682 39.0398 46.2096 39.7188 46.2096C40.0583 46.2096 40.3977 46.2096 40.7372 45.8682C41.7556 45.5268 42.0951 44.5026 42.0951 43.4784V5.58328H51.94C53.9768 5.58328 55.6742 6.26608 57.0321 7.63167C58.39 8.99726 59.069 10.7042 59.069 12.7526V82.0564C57.0321 80.6908 54.6558 79.6666 51.94 79.6666H33.9477L34.6266 77.2768C35.3056 73.8629 33.6082 70.1075 30.2134 69.0833C27.1581 68.0591 23.7634 69.0833 22.066 71.8145ZM32.9293 84.4462H52.6189C54.6558 84.4462 56.3532 85.129 57.7111 86.4946C59.069 87.8602 59.7479 89.2258 59.7479 90.9327H30.8924C31.5713 88.8844 32.2503 86.836 32.9293 84.4462ZM64.5006 90.9327C64.5006 89.2258 65.1796 87.8602 66.5375 86.4946C67.8954 85.129 69.5928 84.4462 71.6296 84.4462H91.3193C91.9982 86.4946 92.6772 88.8844 93.3561 90.9327H64.5006ZM107.954 78.9838C107.954 79.3252 107.614 79.6666 107.275 79.6666C106.935 79.6666 106.935 79.6666 106.596 79.3252L101.843 71.8145C100.146 69.0833 96.7509 68.0591 94.0351 69.0833C90.6403 70.1075 88.6034 73.8629 89.6219 77.2768L90.3008 79.6666H71.2901C68.9138 79.6666 66.198 80.3494 64.1611 82.0564V12.7526C64.1611 10.7042 64.8401 8.99726 66.198 7.63167C67.8954 6.26608 69.5928 5.58328 71.2901 5.58328H107.954V78.9838Z" fill="#F26224"/>
<path d="M97.7694 34.2607H74.6849C73.327 34.2607 72.3086 35.2849 72.3086 36.6505C72.3086 38.0161 73.327 39.0403 74.6849 39.0403H98.1088C99.4667 39.0403 100.485 38.0161 100.485 36.6505C100.485 35.2849 99.1273 34.2607 97.7694 34.2607Z" fill="#F26224"/>
<path d="M97.7694 46.551H74.6849C73.327 46.551 72.3086 47.5752 72.3086 48.9408C72.3086 50.3064 73.327 51.3306 74.6849 51.3306H98.1088C99.4667 51.3306 100.485 50.3064 100.485 48.9408C100.485 47.5752 99.1273 46.551 97.7694 46.551Z" fill="#F26224"/>
<path d="M97.7694 58.8413H74.6849C73.327 58.8413 72.3086 59.8655 72.3086 61.2311C72.3086 62.5967 73.327 63.6209 74.6849 63.6209H98.1088C99.4667 63.6209 100.485 62.5967 100.485 61.2311C100.485 59.8655 99.1273 58.8413 97.7694 58.8413Z" fill="#F26224"/>
<path d="M74.6849 26.7499C75.3639 26.7499 76.0428 26.4085 76.3823 26.0671C76.7218 25.7257 77.0613 25.0429 77.0613 24.3601C77.0613 23.6773 76.7218 22.9945 76.3823 22.6531C76.0428 22.3117 75.3639 21.9703 74.6849 21.9703C74.006 21.9703 73.327 22.3117 72.9875 22.6531C72.6481 22.9945 72.3086 23.6773 72.3086 24.3601C72.3086 25.0429 72.6481 25.7257 72.9875 26.0671C73.327 26.4085 74.006 26.7499 74.6849 26.7499Z" fill="#F26224"/>
<path d="M97.7694 21.9703H84.1903C82.8324 21.9703 81.814 22.9945 81.814 24.3601C81.814 25.7257 82.8324 26.7499 84.1903 26.7499H97.7694C99.1273 26.7499 100.146 25.7257 100.146 24.3601C100.485 22.9945 99.1273 21.9703 97.7694 21.9703Z" fill="#F26224"/>
</svg>
