<svg width="788" height="482" viewBox="0 0 788 482" fill="none" xmlns="http://www.w3.org/2000/svg">
<g clip-path="url(#clip0_1_594)">
<path d="M391.941 422.758C562.859 422.758 701.415 416.762 701.415 409.365C701.415 401.968 562.859 395.971 391.941 395.971C221.024 395.971 82.4683 401.968 82.4683 409.365C82.4683 416.762 221.024 422.758 391.941 422.758Z" fill="#D6D6D6"/>
<path d="M626.454 306.402C626.873 312.053 635.039 216.624 663.306 184.396C664.144 187.326 659.537 268.733 626.454 306.402Z" fill="#7EED9A"/>
<path d="M612.635 346.583C628.758 323.563 635.249 282.336 635.249 280.662L632.108 280.871L633.574 280.662H632.108C631.898 283.592 625.198 322.935 610.122 344.699L612.635 346.583Z" fill="#7EED9A"/>
<path d="M599.025 344.071C625.617 306.821 671.891 287.358 675.032 288.614L676.079 290.498L674.195 290.079V291.544C670.216 291.753 626.664 310.588 601.537 345.746L599.025 344.071ZM672.938 290.079C672.938 290.498 672.938 290.916 673.357 291.335L674.195 290.288L672.938 290.079Z" fill="#7EED9A"/>
<path d="M604.678 347.001C624.361 322.098 644.252 296.357 663.935 270.407L661.422 268.524C641.949 294.474 622.057 320.214 602.375 344.909L604.678 347.001Z" fill="#7EED9A"/>
<path d="M655.559 278.15C654.512 281.708 731.566 166.399 779.725 192.348C778.678 197.162 729.682 247.597 655.559 278.15Z" fill="#7EED9A"/>
<path d="M643.415 292.172C643.415 292.172 654.093 264.966 670.844 228.343C687.595 192.976 710.209 147.983 734.707 144.425C734.916 150.285 703.927 249.899 643.415 292.172Z" fill="#5CB880"/>
<path d="M640.483 308.914C639.436 306.612 742.245 227.088 780.772 278.988C780.353 282.127 726.541 281.917 640.483 308.914Z" fill="#5CB880"/>
<path d="M209.566 266.64C209.147 272.291 200.981 176.862 172.714 144.634C172.086 147.564 176.483 229.181 209.566 266.64Z" fill="#7EED9A"/>
<path d="M223.385 307.03C207.263 284.01 200.772 242.783 200.772 241.109L203.912 241.318L202.447 241.109H203.912C204.122 244.039 210.822 283.382 225.898 305.147L223.385 307.03Z" fill="#7EED9A"/>
<path d="M234.483 306.193C209.356 271.035 165.595 252.201 161.826 251.991V250.526L159.941 250.945L160.988 249.061C164.129 247.806 210.403 267.059 236.995 304.519L234.483 306.193ZM162.035 250.526L162.873 251.573C163.082 251.154 163.291 250.736 163.291 250.317L162.035 250.526Z" fill="#7EED9A"/>
<path d="M231.342 307.449C211.66 282.545 191.768 256.805 172.086 230.855L174.598 228.971C194.071 254.921 213.963 280.662 233.645 305.356L231.342 307.449Z" fill="#7EED9A"/>
<path d="M180.671 238.598C181.717 242.155 104.663 126.846 56.5043 152.796C57.5513 157.609 106.338 207.835 180.671 238.598Z" fill="#7EED9A"/>
<path d="M192.606 252.619C192.606 252.619 181.927 225.414 165.176 188.791C148.425 153.424 125.811 108.43 101.313 104.872C101.313 110.732 132.093 210.346 192.606 252.619Z" fill="#5CB880"/>
<path d="M195.537 269.152C196.584 266.85 93.7751 187.326 55.248 239.226C55.8761 242.574 109.479 242.155 195.537 269.152Z" fill="#5CB880"/>
<path d="M164.757 385.089C159.523 385.089 155.335 380.903 155.335 375.672V45.6481C155.335 40.4163 159.523 36.2308 164.757 36.2308H637.552C642.787 36.2308 646.974 40.4163 646.974 45.6481V375.672C646.974 380.903 642.787 385.089 637.552 385.089H164.757Z" fill="#7AB3DE"/>
<path d="M637.552 38.3235C641.74 38.3235 644.88 41.6719 644.88 45.6481V375.672C644.88 379.648 641.53 382.996 637.552 382.996H164.757C160.569 382.996 157.429 379.648 157.429 375.672V45.6481C157.429 41.6719 160.779 38.3235 164.757 38.3235H637.552ZM637.552 34.1381H164.757C158.266 34.1381 153.241 39.3699 153.241 45.6481V375.672C153.241 382.159 158.476 387.182 164.757 387.182H637.552C644.043 387.182 649.068 381.95 649.068 375.672V45.6481C649.277 39.1606 644.043 34.1381 637.552 34.1381Z" fill="#33313B"/>
<path d="M623.942 67.2032H178.577V341.979H623.942V67.2032Z" fill="white"/>
<path d="M412.461 368.138H392.779C389.638 368.138 387.126 365.627 387.126 362.487C387.126 359.348 389.638 356.837 392.779 356.837H412.461C415.602 356.837 418.115 359.348 418.115 362.487C418.115 365.627 415.602 368.138 412.461 368.138Z" fill="#33313B"/>
<path d="M140.678 407.272C126.858 407.272 115.342 396.599 114.295 382.996H687.805C686.758 396.599 675.241 407.272 661.422 407.272H140.678Z" fill="#7AB3DE"/>
<path d="M685.292 384.88C683.198 396.39 673.357 404.97 661.213 404.97H140.678C128.743 404.97 118.692 396.18 116.598 384.88H685.292ZM689.898 380.694H111.992C111.992 396.39 124.764 409.155 140.468 409.155H661.213C677.126 409.365 689.898 396.599 689.898 380.694Z" fill="#33313B"/>
<path d="M362.209 382.787C362.209 388.228 368.7 392.623 376.866 392.623H428.165C436.331 392.623 442.822 388.228 442.822 382.787C442.822 382.159 442.613 381.322 442.404 380.694H362.418C362.418 381.322 362.209 382.159 362.209 382.787Z" fill="#33313B"/>
<path d="M178.786 271.035V291.544" stroke="#33313B" stroke-width="1.9441" stroke-miterlimit="10" stroke-linecap="round"/>
<path d="M178.786 119.731V246.55" stroke="#33313B" stroke-width="1.9441" stroke-miterlimit="10" stroke-linecap="round"/>
<path d="M562.592 341.351H583.111" stroke="#33313B" stroke-width="1.9441" stroke-miterlimit="10" stroke-linecap="round"/>
<path d="M411.205 341.351H538.303" stroke="#33313B" stroke-width="1.9441" stroke-miterlimit="10" stroke-linecap="round"/>
<path d="M494.332 65.9476H623.732V239.853" stroke="#33313B" stroke-width="1.9441" stroke-miterlimit="10" stroke-linecap="round"/>
<path d="M736.801 439.709C736.801 444.941 678.173 449.126 605.935 449.336C533.696 449.545 475.068 445.569 475.068 440.337C475.068 435.105 533.696 430.92 605.935 430.71C678.173 430.71 736.801 434.687 736.801 439.709Z" fill="#D6D6D6"/>
<path d="M495.169 449.754C494.96 449.754 494.96 449.754 495.169 449.754L471.508 435.733L492.447 416.689H492.656L510.036 424.014L511.292 438.872L495.169 449.754Z" fill="#F7D4A6"/>
<path d="M492.866 418.991L508.151 425.479L509.198 437.826L494.96 447.452L474.859 435.524L492.866 418.991ZM492.447 414.596C491.819 414.596 491.4 414.806 490.981 415.224L467.949 436.152L493.913 451.638C494.332 451.847 494.75 452.056 495.169 452.056C495.588 452.056 496.007 451.847 496.425 451.638L513.595 440.128L512.129 422.967L493.494 415.015C493.075 414.596 492.866 414.596 492.447 414.596Z" fill="#33313B"/>
<path d="M611.797 420.456C611.797 420.875 612.007 421.712 612.007 422.758C612.007 423.804 612.216 424.642 612.216 425.06C612.216 429.873 611.169 437.198 605.097 440.337L727.169 429.664C733.242 426.525 734.289 419.2 734.289 414.387C734.289 413.969 734.289 413.132 734.079 412.085C734.079 411.039 733.87 410.202 733.87 409.783C733.032 404.97 730.729 398.064 724.238 395.971L602.166 406.644C608.657 408.737 610.96 415.643 611.797 420.456Z" fill="#FFA74A" stroke="#33313B" stroke-width="1.9441" stroke-miterlimit="10" stroke-linecap="round" stroke-linejoin="round"/>
<path d="M481.14 439.081C481.14 438.454 481.14 436.989 480.931 435.105C480.721 433.222 480.512 431.757 480.512 431.129C480.303 429.873 480.093 428.408 479.675 426.944L469.833 435.942L481.14 443.058C481.14 441.802 481.14 440.337 481.14 439.081Z" fill="#33313B"/>
<path d="M721.81 418.604L494.469 438.667L495.464 449.923L722.805 429.861L721.81 418.604Z" fill="#7EED9A" stroke="#33313B" stroke-width="1.9441" stroke-miterlimit="10" stroke-linecap="round" stroke-linejoin="round"/>
<path d="M720.982 407.499L493.641 427.562L494.635 438.818L721.977 418.756L720.982 407.499Z" fill="#5CB880" stroke="#33313B" stroke-width="1.9441" stroke-miterlimit="10" stroke-linecap="round" stroke-linejoin="round"/>
<path d="M719.927 396.204L492.586 416.267L493.58 427.524L720.921 407.461L719.927 396.204Z" fill="#7EED9A" stroke="#33313B" stroke-width="1.9441" stroke-miterlimit="10" stroke-linecap="round" stroke-linejoin="round"/>
<path d="M579.552 159.702H437.169C434.447 159.702 432.353 157.609 432.353 154.889V104.035C432.353 101.315 434.447 99.222 437.169 99.222H579.552C582.274 99.222 584.368 101.315 584.368 104.035V154.679C584.577 157.609 582.274 159.702 579.552 159.702Z" stroke="#33313B" stroke-width="1.9441" stroke-miterlimit="10" stroke-linecap="round" stroke-linejoin="round"/>
<path d="M475.749 142.049C482.7 135.102 482.7 123.839 475.749 116.893C468.799 109.946 457.53 109.946 450.579 116.893C443.629 123.839 443.629 135.102 450.579 142.049C457.53 148.995 468.799 148.995 475.749 142.049Z" fill="#7EED9A"/>
<path d="M457.479 120.149V138.775L472.555 129.567L457.479 120.149Z" fill="white" stroke="#33313B" stroke-width="1.9441" stroke-miterlimit="10" stroke-linecap="round" stroke-linejoin="round"/>
<path d="M498.519 121.405H570.339" stroke="#33313B" stroke-width="1.9441" stroke-miterlimit="10" stroke-linecap="round" stroke-linejoin="round"/>
<path d="M498.519 141.286H570.339" stroke="#33313B" stroke-width="1.9441" stroke-miterlimit="10" stroke-linecap="round" stroke-linejoin="round"/>
<path d="M498.519 131.241H537.675" stroke="#33313B" stroke-width="1.9441" stroke-miterlimit="10" stroke-linecap="round" stroke-linejoin="round"/>
<path d="M579.552 233.157H437.169C434.447 233.157 432.353 231.064 432.353 228.343V177.49C432.353 174.77 434.447 172.677 437.169 172.677H579.552C582.274 172.677 584.368 174.77 584.368 177.49V228.134C584.577 230.855 582.274 233.157 579.552 233.157Z" stroke="#33313B" stroke-width="1.9441" stroke-miterlimit="10" stroke-linecap="round" stroke-linejoin="round"/>
<path d="M463.133 220.6C472.962 220.6 480.931 212.636 480.931 202.812C480.931 192.988 472.962 185.024 463.133 185.024C453.303 185.024 445.335 192.988 445.335 202.812C445.335 212.636 453.303 220.6 463.133 220.6Z" fill="#7EED9A"/>
<path d="M457.479 193.604V212.229L472.555 202.812L457.479 193.604Z" fill="white" stroke="#33313B" stroke-width="1.9441" stroke-miterlimit="10" stroke-linecap="round" stroke-linejoin="round"/>
<path d="M498.519 194.86H570.339" stroke="#33313B" stroke-width="1.9441" stroke-miterlimit="10" stroke-linecap="round" stroke-linejoin="round"/>
<path d="M498.519 214.531H570.339" stroke="#33313B" stroke-width="1.9441" stroke-miterlimit="10" stroke-linecap="round" stroke-linejoin="round"/>
<path d="M498.519 204.696H537.675" stroke="#33313B" stroke-width="1.9441" stroke-miterlimit="10" stroke-linecap="round" stroke-linejoin="round"/>
<path d="M579.552 306.402H437.169C434.447 306.402 432.353 304.31 432.353 301.589V250.945C432.353 248.224 434.447 246.132 437.169 246.132H579.552C582.274 246.132 584.368 248.224 584.368 250.945V301.589C584.577 304.31 582.274 306.402 579.552 306.402Z" stroke="#33313B" stroke-width="1.9441" stroke-miterlimit="10" stroke-linecap="round" stroke-linejoin="round"/>
<path d="M475.611 288.596C482.561 281.649 482.561 270.386 475.611 263.44C468.66 256.493 457.392 256.493 450.441 263.44C443.491 270.386 443.491 281.649 450.441 288.596C457.392 295.542 468.66 295.542 475.611 288.596Z" fill="#7EED9A"/>
<path d="M457.479 266.85V285.475L472.555 276.058L457.479 266.85Z" fill="white" stroke="#33313B" stroke-width="1.9441" stroke-miterlimit="10" stroke-linecap="round" stroke-linejoin="round"/>
<path d="M498.519 268.105H570.339" stroke="#33313B" stroke-width="1.9441" stroke-miterlimit="10" stroke-linecap="round" stroke-linejoin="round"/>
<path d="M498.519 287.777H570.339" stroke="#33313B" stroke-width="1.9441" stroke-miterlimit="10" stroke-linecap="round" stroke-linejoin="round"/>
<path d="M498.519 277.941H537.675" stroke="#33313B" stroke-width="1.9441" stroke-miterlimit="10" stroke-linecap="round" stroke-linejoin="round"/>
<path d="M386.079 114.708L373.515 103.407V99.222H220.663V286.94L243.277 310.378H397.176V114.708H386.079Z" fill="#FFA74A"/>
<path d="M373.515 103.407V286.94H220.663L237.833 304.31H391.941V119.94L373.515 103.407Z" fill="white"/>
<path d="M373.515 99.222H220.663V283.801V286.94H373.515V99.222Z" stroke="#33313B" stroke-width="1.9441" stroke-miterlimit="10" stroke-linecap="round" stroke-linejoin="round"/>
<path d="M342.107 133.334L332.685 125.172L323.263 133.334V99.222H342.107V133.334Z" fill="#7EED9A" stroke="#33313B" stroke-width="1.9441" stroke-miterlimit="10" stroke-linecap="round"/>
<path d="M237.833 304.31H391.941V119.94L373.515 103.407V99.222H220.663V286.94" stroke="#33313B" stroke-width="1.9441" stroke-miterlimit="10" stroke-linecap="round"/>
<path d="M373.516 286.94L391.942 304.31" stroke="#33313B" stroke-width="1.9441" stroke-miterlimit="10" stroke-linecap="round"/>
<path d="M386.079 275.011V163.469" stroke="#33313B" stroke-width="1.9441" stroke-miterlimit="10" stroke-linecap="round"/>
<path d="M380.007 181.676V116.592" stroke="#33313B" stroke-width="1.9441" stroke-miterlimit="10" stroke-linecap="round"/>
<path d="M282.432 295.729H357.393" stroke="#33313B" stroke-width="1.9441" stroke-miterlimit="10" stroke-linecap="round"/>
<path d="M386.079 114.708H397.176V310.378H243.277L220.663 286.94" stroke="#33313B" stroke-width="1.9441" stroke-miterlimit="10" stroke-linecap="round"/>
<path d="M297.927 323.144H122.042C105.71 323.144 92.3094 336.328 92.3094 352.861C92.3094 369.184 105.501 382.578 122.042 382.578H297.927V374.625C297.927 374.625 283.061 357.674 297.927 331.515V323.144Z" stroke="#33313B" stroke-width="1.9441" stroke-miterlimit="10" stroke-linecap="round" stroke-linejoin="round"/>
<path d="M297.927 331.306H123.508C111.573 331.306 101.941 340.932 101.941 352.861C101.941 364.789 111.573 374.416 123.508 374.416H297.718C297.927 374.416 282.851 357.674 297.927 331.306Z" fill="white" stroke="#33313B" stroke-width="1.9441" stroke-miterlimit="10" stroke-linecap="round" stroke-linejoin="round"/>
<path d="M291.227 341.351H183.811" stroke="#33313B" stroke-width="1.9441" stroke-miterlimit="10" stroke-linecap="round" stroke-linejoin="round"/>
<path d="M152.822 352.652H122.252" stroke="#33313B" stroke-width="1.9441" stroke-miterlimit="10" stroke-linecap="round" stroke-linejoin="round"/>
<path d="M247.046 352.652H162.873" stroke="#33313B" stroke-width="1.9441" stroke-miterlimit="10" stroke-linecap="round" stroke-linejoin="round"/>
<path d="M220.873 364.162H131.465" stroke="#33313B" stroke-width="1.9441" stroke-miterlimit="10" stroke-linecap="round" stroke-linejoin="round"/>
<path d="M279.92 368.766L269.869 361.232L259.819 368.766V341.351H279.92V368.766Z" fill="#FFA74A" stroke="#33313B" stroke-width="1.9441" stroke-miterlimit="10" stroke-linecap="round" stroke-linejoin="round"/>
<path d="M121.833 323.144C105.501 323.144 92.1 336.328 92.1 352.861C92.1 369.184 105.291 382.578 121.833 382.578H297.718V374.625H123.508C111.573 374.625 101.941 364.999 101.941 353.07C101.941 341.142 111.573 331.515 123.508 331.515H297.718V323.353H121.833V323.144Z" fill="#7EED9A" stroke="#33313B" stroke-width="1.9441" stroke-miterlimit="10" stroke-linecap="round" stroke-linejoin="round"/>
<path d="M118.273 263.711H294.158C310.49 263.711 323.891 276.895 323.891 293.427C323.891 309.751 310.7 323.144 294.158 323.144H118.273V315.192C118.273 315.192 133.14 298.241 118.273 272.081V263.711Z" stroke="#33313B" stroke-width="1.9441" stroke-miterlimit="10" stroke-linecap="round" stroke-linejoin="round"/>
<path d="M118.273 271.872H292.483C304.418 271.872 314.05 281.499 314.05 293.427C314.05 305.356 304.418 314.982 292.483 314.982H118.273C118.273 315.192 133.14 298.241 118.273 271.872Z" fill="white" stroke="#33313B" stroke-width="1.9441" stroke-miterlimit="10" stroke-linecap="round" stroke-linejoin="round"/>
<path d="M124.764 281.917H232.18" stroke="#33313B" stroke-width="1.9441" stroke-miterlimit="10" stroke-linecap="round" stroke-linejoin="round"/>
<path d="M263.378 293.427H293.739" stroke="#33313B" stroke-width="1.9441" stroke-miterlimit="10" stroke-linecap="round" stroke-linejoin="round"/>
<path d="M169.154 293.427H253.118" stroke="#33313B" stroke-width="1.9441" stroke-miterlimit="10" stroke-linecap="round" stroke-linejoin="round"/>
<path d="M195.118 304.728H284.526" stroke="#33313B" stroke-width="1.9441" stroke-miterlimit="10" stroke-linecap="round" stroke-linejoin="round"/>
<path d="M136.281 309.332L146.331 301.798L156.382 309.332V281.917H136.281V309.332Z" fill="#FFA74A" stroke="#33313B" stroke-width="1.9441" stroke-miterlimit="10" stroke-linecap="round" stroke-linejoin="round"/>
<path d="M294.158 263.711C310.49 263.711 323.891 276.895 323.891 293.427C323.891 309.751 310.7 323.144 294.158 323.144H118.273V315.192H292.483C304.418 315.192 314.05 305.565 314.05 293.637C314.05 281.708 304.418 272.081 292.483 272.081H118.273V263.92H294.158V263.711Z" fill="#7EED9A" stroke="#33313B" stroke-width="1.9441" stroke-miterlimit="10" stroke-linecap="round" stroke-linejoin="round"/>
<path d="M407.645 52.1356C407.645 55.9025 404.714 58.8323 400.945 58.8323C397.176 58.8323 394.245 55.9025 394.245 52.1356C394.245 48.3686 397.176 45.4388 400.945 45.4388C404.714 45.4388 407.645 48.3686 407.645 52.1356Z" fill="#33313B"/>
<path d="M85.1903 465.241C110.516 465.241 131.046 462.242 131.046 458.544C131.046 454.845 110.516 451.847 85.1903 451.847C59.8649 451.847 39.3347 454.845 39.3347 458.544C39.3347 462.242 59.8649 465.241 85.1903 465.241Z" fill="#D6D6D6"/>
<path d="M42.6848 429.246H28.6559C22.1649 429.246 16.7209 423.595 16.7209 416.48V399.738C16.7209 392.623 21.9555 386.972 28.6559 386.972H37.0314" stroke="#33313B" stroke-width="1.9441" stroke-miterlimit="10" stroke-linecap="round"/>
<path d="M142.562 353.279C142.562 358.093 117.226 362.069 85.8185 362.069C54.4105 362.069 29.0747 358.093 29.0747 353.279C29.0747 348.466 54.4105 344.49 85.8185 344.49C117.226 344.49 142.562 348.466 142.562 353.279Z" fill="#33313B"/>
<path d="M71.5802 458.962H99.8474C110.317 458.334 119.111 457.079 124.764 455.614L140.468 353.698H140.259C140.259 358.302 115.761 362.069 85.8185 362.069C55.8762 362.069 31.378 358.302 31.378 353.698H31.1686L46.8726 455.614C52.3166 457.079 61.1109 458.334 71.5802 458.962Z" fill="#FFA74A" stroke="#33313B" stroke-width="1.9441" stroke-miterlimit="10" stroke-linecap="round" stroke-linejoin="round"/>
<path d="M87.7029 336.538V327.12C87.7029 323.772 84.9809 321.051 81.4213 321.051H66.9737C63.4141 321.051 60.6921 318.331 60.6921 314.982C60.6921 311.634 63.4141 308.914 66.9737 308.914H90.6343C94.1939 308.914 96.9159 306.193 96.9159 302.845V302.635C96.9159 299.287 94.1939 296.566 90.6343 296.566H51.6885C48.1289 296.566 45.4069 293.846 45.4069 290.498V289.66C45.4069 286.312 48.1289 283.591 51.6885 283.591H78.2805" stroke="#33313B" stroke-width="1.9441" stroke-miterlimit="10" stroke-linecap="round"/>
<path d="M635.249 14.0479C615.776 15.5128 599.862 30.999 597.768 50.4614C596.931 57.9952 598.187 65.3198 601.119 71.598C601.747 72.8536 601.747 74.1092 601.328 75.3649L597.35 87.9212C596.512 90.2233 598.815 92.5253 601.119 91.8974L612.844 88.9676C614.31 88.5491 615.776 88.7583 617.032 89.5954C624.151 93.9902 632.736 96.2922 641.949 95.6643C661.841 93.9902 677.754 78.0854 679.429 58.2045C681.314 32.8825 660.375 11.9552 635.249 14.0479Z" fill="#FFA74A" stroke="#33313B" stroke-width="3.88819" stroke-miterlimit="10" stroke-linecap="round"/>
<path d="M656.606 55.2747C656.606 55.2747 657.025 53.1819 657.025 52.1356C657.025 46.2759 652.209 41.4626 646.346 41.4626C642.996 41.4626 640.064 42.9276 638.18 45.2296C636.296 42.9276 633.364 41.4626 630.014 41.4626C624.151 41.4626 619.335 46.2759 619.335 52.1356C619.335 53.1819 619.545 54.2283 619.754 55.2747C619.754 55.2747 620.173 56.7396 620.592 57.1581C622.267 60.7158 627.083 68.6681 637.971 74.7371C648.859 68.6681 653.675 60.7158 655.35 57.1581C655.978 56.7396 656.606 55.2747 656.606 55.2747Z" fill="white"/>
</g>
<g style="mix-blend-mode:color">
<rect x="0.171448" y="0.387939" width="787.829" height="481.164" fill="url(#paint0_linear_1_594)"/>
</g>
<defs>
<linearGradient id="paint0_linear_1_594" x1="394.086" y1="0.387939" x2="394.086" y2="481.552" gradientUnits="userSpaceOnUse">
<stop stop-color="#F26224"/>
<stop offset="1" stop-color="#283B8F"/>
</linearGradient>
<clipPath id="clip0_1_594">
<rect width="766.145" height="453.285" fill="white" transform="translate(14.627 11.7459)"/>
</clipPath>
</defs>
</svg>
