<svg width="121" height="45" viewBox="0 0 121 45" fill="none" xmlns="http://www.w3.org/2000/svg">
<path d="M93.1559 30.958C93.8511 29.1042 94.5463 27.0186 95.2415 25.1647C97.0953 19.8349 98.9492 14.2733 100.803 8.9435C101.498 6.62618 102.425 4.5406 103.12 2.22328C103.584 0.83289 104.047 0.137695 105.901 0.137695C110.072 0.369427 114.475 0.137695 118.646 0.137695C120.037 0.137695 120.732 0.601158 120.732 2.22328C120.732 2.45501 120.732 2.68674 120.732 3.15021C120.732 5.93099 120.964 6.39445 117.951 6.62618C116.329 6.85792 115.866 7.55311 115.866 9.17523C115.866 17.981 115.866 26.5551 115.866 35.3609C115.866 37.91 116.097 38.1417 118.415 38.3734C120.269 38.6052 120.732 39.3004 120.732 41.1542C120.732 44.6302 120.732 44.6302 117.256 44.6302C112.853 44.6302 108.218 44.6302 103.816 44.6302C102.425 44.6302 101.73 44.1667 101.962 42.7763C101.962 42.5446 101.962 42.5446 101.962 42.3129C101.962 39.0686 101.962 39.0686 104.974 38.3734C106.365 38.1417 106.828 37.4465 106.828 36.0561C107.06 29.5676 107.06 22.8474 107.292 16.3589C107.292 16.1272 107.06 15.6637 106.828 15.2003C104.511 21.457 102.425 27.482 100.108 33.7388C98.9492 36.983 97.7905 40.2273 96.6319 43.4715C96.6319 43.7033 96.4002 43.935 96.4002 43.935C94.5463 44.1667 92.6924 44.3985 90.8386 44.3985C90.3751 44.3985 89.6799 43.4715 89.4482 43.0081C86.6674 35.1292 83.6549 27.2503 80.8741 19.6032C80.4107 18.2128 79.7155 16.8224 78.7885 15.432C78.7885 16.8224 78.7885 18.4445 78.7885 19.8349C79.0203 25.1647 79.252 30.4946 79.252 35.5927C79.252 37.2148 79.7155 38.1417 81.5693 38.3734C84.5818 38.6052 84.1184 39.3004 84.1184 41.3859C84.1184 41.8494 84.1184 42.3129 84.1184 42.7763C84.1184 44.1667 83.6549 44.6302 82.2645 44.6302C77.1664 44.6302 72.3001 44.6302 67.202 44.6302C66.0433 44.6302 65.5798 44.1667 65.5798 43.0081C65.5798 42.5446 65.5798 42.3129 65.5798 41.8494C65.5798 39.0686 65.5798 38.8369 68.3606 38.3734C69.751 38.1417 70.2145 37.2148 70.2145 35.8244C70.2145 27.0186 70.2145 17.981 70.2145 9.17523C70.2145 7.32138 69.5193 6.62618 67.8972 6.62618C66.275 6.62618 65.5798 5.93099 65.5798 4.07713C65.8116 0.369427 65.5798 0.369426 69.2875 0.369426C72.9953 0.369426 76.703 0.369426 80.1789 0.369426C81.3376 0.369426 82.0328 0.83289 82.2645 1.75982C85.0453 9.6387 87.5943 17.7493 90.3751 25.6282C91.0703 27.482 91.7655 29.3359 92.4607 30.958C92.6925 30.958 92.9242 30.958 93.1559 30.958Z" fill="#2E3B81"/>
<path d="M54.4567 21.2253C54.9201 21.457 55.1519 21.6887 55.6153 21.9205C59.7865 24.2378 60.9452 27.7138 60.9452 32.1167C60.7134 37.2148 58.6278 40.9225 53.9932 42.7763C51.2124 43.7033 48.1999 44.1667 45.4191 44.3985C38.6989 44.6302 31.9787 44.3985 25.0267 44.3985C23.4046 44.3985 22.7094 43.935 22.9412 42.3129C22.9412 42.0811 22.9412 41.8494 22.9412 41.3859C22.9412 38.6052 22.9412 38.6052 25.7219 38.1417C27.3441 37.91 28.0393 37.2148 28.0393 35.3609C28.0393 26.5551 28.0393 17.981 28.0393 9.17523C28.0393 6.85792 28.0393 6.85791 25.7219 6.39445C23.1729 5.93099 23.1729 5.93099 23.1729 3.15021C23.1729 2.68674 23.1729 2.45501 23.1729 1.99155C22.9412 0.601159 23.6364 0.137695 25.0267 0.137695C28.7344 0.137695 32.2104 0.137695 35.9181 0.137695C39.8576 0.137695 43.797 0.137695 47.7365 0.601158C50.749 0.83289 53.7615 1.99155 56.3105 4.07713C60.7134 7.78484 61.1769 17.0541 55.6153 20.7618C54.9201 20.7618 54.9201 20.7618 54.4567 21.2253ZM36.8451 30.958C36.8451 32.3484 36.8451 33.9705 36.8451 35.3609C36.8451 36.2878 37.3085 36.983 38.4672 36.983C41.0162 36.983 43.797 37.2148 46.3461 36.983C49.1268 36.7513 52.1394 35.1292 51.6759 30.4946C51.4442 27.2503 49.3586 25.1647 46.1143 24.933C43.797 24.933 41.248 24.933 38.9306 24.933C37.5403 24.933 37.0768 25.6282 37.0768 27.0186C37.0768 28.409 36.8451 29.7994 36.8451 30.958ZM36.8451 12.6512C36.8451 13.3464 36.8451 14.0416 36.8451 14.7368C36.8451 18.6762 36.8451 18.2128 40.321 18.2128C42.4066 18.2128 44.7239 18.2128 46.8095 17.5176C49.1268 16.8224 50.0538 14.9685 49.822 12.4195C49.5903 10.1022 48.1999 8.24831 46.1143 7.78484C43.5653 7.32138 41.0162 7.32138 38.4672 7.08964C37.3085 7.08964 36.8451 7.55311 36.8451 8.71177C37.0768 10.1022 36.8451 11.4926 36.8451 12.6512Z" fill="#2E3B81"/>
<path d="M9.26896 44.3986C6.71991 44.3986 4.17086 44.3986 1.85354 44.3986C0.694884 44.3986 -0.000310913 43.9351 0.231421 42.5447C0.231421 42.0812 0.231421 41.6178 0.231421 41.1543C0.231421 38.6053 0.231421 38.6053 2.78047 38.1418C3.93913 38.1418 4.63432 37.4466 4.63432 36.0562C4.63432 26.787 4.63432 17.7494 4.63432 8.48015C4.63432 7.08976 3.7074 6.39457 2.54874 6.39457C0.231421 6.16283 -0.000310913 5.9311 0.231421 3.61379C0.231421 0.13781 -0.232043 0.36954 3.7074 0.36954C8.1103 0.36954 12.5132 0.36954 16.9161 0.36954C18.3065 0.36954 19.0017 0.833004 18.77 2.22339C18.77 2.45513 18.77 2.68686 18.77 3.15032C18.77 6.16284 18.77 6.16284 15.9892 6.6263C14.3671 6.6263 13.9036 7.55323 13.9036 8.94362C13.9036 17.7494 13.9036 26.787 13.9036 35.5928C13.9036 37.6783 14.3671 38.1418 16.2209 38.3735C18.0748 38.6053 18.5382 39.3005 18.5382 40.9226C18.5382 44.6303 19.0017 44.6303 14.8305 44.6303C12.9767 44.3986 11.1228 44.3986 9.26896 44.3986Z" fill="#2E3B81"/>
</svg>
