<svg width="125" height="125" viewBox="0 0 125 125" fill="none" xmlns="http://www.w3.org/2000/svg">
<path d="M46.5991 51.8925C32.3411 51.8925 20.7988 40.2849 20.7988 25.9462C20.7988 11.6075 32.3411 0 46.5991 0C60.8571 0 72.3993 11.6075 72.3993 25.9462C72.3993 40.2849 60.8571 51.8925 46.5991 51.8925ZM46.5991 7.85215C36.7543 7.85215 28.6068 16.0457 28.6068 25.9462C28.6068 35.8468 36.7543 44.0403 46.5991 44.0403C56.4439 44.0403 64.5913 35.8468 64.5913 25.9462C64.5913 16.0457 56.4439 7.85215 46.5991 7.85215Z" fill="#F26224"/>
<path d="M47.5268 109.43H3.73427C1.6974 109.43 0 107.723 0 105.675V87.5806C0 73.9247 10.8633 63 24.4424 63H68.2349C70.2717 63 71.9691 64.707 71.9691 66.7554C71.9691 68.8038 70.2717 70.5108 68.2349 70.5108H24.4424C15.2765 70.5108 7.80803 78.0215 7.80803 87.2392V101.578H47.8662C49.9031 101.578 51.6005 103.285 51.6005 105.333C51.6005 107.382 49.9031 109.43 47.5268 109.43Z" fill="#F26224"/>
<path d="M114.834 124.61H71.0415C65.9494 124.61 61.8757 120.513 61.8757 115.393V92.1775C61.8757 87.0565 65.9494 82.9597 71.0415 82.9597H114.834C119.926 82.9597 124 87.0565 124 92.1775V115.393C124 120.513 119.926 124.61 114.834 124.61ZM71.0415 90.8119C70.3626 90.8119 69.6837 91.4947 69.6837 92.1775V115.393C69.6837 116.075 70.3626 116.758 71.0415 116.758H114.834C115.513 116.758 116.192 116.075 116.192 115.393V92.1775C116.192 91.4947 115.513 90.8119 114.834 90.8119H71.0415Z" fill="#F26224"/>
<path d="M104.65 90.4704C102.613 90.4704 100.916 88.7634 100.916 86.715V78.8629C100.916 78.1801 100.237 77.4973 99.5577 77.4973H86.6575C85.9785 77.4973 85.2996 78.1801 85.2996 78.8629V86.715C85.2996 88.7634 83.6022 90.4704 81.5653 90.4704C79.5285 90.4704 77.8311 88.7634 77.8311 86.715V78.8629C77.8311 73.7419 81.9048 69.6451 86.997 69.6451H99.897C104.989 69.6451 109.063 73.7419 109.063 78.8629V86.715C108.384 88.7634 106.687 90.4704 104.65 90.4704Z" fill="#F26224"/>
<path d="M93.1075 108.906C92.4285 108.906 92.0891 108.906 91.4101 108.564L64.252 95.5914C62.2151 94.5672 61.5361 92.1774 62.5546 90.4704C63.573 88.422 65.9493 87.7392 67.6467 88.7634L93.1075 101.054L118.568 88.7634C120.605 87.7392 122.981 88.7634 123.66 90.4704C124.679 92.5188 123.66 94.5672 121.963 95.5914L94.8049 108.564C94.1259 108.906 93.447 108.906 93.1075 108.906Z" fill="#F26224"/>
</svg>
