<svg width="93" height="94" viewBox="0 0 93 94" fill="none" xmlns="http://www.w3.org/2000/svg">
<path d="M46.3937 61.8762C46.3937 70.1991 53.1703 76.7013 61.2501 76.7013C69.3299 76.7013 76.1065 69.939 76.1065 61.8762C76.1065 53.8134 69.3299 47.051 61.2501 47.051C52.9096 47.051 46.3937 53.8134 46.3937 61.8762ZM56.8192 50.9524V60.5757H49.5213C50.0426 56.1542 52.649 52.5129 56.8192 50.9524ZM49.5213 63.4367H58.3831C59.165 63.4367 59.9469 62.6565 59.9469 61.8762V50.1721C60.4682 50.1721 60.9894 50.1721 61.5107 50.1721C63.0746 50.1721 64.6384 50.4322 65.9416 50.9524V73.0601C59.9469 75.661 52.9096 72.5399 50.3033 66.5578C49.782 65.5174 49.5213 64.4771 49.5213 63.4367ZM73.2395 61.8762C73.2395 65.5174 71.6756 68.8986 68.8086 71.2394V52.773C71.415 54.8537 73.2395 58.2349 73.2395 61.8762Z" fill="#2E3B81"/>
<path d="M90.9629 83.4636L79.4948 72.0196C85.2288 61.8761 81.5799 49.3918 71.415 43.6698C70.6331 43.1496 69.5905 42.6294 68.548 42.3693V2.31543C68.548 1.53515 67.766 0.754883 66.9841 0.754883H1.56383C0.781916 0.754883 0 1.53515 0 2.31543V91.7865C0 92.5668 0.781916 93.347 1.56383 93.347H67.2448C68.0267 93.347 68.8086 92.5668 68.8086 91.7865V81.3829C69.8511 81.1228 70.6331 80.6026 71.415 80.0824L82.8831 91.5264C85.2288 93.8672 88.6171 93.8672 90.9629 91.5264C93.048 89.4457 93.048 85.8044 90.9629 83.4636ZM79.2341 61.8761C79.2341 71.7596 71.1543 79.8223 61.2501 79.8223C51.3458 79.8223 43.266 71.7596 43.266 61.8761C43.266 51.9927 51.3458 43.9299 61.2501 43.9299C71.1543 44.19 79.2341 51.9927 79.2341 61.8761ZM11.9894 60.5757V33.5263H56.8192V41.5891C54.7341 42.1092 52.649 42.8895 50.8245 43.9299V42.6294H17.9841V45.4904H48.4788C47.4362 46.2707 46.3937 47.3111 45.3511 48.3514H17.9841V51.4725H43.266C42.7447 52.5129 42.2235 53.5532 41.9628 54.3335H17.9841V57.1945H40.9203C40.6596 58.2349 40.6596 59.2752 40.399 60.0555H11.9894V60.5757ZM65.6809 90.226H2.86702V3.87597H65.6809V41.5891C64.1171 41.329 62.8139 41.0689 61.2501 41.0689C60.7288 41.0689 60.2075 41.0689 59.6862 41.0689V31.9657C59.6862 31.1855 58.9043 30.4052 58.1224 30.4052H10.4255C9.64363 30.4052 8.86171 31.1855 8.86171 31.9657V61.8761C8.86171 62.6564 9.64363 63.4367 10.4255 63.4367H40.399C40.6596 65.5174 40.9203 67.5981 41.7022 69.4187H8.86171V72.2797H43.0054C47.4362 80.0824 56.5586 84.2439 65.6809 82.1632V90.226ZM86.7926 90.226C86.0107 90.226 85.4895 89.9659 84.9682 89.4457L74.0214 78.5219C75.5852 77.4815 76.8884 76.1811 77.9309 74.6205L88.8778 85.5443C89.9203 86.5847 89.9203 88.4053 88.8778 89.4457C88.3565 89.9659 87.5746 90.226 86.7926 90.226Z" fill="#2E3B81"/>
<path d="M19.2873 27.8043H22.1543C24.5001 27.8043 26.5852 25.7235 26.5852 23.3827V9.85803H23.9788V23.3827C23.9788 24.163 23.1969 24.9433 22.415 24.9433H19.2873C18.5054 24.9433 17.7235 24.163 17.7235 23.3827V20.2616H14.8564V23.1226C14.8564 25.7235 16.9416 27.8043 19.2873 27.8043Z" fill="#2E3B81"/>
<path d="M32.8404 27.8043H35.7074C38.0532 27.8043 40.1383 25.7235 40.1383 23.3827V14.2796C40.1383 11.9388 38.0532 9.85803 35.7074 9.85803H32.8404C30.4947 9.85803 28.4095 11.9388 28.4095 14.2796V23.1226C28.4095 25.7235 30.4947 27.8043 32.8404 27.8043ZM31.2766 14.2796C31.2766 13.4993 32.0585 12.719 32.8404 12.719H35.7074C36.4893 12.719 37.2713 13.4993 37.2713 14.2796V23.1226C37.2713 23.9029 36.4893 24.6832 35.7074 24.6832H32.8404C32.0585 24.6832 31.2766 23.9029 31.2766 23.1226V14.2796Z" fill="#2E3B81"/>
<path d="M43.266 27.8043H48.4788C51.3458 27.8043 53.6915 25.4635 53.6915 22.6025C53.6915 21.302 53.1702 19.7415 52.1277 18.9612C54.2128 16.8805 54.2128 13.7594 52.1277 11.6787C51.3458 10.3782 50.0426 9.85803 48.4788 9.85803H43.266C42.4841 9.85803 41.7021 10.3782 41.7021 11.1585V25.9836C41.7021 27.024 42.4841 27.8043 43.266 27.8043ZM44.8298 12.719H48.4788C49.7819 12.719 50.8245 13.7594 50.8245 15.0598C50.8245 16.3603 49.7819 17.4007 48.4788 17.4007H44.8298V12.719ZM44.8298 20.2616H48.4788C49.7819 20.2616 50.8245 21.302 50.8245 22.6025C50.8245 23.9029 49.7819 24.9433 48.4788 24.9433H44.8298V20.2616Z" fill="#2E3B81"/>
<path d="M50.8245 36.6473H20.8511V39.5083H50.8245V36.6473Z" fill="#2E3B81"/>
<path d="M29.7128 75.4009H8.86169V78.2619H29.7128V75.4009Z" fill="#2E3B81"/>
<path d="M41.7022 75.4009H32.8405V78.2619H41.7022V75.4009Z" fill="#2E3B81"/>
</svg>
