<svg width="121" height="121" viewBox="0 0 121 121" fill="none" xmlns="http://www.w3.org/2000/svg">
<path d="M98.7258 70.4088C98.7258 97.056 77.138 118.644 50.4908 118.644C23.8435 118.644 2.25586 97.056 2.25586 70.4088C2.25586 43.7615 23.8435 22.1738 50.4908 22.1738C66.0069 22.1738 79.8366 29.2573 88.6066 40.7257C89.9558 42.4123 90.9677 44.0988 91.9796 45.7853C96.3646 52.8688 98.7258 61.3015 98.7258 70.4088Z" stroke="#D46027" stroke-width="3.37307" stroke-miterlimit="10"/>
<path d="M50.487 106.164C30.9232 106.164 14.7324 89.9737 14.7324 70.4098C14.7324 50.846 30.9232 34.6553 50.487 34.6553C61.6182 34.6553 71.7374 39.7149 78.4836 48.4849C79.4955 49.4968 80.1701 50.846 81.182 52.1953C84.5551 57.5922 86.2416 64.001 86.2416 70.4098C86.2416 89.9737 70.0508 106.164 50.487 106.164Z" stroke="#D46027" stroke-width="3.37307" stroke-miterlimit="10"/>
<path d="M50.4929 93.3453C37.6753 93.3453 27.2188 82.8888 27.2188 70.0711C27.2188 57.2534 37.6753 46.7969 50.4929 46.7969C57.5764 46.7969 64.3225 49.8326 68.7075 55.5669C69.3821 56.2415 69.7194 57.2534 70.394 57.928C72.4179 61.3011 73.4299 65.3488 73.4299 69.7338C73.4299 83.2261 63.3106 93.3453 50.4929 93.3453Z" stroke="#D46027" stroke-width="3.37307" stroke-miterlimit="10"/>
<path d="M50.4897 80.8652C44.7555 80.8652 40.0332 76.1429 40.0332 70.4087C40.0332 64.6745 44.7555 59.9521 50.4897 59.9521C53.8628 59.9521 56.8986 61.3014 58.9224 63.9998C59.2597 64.3371 59.5971 64.6745 59.5971 65.0118C60.609 66.6983 60.9463 68.3848 60.9463 70.4087C60.9463 76.1429 56.224 80.8652 50.4897 80.8652Z" stroke="#D46027" stroke-width="3.37307" stroke-miterlimit="10"/>
<path d="M50.4941 70.4089L91.3083 29.5947" stroke="#D46027" stroke-width="3.37307" stroke-miterlimit="10"/>
<path d="M106.481 14.4145L116.937 16.7757L101.421 32.2918L90.9646 29.9307L88.6035 19.4741L104.12 3.95801L106.481 14.4145Z" stroke="#D46027" stroke-width="3.37307" stroke-miterlimit="10"/>
</svg>
