<svg width="120" height="119" viewBox="0 0 120 119" fill="none" xmlns="http://www.w3.org/2000/svg">
<path d="M88.1394 26.2441C86.7901 26.2441 85.7782 26.5815 84.7663 27.5934C84.7663 27.5934 84.7663 27.5934 84.429 27.9307L2.80059 105.174C1.45136 106.523 0.439453 108.547 0.439453 110.571C0.439453 112.595 1.11406 114.619 2.80059 115.968C4.14982 117.317 6.17369 118.329 8.19753 118.329C10.2214 118.329 12.2452 117.654 13.5945 115.968L91.1751 34.6768C91.1751 34.6768 91.1751 34.6768 91.5124 34.3395C92.5243 33.3276 92.8617 32.3157 92.8617 30.9664C92.8617 29.6172 92.5243 28.6053 91.5124 27.5934C90.5005 26.9188 89.4886 26.2441 88.1394 26.2441ZM10.896 113.269C10.2214 113.944 9.20947 114.281 8.53486 114.281C7.52294 114.281 6.84828 113.944 6.17367 113.269C5.49905 112.595 5.16179 111.583 5.16179 110.908C5.16179 109.896 5.49905 109.222 6.17367 108.547L68.9128 48.5064L70.5994 50.193L10.896 113.269ZM88.4767 31.3038L73.6351 47.1572L72.2859 45.808L88.1394 30.9664H88.4767H88.8139C88.4766 30.9664 88.4767 30.9664 88.4767 31.3038ZM95.2228 23.883C94.5482 23.2084 94.5482 21.5218 95.2228 20.8472L105.005 11.0653C105.679 10.3907 107.366 10.3907 108.041 11.0653C108.715 11.7399 108.715 13.4265 108.041 14.1011L98.2586 23.883C97.584 24.5576 97.2466 24.5576 96.572 24.5576C96.2347 24.5576 95.5601 24.5576 95.2228 23.883ZM79.0321 16.1249V2.29533C79.0321 0.946099 80.044 0.271484 81.0559 0.271484C82.0678 0.271484 83.0797 1.28341 83.0797 2.29533V16.1249C83.0797 17.4742 82.0678 18.1488 81.0559 18.1488C80.044 18.1488 79.0321 17.1368 79.0321 16.1249ZM83.0797 59.9749V73.8045C83.0797 75.1537 82.0678 75.8283 81.0559 75.8283C80.044 75.8283 79.0321 75.1537 79.0321 74.1418V60.3122C79.0321 58.963 80.044 58.2883 81.0559 58.2883C82.0678 58.2883 83.0797 58.963 83.0797 59.9749ZM54.0713 14.1011C53.3967 13.4265 53.3967 11.7399 54.0713 11.0653C54.746 10.3907 56.4325 10.3907 57.1071 11.0653L66.889 20.8472C67.5636 21.5218 67.5636 23.2084 66.889 23.883C66.5517 24.5576 66.2144 24.5576 65.5398 24.5576C64.8652 24.5576 64.5279 24.2203 64.1906 23.883L54.0713 14.1011ZM108.041 61.9987C108.715 62.6733 108.715 64.3599 108.041 65.0345C107.703 65.3718 107.029 65.7091 106.691 65.7091C106.017 65.7091 105.679 65.3718 105.342 65.0345L95.5601 55.2526C94.8855 54.578 94.8855 52.8914 95.5601 52.2168C96.2347 51.5422 97.9213 51.5422 98.5959 52.2168L108.041 61.9987ZM42.9402 38.0499C42.9402 36.7007 43.9521 36.0261 44.964 36.0261H58.7936C60.1429 36.0261 60.8175 37.038 60.8175 38.0499C60.8175 39.0618 59.8055 40.0737 58.7936 40.0737H45.3013C43.9521 40.0737 42.9402 39.3991 42.9402 38.0499ZM119.172 38.0499C119.172 39.3991 118.16 40.0737 117.148 40.0737H103.318C101.969 40.0737 101.294 39.0618 101.294 38.0499C101.294 37.038 102.306 36.0261 103.318 36.0261H117.148C118.16 36.0261 119.172 37.038 119.172 38.0499Z" fill="#D46027"/>
</svg>
