<svg width="116" height="116" viewBox="0 0 116 116" fill="none" xmlns="http://www.w3.org/2000/svg">
<path d="M48.5412 102.488L48.2039 101.476C47.192 97.4283 46.1801 93.0433 45.1681 88.9956C43.8189 82.5868 42.1324 78.5391 33.3624 75.8406L24.9297 69.7691C23.5805 68.7572 21.894 68.4199 20.2074 68.7572L14.8105 55.6022C11.1001 46.8322 6.0405 47.8441 4.69127 48.1814C1.31819 49.5307 -0.70561 54.253 0.306312 57.9633L7.38968 79.551C7.38968 79.8883 7.3897 79.8883 7.72701 80.2256C8.73893 83.936 10.4255 88.321 13.7986 90.3448L23.5805 97.091C24.5924 97.7656 25.2671 98.7775 25.6044 100.127L26.2789 102.488H25.267C24.2551 102.488 23.2431 102.825 22.5685 103.5C21.8939 104.174 21.5566 105.186 21.5566 106.198V111.933C21.5566 113.956 23.2432 115.98 25.6044 115.98H49.5531C50.565 115.98 51.577 115.643 52.2516 114.968C52.9262 114.294 53.2635 113.282 53.2635 112.27V106.536C52.2516 104.512 50.5651 102.488 48.5412 102.488ZM28.3028 99.7894C27.9655 97.7656 26.6162 96.0791 24.9297 94.7298L15.1478 87.9837C12.7867 86.2971 11.4375 82.5868 10.4255 79.551C10.4255 79.2137 10.4255 79.2137 10.0882 78.8764L3.00473 57.2887C2.33011 54.9276 3.67939 52.2291 5.36592 51.8918C7.38977 51.2172 9.41355 53.241 11.1001 57.2887L16.8344 70.4437C16.497 70.781 15.8224 71.1183 15.4851 71.7929C13.4613 74.8287 14.1359 78.8764 16.8344 80.9002L28.3028 88.9956C28.9774 89.6702 29.9894 89.3329 30.664 88.6583C31.3386 87.9837 31.0013 86.9718 30.3266 86.2971L18.8582 78.2018C17.509 77.1898 17.1716 75.166 18.1836 73.8168C19.1955 72.4675 21.2193 72.1302 22.5685 73.1422L31.0012 79.2137C31.0012 79.2137 31.3385 79.551 31.6759 79.551C39.0966 81.5748 40.1085 84.2733 41.4577 90.3448C42.4697 94.3925 43.4816 98.7775 44.4935 102.825H28.6401L28.3028 99.7894ZM48.8785 112.944L48.5412 113.282H24.5924C24.2551 113.282 23.9178 112.944 23.9178 112.607V106.873C23.9178 106.536 23.9177 106.536 24.255 106.536L24.5924 106.198H46.8547H48.2039C48.5412 106.198 48.8785 106.536 48.8785 106.873V112.607C49.2159 112.607 48.8785 112.944 48.8785 112.944ZM111.28 48.5187C109.931 47.8441 104.872 46.8322 101.161 55.9395L95.7642 69.0945C94.0777 68.7572 92.3912 69.0945 91.042 70.1064L82.6093 76.1779C73.8393 78.5391 72.4901 82.5868 70.8035 89.3329C69.7916 93.3806 68.7797 97.7656 67.7678 101.813L67.4305 102.488H67.0931C65.0693 102.488 63.0454 104.174 63.0454 106.536V112.27C63.0454 113.282 63.3828 114.294 64.0574 114.968C64.732 115.643 65.7439 115.98 66.7558 115.98H90.7046C92.7285 115.98 94.7524 114.294 94.7524 111.933V106.198C94.7524 105.186 94.415 104.174 93.7404 103.5C93.0658 102.825 92.0539 102.488 91.042 102.488H90.03L90.7046 100.127C91.0419 98.7775 91.7166 97.7656 92.7285 97.091L102.51 90.3448C105.883 87.9837 107.233 83.5987 108.582 80.2256C108.582 79.8883 108.582 79.8883 108.919 79.551L116.003 57.9633C116.677 54.5903 114.653 49.868 111.28 48.5187ZM91.7165 106.198L92.0538 106.536V112.27C92.0538 112.607 91.7166 112.944 91.3793 112.944H67.4305C67.0931 112.944 67.0931 112.944 67.0931 112.607L66.7558 112.27V106.536C66.7558 106.198 67.0931 105.861 67.4305 105.861H68.7797H91.042C91.3793 105.861 91.7165 105.861 91.7165 106.198ZM112.292 57.2887L105.209 78.8764C105.209 79.2137 105.209 79.2137 104.872 79.551C103.86 82.5868 102.51 86.6345 100.149 87.9837L90.3673 94.7298C88.6808 96.0791 87.3315 97.4283 86.9942 99.7894L86.3197 102.825H70.4662C71.4781 98.7775 72.49 94.3925 73.5019 90.3448C74.8512 84.6106 75.8631 81.5748 83.2838 79.551C83.6211 79.551 83.6212 79.551 83.9585 79.2137L92.3912 73.1422C93.0658 72.8049 93.7404 72.4675 94.7524 72.4675C95.427 72.4675 96.4388 73.1422 96.7761 73.8168C97.1134 74.4914 97.4508 75.166 97.4508 76.1779C97.4508 76.8525 96.7762 77.8645 96.1016 78.2018L84.6331 86.2971C83.9585 86.9718 83.6212 87.9837 84.2958 88.6583C84.9704 89.3329 85.9823 89.6702 86.6569 88.9956L98.1254 80.9002C99.4747 79.8883 100.487 78.5391 100.824 76.8525C101.161 75.166 100.824 73.4795 99.812 72.1302C99.4747 71.7929 99.1373 71.1183 98.4627 70.781L104.197 57.2887C105.883 53.241 108.245 50.8799 109.931 51.8918C111.955 52.2291 113.304 54.9276 112.292 57.2887ZM44.1563 62.011C49.2159 62.011 53.6009 60.9991 57.6486 58.9753C61.6962 60.9991 66.4185 62.011 71.1408 62.011C88.0062 62.011 101.836 48.1814 101.836 31.3161C101.836 14.4507 88.0062 0.621094 71.1408 0.621094C66.0812 0.621094 61.6962 1.63302 57.6486 3.65686C53.6009 1.63302 48.8786 0.621094 44.1563 0.621094C27.2909 0.621094 13.4613 14.4507 13.4613 31.3161C13.4613 48.1814 27.2909 62.011 44.1563 62.011ZM71.4781 3.65686C86.6569 3.65686 99.1373 16.1372 99.1373 31.3161C99.1373 46.4949 86.6569 58.9753 71.4781 58.9753C67.7677 58.9753 64.3946 58.3006 61.3589 56.9514C69.4542 51.5545 75.1885 42.1099 75.1885 31.3161C75.1885 20.5222 69.7915 11.0776 61.3589 5.6807C64.3946 4.33147 68.105 3.65686 71.4781 3.65686ZM57.9858 54.9276C49.5531 50.2053 44.1563 41.098 44.1563 30.9788C44.1563 20.8595 49.8904 11.7522 57.9858 7.02993C66.4185 11.7522 71.8154 20.8595 71.8154 30.9788C71.8154 41.098 66.0812 50.2053 57.9858 54.9276ZM44.1563 3.65686C47.8666 3.65686 51.2397 4.33147 54.2755 5.6807C46.1801 11.0776 40.4459 20.5222 40.4459 31.3161C40.4459 42.1099 45.8428 51.5545 54.2755 56.9514C51.2397 58.3006 47.8666 58.9753 44.1563 58.9753C28.9774 58.9753 16.497 46.4949 16.497 31.3161C16.497 16.1372 28.9774 3.65686 44.1563 3.65686ZM62.0335 22.2088C60.347 22.2088 58.9977 22.5461 57.9858 23.8953C56.9739 22.8834 55.6247 22.2088 53.9382 22.2088C50.9024 22.2088 48.2039 24.5699 48.2039 27.6057C48.2039 31.9907 52.5889 36.0384 56.6366 39.4114C56.9739 39.7487 57.6485 40.086 57.9858 40.086C58.3231 40.086 58.9978 39.7487 59.3351 39.4114C63.3828 35.7011 67.7678 31.9907 67.7678 27.6057C67.7678 24.5699 65.0693 22.2088 62.0335 22.2088ZM57.9858 36.3757C54.95 33.6772 51.2396 30.3041 51.2396 27.6057C51.2396 26.5938 52.2516 25.5818 53.6008 25.5818C54.6128 25.5818 55.2874 25.9191 55.962 26.9311C56.2993 27.6057 56.9739 27.943 57.6486 27.943C58.3232 27.943 58.9978 27.6057 59.3351 26.9311C60.0097 25.9191 60.6843 25.5818 61.6962 25.5818C63.0454 25.5818 64.0574 26.5938 64.0574 27.6057C64.3947 30.3041 61.0215 33.6772 57.9858 36.3757ZM78.8989 36.0384H82.2719V39.4114C82.2719 40.4234 82.9466 41.098 83.9585 41.098H90.3673C91.3792 41.098 92.0538 40.4234 92.0538 39.4114V36.0384H95.4269C96.4388 36.0384 97.1134 35.3637 97.1134 34.3518V27.943C97.1134 26.9311 96.4388 26.2565 95.4269 26.2565H92.0538V22.8834C92.0538 21.8715 91.3792 21.1968 90.3673 21.1968H83.9585C82.9466 21.1968 82.2719 21.8715 82.2719 22.8834V26.2565H78.8989C77.887 26.2565 77.2123 26.9311 77.2123 27.943V34.3518C77.2123 35.0264 77.887 36.0384 78.8989 36.0384ZM80.5854 29.6295H83.9585C84.9704 29.6295 85.645 28.9549 85.645 27.943V24.5699H88.6808V27.943C88.6808 28.9549 89.3554 29.6295 90.3673 29.6295H93.7404V32.6653H90.3673C89.3554 32.6653 88.6808 33.3399 88.6808 34.3518V37.7249H85.645V34.3518C85.645 33.3399 84.9704 32.6653 83.9585 32.6653H80.5854V29.6295ZM26.9536 39.0741C25.9416 38.7368 25.267 38.0622 24.5924 37.3876C23.9178 36.713 23.9178 35.7011 24.5924 35.0264C25.267 34.3518 26.279 34.3518 26.9536 35.0264C27.6282 35.7011 27.9655 36.0384 28.6401 36.0384C29.652 36.0384 30.664 35.3637 30.664 34.3518C30.664 33.3399 29.652 32.6653 28.6401 32.6653C25.9416 32.6653 23.5805 30.6414 23.5805 27.943C23.5805 25.9191 24.9297 23.8953 26.9536 23.2207V22.5461C26.9536 21.5341 27.6282 20.8595 28.6401 20.8595C29.652 20.8595 30.3266 21.5341 30.3266 22.5461V23.2207C31.3386 23.558 32.6878 24.2326 33.3624 25.2445C33.6997 25.9191 33.6997 26.9311 33.0251 27.6057C32.3504 27.943 31.3386 27.943 30.664 27.2684C30.3267 26.9311 29.3147 26.5938 28.9774 26.5938C27.9655 26.5938 26.9536 27.2684 26.9536 28.2803C26.9536 28.9549 27.9655 29.9668 28.9774 29.9668C31.6759 29.9668 34.037 31.9907 34.037 34.6891C34.037 36.713 32.6878 38.7368 30.664 39.4114V39.7487C30.664 40.7607 29.9894 41.4353 28.9774 41.4353C27.9655 41.4353 27.2909 40.7607 27.2909 39.7487L26.9536 39.0741Z" fill="#D46027"/>
</svg>
