<svg width="119" height="131" viewBox="0 0 119 131" fill="none" xmlns="http://www.w3.org/2000/svg">
<path d="M113.673 47.7579H105.914V46.7459C105.914 44.7221 104.228 42.6982 101.867 42.6982H86.688C85.6761 42.6982 84.6641 43.7102 84.6641 44.7221C84.6641 45.734 85.6761 46.7459 86.688 46.7459H101.867V70.0201C101.867 71.0321 102.879 72.044 103.891 72.044C104.903 72.044 105.914 71.0321 105.914 70.0201V51.4682H113.673C114.01 51.4682 114.01 51.8055 114.01 51.8055V118.592C114.01 122.977 110.299 126.688 105.914 126.688H11.4684C7.08345 126.688 3.37307 122.977 3.37307 118.592V52.1428C3.37307 51.8055 3.71038 51.8055 3.71038 51.8055H11.8058V117.243C11.8058 119.942 13.8296 121.965 16.5281 121.965H101.192C103.891 121.965 105.914 119.942 105.914 117.243V78.4528C105.914 77.4409 104.903 76.429 103.891 76.429C102.879 76.429 101.867 77.4409 101.867 78.4528V106.112H70.8345C66.7868 106.112 63.0765 107.799 60.7153 110.497V85.8736C60.7153 84.8617 59.7034 83.8497 58.6915 83.8497C57.6795 83.8497 57.3422 84.5243 57.3422 85.5363V110.16C54.6438 107.461 51.2707 105.775 47.223 105.775H38.453C37.4411 105.775 36.4292 106.787 36.4292 107.799C36.4292 108.81 37.4411 109.822 38.453 109.822H47.223C52.2826 109.822 56.3303 113.533 57.3422 118.255H17.2027C16.5281 118.255 16.1908 117.918 16.1908 117.243V109.822H30.3577C31.3696 109.822 32.3815 108.81 32.3815 107.799C32.3815 106.787 31.3696 105.775 30.3577 105.775H16.1908V46.7459H31.3696C32.3815 46.7459 33.3934 45.734 33.3934 44.7221C33.3934 43.7102 32.3815 42.6982 31.3696 42.6982H16.1908C14.1669 42.6982 12.1431 44.3848 12.1431 46.7459V47.7579H4.38499C2.02384 47.7579 0 49.7817 0 52.1428V118.93C0 125.339 5.39692 130.735 11.8058 130.735H106.252C112.661 130.735 118.058 125.339 118.058 118.93V52.1428C118.058 49.7817 116.034 47.7579 113.673 47.7579ZM71.1718 109.485H102.204V116.906C102.204 117.58 101.867 117.918 101.192 117.918H61.0526C62.0645 113.195 66.1122 109.485 71.1718 109.485Z" fill="#D46027"/>
<path d="M33.7309 26.8465C34.7428 26.8465 35.7547 26.1719 35.7547 25.16C36.4293 19.4257 39.1278 14.0288 43.1755 9.98113C47.5605 5.93344 53.2947 3.9096 59.0289 3.9096C71.8466 3.9096 82.6404 14.3661 82.6404 27.5211C82.6404 32.2434 81.2912 36.9657 78.2554 41.0134L66.1124 59.9026C65.7751 60.2399 65.7751 60.5772 65.7751 60.9145V63.2757C65.7751 63.613 65.4378 64.2876 64.7632 64.2876L66.1124 43.7119H68.1362C71.172 43.7119 73.8704 41.0134 73.8704 37.9776V37.6403C73.8704 34.6046 71.172 31.9061 68.1362 31.9061C65.1005 31.9061 62.7393 34.2673 62.402 37.303V39.6642H55.6559V37.303C55.3185 34.2673 52.9574 31.9061 49.9216 31.9061C46.8859 31.9061 44.1874 34.6046 44.1874 37.6403V37.9776C44.1874 41.0134 46.8859 43.7119 49.9216 43.7119H51.9455L53.2947 64.2876C52.9574 64.2876 52.6201 63.9503 52.6201 63.2757V60.9145C52.6201 60.5772 52.6201 60.2399 52.2828 59.9026L40.1397 41.0134C38.4532 38.6523 37.104 35.6165 36.4293 32.918C36.092 31.9061 35.0801 31.2315 34.0682 31.5688C33.0563 31.5688 32.3816 32.5807 32.3816 33.5926C33.0563 36.9657 34.7428 40.3388 36.7666 43.0372L48.5724 61.5892V63.613C48.5724 65.6368 49.5843 67.3234 51.2709 67.998V71.3711C51.2709 74.7441 53.9693 77.4426 57.3424 77.4426H60.7155C64.0885 77.4426 66.787 74.7441 66.787 71.3711V67.998C68.4735 67.3234 69.4855 65.6368 69.4855 63.613V61.5892L81.2912 43.0372C84.6643 38.3149 86.3508 32.918 86.3508 27.1838C86.3508 12.3423 74.2078 0.199219 59.0289 0.199219C52.2828 0.199219 45.5366 2.89768 40.477 7.28267C35.4174 12.005 32.3816 18.0765 31.707 24.8227C31.707 25.8346 32.719 26.8465 33.7309 26.8465ZM66.4497 37.9776C66.4497 36.9657 67.4616 36.2911 68.1362 36.2911C69.1481 36.2911 69.8228 36.9657 69.8228 37.9776V38.3149C69.8228 39.3269 69.1481 40.0015 68.1362 40.0015H66.1124L66.4497 37.9776ZM49.9216 40.0015C48.9097 40.0015 48.2351 39.3269 48.2351 38.3149V37.9776C48.2351 36.9657 48.9097 36.2911 49.9216 36.2911C50.9335 36.2911 51.6082 36.9657 51.6082 37.9776V40.0015H49.9216ZM62.0647 44.0492L60.7155 64.6249H57.0051L55.9932 44.0492H62.0647ZM63.0766 71.0338C63.0766 72.383 62.0647 73.3949 60.7155 73.3949H57.6797C56.3305 73.3949 55.3185 72.383 55.3185 71.0338V68.3353H63.0766V71.0338Z" fill="#D46027"/>
<path d="M92.422 14.703C92.7593 14.703 93.4339 14.703 93.7713 14.3657L97.8189 10.6553C98.4936 9.98073 98.8309 8.6315 98.1563 7.95689C97.4816 6.94496 96.1324 6.94496 95.4578 7.61958L91.4101 11.33C90.7355 12.0046 90.3982 13.3538 91.0728 14.0284C91.4101 14.3657 92.0847 14.703 92.422 14.703Z" fill="#D46027"/>
<path d="M91.411 26.171L95.4587 29.8814C95.796 30.2187 96.1333 30.2187 96.8079 30.2187C97.4825 30.2187 97.8198 29.8813 98.1571 29.544C98.8317 28.8694 98.8317 27.5202 97.8198 26.8456L93.7721 23.1352C93.0975 22.4606 91.7483 22.4606 91.0737 23.4725C90.3991 24.4844 90.3991 25.4964 91.411 26.171Z" fill="#D46027"/>
<path d="M20.2382 10.6553L24.2859 14.3657C24.6232 14.703 24.9605 14.703 25.6351 14.703C26.3098 14.703 26.6471 14.3657 26.9844 14.0284C27.659 13.3538 27.659 12.0046 26.9844 11.33L22.5994 7.61958C21.9248 6.94496 20.5755 6.94496 19.9009 7.95689C19.2263 8.6315 19.5636 9.98073 20.2382 10.6553Z" fill="#D46027"/>
<path d="M21.5875 30.2189C21.9248 30.2189 22.5994 30.2189 22.9367 29.8816L26.9844 26.1712C27.659 25.4966 27.659 24.4847 26.9844 23.4728C26.3098 22.7981 25.2978 22.7981 24.2859 23.4728L20.2382 27.1831C19.5636 27.8578 19.2263 28.8697 19.9009 29.5443C20.5755 30.2189 20.9128 30.2189 21.5875 30.2189Z" fill="#D46027"/>
<path d="M42.166 66.311C42.166 65.299 41.1541 64.2871 40.1422 64.2871H21.5902C20.5783 64.2871 19.5664 65.299 19.5664 66.311C19.5664 67.3229 20.5783 68.3348 21.5902 68.3348H40.4795C41.4914 68.3348 42.166 67.6602 42.166 66.311Z" fill="#D46027"/>
<path d="M46.2156 74.4072H24.9652C23.9533 74.4072 22.9414 75.4191 22.9414 76.4311C22.9414 77.443 23.9533 78.4549 24.9652 78.4549H46.2156C47.2275 78.4549 48.2395 77.443 48.2395 76.4311C47.9021 75.0818 47.2275 74.4072 46.2156 74.4072Z" fill="#D46027"/>
<path d="M46.2156 83.5146H24.9652C23.9533 83.5146 22.9414 84.5266 22.9414 85.5385C22.9414 86.5504 23.9533 87.5623 24.9652 87.5623H46.2156C47.2275 87.5623 48.2395 86.5504 48.2395 85.5385C48.2395 84.5266 47.2275 83.5146 46.2156 83.5146Z" fill="#D46027"/>
<path d="M46.2156 92.958H24.9652C23.9533 92.958 22.9414 93.9699 22.9414 94.9819C22.9414 95.9938 23.9533 97.0057 24.9652 97.0057H46.2156C47.2275 97.0057 48.2395 95.9938 48.2395 94.9819C47.9021 93.6326 47.2275 92.958 46.2156 92.958Z" fill="#D46027"/>
<path d="M98.4935 66.311C98.4935 65.299 97.4816 64.2871 96.4697 64.2871H77.5805C76.5686 64.2871 75.5566 65.299 75.5566 66.311C75.5566 67.3229 76.5686 68.3348 77.5805 68.3348H96.4697C97.8189 68.3348 98.4935 67.6602 98.4935 66.311Z" fill="#D46027"/>
<path d="M93.4363 74.4072H72.186C71.174 74.4072 70.1621 75.4191 70.1621 76.4311C70.1621 77.443 71.174 78.4549 72.186 78.4549H93.4363C94.4482 78.4549 95.4602 77.443 95.4602 76.4311C95.1228 75.0818 94.4482 74.4072 93.4363 74.4072Z" fill="#D46027"/>
<path d="M93.4363 83.5146H72.186C71.174 83.5146 70.1621 84.5266 70.1621 85.5385C70.1621 86.5504 71.174 87.5623 72.186 87.5623H93.4363C94.4482 87.5623 95.4602 86.5504 95.4602 85.5385C95.4602 84.5266 94.4482 83.5146 93.4363 83.5146Z" fill="#D46027"/>
<path d="M93.4363 92.958H72.186C71.174 92.958 70.1621 93.9699 70.1621 94.9819C70.1621 95.9938 71.174 97.0057 72.186 97.0057H93.4363C94.4482 97.0057 95.4602 95.9938 95.4602 94.9819C95.1228 93.6326 94.4482 92.958 93.4363 92.958Z" fill="#D46027"/>
</svg>
