<svg width="96" height="96" viewBox="0 0 96 96" fill="none" xmlns="http://www.w3.org/2000/svg">
<path d="M11.8141 43.1496L14.6812 42.6294C14.4205 40.8088 14.1599 39.2483 14.1599 37.4276C14.1599 18.7011 29.5375 3.35579 48.3035 3.35579C49.3461 3.35579 50.3887 3.35579 51.4312 3.61588L51.6918 0.754883C50.6492 0.754883 49.3461 0.754883 48.3035 0.754883C27.9737 0.754883 11.5535 17.1406 11.5535 37.4276C11.5535 39.5084 11.5535 41.329 11.8141 43.1496Z" fill="#2E3B81"/>
<path d="M80.362 48.8716C78.0162 55.634 73.3248 61.616 67.0695 65.7775C64.9844 67.0779 63.4205 68.8986 62.3779 70.7192H34.229C32.9258 68.6385 31.3619 67.0779 29.5375 65.7775C22.2396 61.0959 17.2874 53.8133 15.2023 45.2303L12.5959 45.7505C14.6811 54.8537 20.1545 62.6564 27.9737 67.8582C31.6226 70.4591 33.9683 74.6206 33.9683 79.0421V85.0242C33.9683 87.6251 36.0534 89.9659 38.6598 90.226V90.7462C38.6598 93.6072 41.0056 95.948 43.8726 95.948H53.2556C56.1226 95.948 58.4684 93.6072 58.4684 90.7462V90.226C61.0747 89.9659 63.1599 87.8852 63.1599 85.0242V79.0421C63.1599 74.6206 65.5056 70.4591 69.1546 67.8582C75.6705 63.4367 80.8833 56.9344 83.4897 49.6519L80.362 48.8716ZM60.0322 85.2843C60.0322 86.5847 58.9897 87.6251 57.6865 87.6251H47.7822V90.4861H55.3407V91.0063C55.3407 92.3067 54.2981 93.3471 52.9949 93.3471H43.612C42.3088 93.3471 41.2662 92.3067 41.2662 91.0063V90.4861H44.9152V87.6251H38.9205C37.6173 87.6251 36.5747 86.5847 36.5747 85.2843V84.7641H60.0322V85.2843ZM60.0322 79.3022V81.9031H36.5747V79.3022C36.5747 79.3022 36.5747 79.3022 36.5747 79.0421L60.0322 79.3022ZM60.2929 76.4412H36.3141C36.0534 75.4008 35.7928 74.6206 35.5322 73.5802H61.0747C60.8141 74.6206 60.5535 75.4008 60.2929 76.4412Z" fill="#2E3B81"/>
<path d="M82.4472 37.4277C82.4472 40.5488 82.1866 43.4097 81.4047 46.2707L84.011 47.051C84.793 43.9299 85.3142 40.8088 85.3142 37.4277C85.3142 28.5846 82.1865 20.2617 76.4525 13.4994C70.979 6.99709 63.1599 2.57556 54.5588 1.01501L54.0376 3.87601C70.4578 6.737 82.4472 21.042 82.4472 37.4277Z" fill="#2E3B81"/>
<path d="M0.606689 36.6473H7.64388V39.5083H0.606689V36.6473Z" fill="#2E3B81"/>
<path d="M88.9631 36.6473H96.0003V39.5083H88.9631V36.6473Z" fill="#2E3B81"/>
<path d="M2.95239 53.0331L9.72901 50.6923L10.7716 53.2932L3.99493 55.634L2.95239 53.0331Z" fill="#2E3B81"/>
<path d="M86.0959 22.8627L92.8726 20.5219L93.9151 23.1228L87.1385 25.4636L86.0959 22.8627Z" fill="#2E3B81"/>
<path d="M10.7712 67.5981L16.2447 62.9165L18.0691 64.9972L12.5957 69.6789L10.7712 67.5981Z" fill="#2E3B81"/>
<path d="M78.5376 10.8984L84.011 6.2168L85.8354 8.29752L80.362 12.9791L78.5376 10.8984Z" fill="#2E3B81"/>
<path d="M86.0959 53.2932L87.1385 50.6923L93.9151 53.0331L92.8726 55.634L86.0959 53.2932Z" fill="#2E3B81"/>
<path d="M2.95239 23.1228L3.99493 20.5219L10.7716 22.8627L9.72901 25.4636L2.95239 23.1228Z" fill="#2E3B81"/>
<path d="M78.5376 65.2572L80.362 63.1765L85.8354 67.8581L84.011 69.9389L78.5376 65.2572Z" fill="#2E3B81"/>
<path d="M10.7712 8.55765L12.5957 6.47693L18.0691 11.1586L16.2447 13.2393L10.7712 8.55765Z" fill="#2E3B81"/>
<path d="M43.6119 13.2393C40.4842 13.2393 37.3565 15.0599 36.0533 17.9209C32.9256 18.181 30.5799 20.7819 30.5799 23.903C30.5799 23.903 30.5799 23.903 30.5799 24.1631C27.1916 25.2034 24.5852 28.5846 24.5852 32.2259C24.5852 34.5667 25.6278 36.9075 27.1916 38.468C26.149 39.7685 25.6277 41.329 25.6277 42.8896C25.6277 45.2304 26.6703 47.3111 28.4948 48.6115C28.2341 49.3918 27.9736 50.1721 27.9736 51.2124C27.9736 54.8537 30.5799 57.7147 33.9682 58.2349C35.7927 61.0959 38.9204 63.1766 42.3087 63.1766C44.3938 63.1766 46.4789 62.3963 48.3033 61.0959C49.8672 62.3963 51.9522 63.1766 54.298 63.1766C57.6863 63.1766 61.0746 61.356 62.6385 58.2349C66.0268 57.7147 68.6331 54.5936 68.6331 51.2124C68.6331 50.4322 68.3725 49.3918 68.1119 48.6115C69.9364 47.3111 70.9789 45.2304 70.9789 42.8896C70.9789 41.329 70.4576 39.7685 69.4151 38.468C71.2395 36.9075 72.0215 34.5667 72.0215 32.2259C72.0215 28.5846 69.6757 25.2034 66.0267 24.1631C66.0267 24.1631 66.0267 24.1631 66.0267 23.903C66.0267 20.7819 63.681 18.181 60.5534 17.9209C59.2502 15.0599 56.1225 13.2393 52.9948 13.2393C51.431 13.2393 49.6065 13.7594 48.3033 14.7998C47.0001 13.7594 45.1757 13.2393 43.6119 13.2393ZM47.0001 58.495C45.6969 59.5353 44.1331 60.0555 42.5693 60.0555C40.4841 60.0555 38.6597 59.2752 37.3565 57.7147C38.1384 57.4546 38.9204 56.9344 39.7023 56.4143C41.0055 55.1138 41.5267 53.2932 41.2661 50.9524L38.3991 51.2124C38.6597 52.5129 38.3991 53.8134 37.6171 54.3335C36.8352 55.3739 35.2714 55.3739 35.2714 55.3739C32.9257 55.1138 31.1012 53.2932 31.1012 50.9524C31.1012 50.1721 31.3619 49.3918 31.8831 48.6115L32.665 47.3111L31.3618 46.5308C29.798 45.7506 29.0161 44.19 29.0161 42.6295C29.0161 41.329 29.5374 40.0286 30.5799 39.2483C30.8406 38.9882 31.8831 38.468 33.4469 38.7281C34.7501 38.9882 35.7927 40.0286 36.5746 41.8492L39.181 40.5487C37.8778 37.9478 36.0533 36.3873 34.2289 35.8671C32.4044 35.3469 31.1012 35.8671 30.0586 36.3873C28.7554 35.3469 27.9736 33.7864 27.9736 31.9658C27.9736 29.1048 30.0586 26.764 32.9257 26.5039C32.9257 26.5039 35.7926 26.2438 37.3565 29.1048L39.7023 27.8043C37.8778 24.6832 35.2714 23.903 33.7076 23.903C33.7076 22.0823 35.2714 20.7819 37.0959 20.7819H37.3565H38.3991L38.6597 19.7415C39.4416 17.4007 41.5267 15.8402 44.1331 15.8402C45.4363 15.8402 46.4789 16.1003 47.5215 16.8805V58.495H47.0001ZM49.6065 17.1406C50.6491 16.3603 51.6916 16.1003 52.9948 16.1003C55.3405 16.1003 57.6863 17.6608 58.4682 20.0016L58.7289 21.042H59.7714H60.0321C61.8565 21.042 63.1597 22.3424 63.4203 24.1631C61.8565 24.4231 59.2502 25.2034 57.4257 28.0644L59.7714 29.3649C61.5959 26.5039 64.2023 26.764 64.2023 26.764C67.0693 27.024 69.1544 29.625 69.1544 32.2259C69.1544 34.0465 68.3725 35.607 67.0693 36.6474C66.2874 36.1272 64.7236 35.8671 62.8991 36.1272C60.814 36.6474 59.2502 38.2079 57.947 40.8088L60.5534 42.1093C61.5959 40.2887 62.6384 39.2483 63.681 38.9882C64.9842 38.7281 66.2874 39.2483 66.548 39.5084C67.5906 40.2887 68.1119 41.5891 68.1119 42.8896C68.1119 44.4501 67.0693 46.0106 65.7662 46.7909L64.463 47.5712L65.2448 48.8716C65.7661 49.6519 66.0267 50.4322 66.0267 51.2124C66.0267 53.5533 64.2023 55.3739 61.8566 55.634C61.5959 55.634 60.2927 55.634 59.5108 54.5936C58.9895 53.8134 58.7289 52.773 58.7289 51.4725L55.8618 51.2124C55.6012 53.5533 56.1225 55.3739 57.4257 56.6743C58.2076 57.4546 58.9895 57.7147 59.7714 57.9748C58.4682 59.5353 56.6438 60.3156 54.5586 60.3156C52.9948 60.3156 51.431 59.7954 50.1278 58.7551V17.1406H49.6065Z" fill="#2E3B81"/>
<path d="M76.7129 39.5084H79.5799V42.3694H76.7129V39.5084Z" fill="#2E3B81"/>
<path d="M76.7129 33.7864H79.5799V36.6474H76.7129V33.7864Z" fill="#2E3B81"/>
</svg>
